/* XPM */
static char * digit_16_4_xpm[] = {
"16 15 33 1",
" 	c #000000",
".	c #363000",
"+	c #E9D400",
"@	c #EED800",
"#	c #0B0900",
"$	c #443C00",
"%	c #554C00",
"&	c #EAD400",
"*	c #332E00",
"=	c #E8D200",
"-	c #ECD600",
";	c #534B00",
">	c #615800",
",	c #E3CE00",
"'	c #645A00",
")	c #6F6400",
"!	c #EAD500",
"~	c #EDD700",
"{	c #DFCA00",
"]	c #D9C500",
"^	c #312B00",
"/	c #7A6E00",
"(	c #726700",
"_	c #706500",
":	c #131000",
"<	c #EBD500",
"[	c #D2BE00",
"}	c #D3C000",
"|	c #CEBB00",
"1	c #2E2800",
"2	c #2A2500",
"3	c #C0AE00",
"4	c #C4B200",
"                ",
"      .+@@@@+.  ",
"    #$%&@@@@+.  ",
"    *=-@@@@@+.  ",
"  #;>&@,,@@@+.  ",
"  .+@@+..+@@+.  ",
" ')!~{]^.+@@+.  ",
" @@@+^  .+@@+.  ",
" @@@!/((/!@@!/_:",
" @@@@@@@@@@@@@<.",
" [[[[[[[}~@@~}|1",
"        1+@@+1  ",
"        .+@@+.  ",
"        .+@@+.  ",
"        234432  "};
