/* XPM */
static char * digit_16_5_xpm[] = {
"16 15 33 1",
" 	c #000000",
".	c #EED800",
"+	c #E9D400",
"@	c #363000",
"#	c #E7D100",
"$	c #E3CE00",
"%	c #332E00",
"&	c #EAD400",
"*	c #3F3900",
"=	c #1F1B00",
"-	c #615800",
";	c #554C00",
">	c #534B00",
",	c #0B0900",
"'	c #DEC900",
")	c #DFCA00",
"!	c #EDD700",
"~	c #EAD500",
"{	c #6F6400",
"]	c #131000",
"^	c #312B00",
"/	c #7F7200",
"(	c #7C7000",
"_	c #1A1600",
":	c #EBD500",
"<	c #CBB800",
"[	c #CDBA00",
"}	c #918300",
"|	c #8A7D00",
"1	c #C7B500",
"2	c #2A2500",
"3	c #C0AE00",
"4	c #C4B200",
"                ",
" ...........+@  ",
" ....#######$%  ",
" ...&*=======   ",
" ...&-;;;;;;>,  ",
" ...........+@  ",
" ''''''''')!~{-]",
"          ^+..~@",
"          @+..+@",
"          @+..+@",
" ///(_    @+..+@",
" ...:@    @+..+@",
" <[!:}||||}:![12",
"  ^+........+^  ",
"  234444444432  "};
