/* XPM */
static char * digit_16_1_xpm[] = {
"16 15 22 1",
" 	c #000000",
".	c #363000",
"+	c #E9D400",
"@	c #EED800",
"#	c #0B0900",
"$	c #443C00",
"%	c #554C00",
"&	c #EAD400",
"*	c #332E00",
"=	c #E8D200",
"-	c #ECD600",
";	c #DFCA00",
">	c #E3CE00",
",	c #1A1600",
"'	c #887B00",
")	c #8A7D00",
"!	c #918300",
"~	c #EBD500",
"{	c #EAD500",
"]	c #2A2500",
"^	c #C0AE00",
"/	c #C4B200",
"                ",
"      .+@@+.    ",
"    #$%&@@+.    ",
"    *=-@@@+.    ",
"    *;>@@@+.    ",
"     #.+@@+.    ",
"      .+@@+.    ",
"      .+@@+.    ",
"      .+@@+.    ",
"      .+@@+.    ",
"      .+@@+.    ",
"      .+@@+.    ",
"  ,'))!~@@~!))',",
"  .{@@@@@@@@@@{.",
"  ]^//////////^]"};
