/* XPM */
static char * digit_16_7_xpm[] = {
"16 15 28 1",
" 	c #000000",
".	c #EED800",
"+	c #E9D400",
"@	c #363000",
"#	c #E7D100",
"$	c #EAD400",
"%	c #3F3900",
"&	c #1F1B00",
"*	c #E3CE00",
"=	c #DFCA00",
"-	c #332E00",
";	c #0B0900",
">	c #534B00",
",	c #615800",
"'	c #131000",
")	c #6F6400",
"!	c #EAD500",
"~	c #EDD700",
"{	c #D9C500",
"]	c #312B00",
"^	c #706500",
"/	c #7A6E00",
"(	c #D4C100",
"_	c #EBD500",
":	c #2E2800",
"<	c #2A2500",
"[	c #C0AE00",
"}	c #C4B200",
"                ",
" .............+@",
" ....######...+@",
" ...$%&&&&%$..+@",
" ***=-  ;>,$.*=-",
" ;;;;   @+..+@; ",
"      ',)!~={]  ",
"      @!..+]    ",
"    '^/!~{(]    ",
"    @_..+:      ",
"    @+..+@      ",
"    @+..+@      ",
"    @+..+@      ",
"    @+..+@      ",
"    <[}}[<      "};
