/* XPM */
static char * digit_32_4_xpm[] = {
"32 30 2 1",
" 	c #000000",
".	c #EED800",
"                                ",
"              ............      ",
"              ............      ",
"              ............      ",
"              ............      ",
"          ................      ",
"          ................      ",
"          ................      ",
"          ................      ",
"      ........    ........      ",
"      ........    ........      ",
"      ........    ........      ",
"      ........    ........      ",
"  ........        ........      ",
"  ........        ........      ",
"  ........        ........      ",
"  ........        ........      ",
"  ............................  ",
"  ............................  ",
"  ............................  ",
"  ............................  ",
"                  ........      ",
"                  ........      ",
"                  ........      ",
"                  ........      ",
"                  ........      ",
"                  ........      ",
"                  ........      ",
"                  ........      ",
"                                "};
