/* XPM */
static char * digit_16_0_xpm[] = {
"16 15 38 1",
" 	c #000000",
".	c #363000",
"+	c #E9D400",
"@	c #EED800",
"#	c #0B0900",
"$	c #443C00",
"%	c #554C00",
"&	c #E3CE00",
"*	c #E7D100",
"=	c #EAD400",
"-	c #332E00",
";	c #E8D200",
">	c #3F3900",
",	c #1F1B00",
"'	c #ECD600",
")	c #615800",
"!	c #DFCA00",
"~	c #534B00",
"{	c #D2BE00",
"]	c #D3C000",
"^	c #EDD700",
"/	c #EBD500",
"(	c #867900",
"_	c #7C7000",
":	c #1A1600",
"<	c #CEBB00",
"[	c #2E2800",
"}	c #2A2500",
"|	c #C7B500",
"1	c #CDBA00",
"2	c #918300",
"3	c #8A7D00",
"4	c #8E8100",
"5	c #C9B600",
"6	c #312B00",
"7	c #EAD500",
"8	c #C0AE00",
"9	c #C4B200",
"                ",
"    .+@@@@+.    ",
"  #$%&***@=%$#  ",
"  -;;>,,>=@';-  ",
" %)=+.  -!&@=)~#",
" @@@+.   #.+@@+.",
" @@@+.    .+@@+.",
" @@@+.    .+@@+.",
" @@@+.    .+@@+.",
" @@@+.    .+@@+.",
" {]^/(_:  .+^]<[",
"  [+@@/.  .++[  ",
"  }|1^/23345|}  ",
"    6+@@@@76    ",
"    }899998}    "};
