/* XPM */
static char * digit_16_2_xpm[] = {
"16 15 42 1",
" 	c #000000",
".	c #363000",
"+	c #E9D400",
"@	c #EED800",
"#	c #443C00",
"$	c #554C00",
"%	c #EAD400",
"&	c #E7D100",
"*	c #0B0900",
"=	c #ECD600",
"-	c #3F3900",
";	c #1F1B00",
">	c #E8D200",
",	c #332E00",
"'	c #E3CE00",
")	c #DFCA00",
"!	c #534B00",
"~	c #615800",
"{	c #131000",
"]	c #645A00",
"^	c #6F6400",
"/	c #EAD500",
"(	c #EDD700",
"_	c #D9C500",
":	c #312B00",
"<	c #706500",
"[	c #7A6E00",
"}	c #D4C100",
"|	c #EBD500",
"1	c #2E2800",
"2	c #7F7200",
"3	c #867900",
"4	c #D3C000",
"5	c #D2BE00",
"6	c #CEBB00",
"7	c #918300",
"8	c #8A7D00",
"9	c #887B00",
"0	c #1A1600",
"a	c #C4B200",
"b	c #C0AE00",
"c	c #2A2500",
"                ",
"  .+@@@@@@@@+.  ",
" #$%@&&&&&&@%$#*",
" ==@%-;;;;-%@=>,",
" '''),  *!~%@@+.",
" ****   .+@@@@+.",
"    {~]]^/@@()_:",
"    ./@@@@@@+:  ",
"  {<[/@@@@(_}:  ",
"  .|@@@@@@+1    ",
" 23|@@(45561    ",
" @@@@@+1        ",
" @@@@@|788888890",
" @@@@@@@@@@@@@/.",
" aaaaaaaaaaaaabc"};
