/* XPM */
static char * digit_16_8_xpm[] = {
"16 15 49 1",
" 	c #000000",
".	c #363000",
"+	c #E9D400",
"@	c #EED800",
"#	c #443C00",
"$	c #554C00",
"%	c #EAD400",
"&	c #E7D100",
"*	c #E3CE00",
"=	c #0B0900",
"-	c #ECD600",
";	c #3F3900",
">	c #1F1B00",
",	c #E8D200",
"'	c #332E00",
")	c #615800",
"!	c #534B00",
"~	c #DEC900",
"{	c #DFCA00",
"]	c #EDD700",
"^	c #EAD500",
"/	c #6F6400",
"(	c #645A00",
"_	c #6C6200",
":	c #DAC600",
"<	c #D9C500",
"[	c #312B00",
"}	c #726700",
"|	c #786C00",
"1	c #D5C100",
"2	c #D8C400",
"3	c #7A6E00",
"4	c #706500",
"5	c #131000",
"6	c #EBD500",
"7	c #2E2800",
"8	c #CEBB00",
"9	c #D2BE00",
"0	c #D3C000",
"a	c #CBB800",
"b	c #C9B600",
"c	c #8E8100",
"d	c #8A7D00",
"e	c #918300",
"f	c #CDBA00",
"g	c #C7B500",
"h	c #2A2500",
"i	c #C0AE00",
"j	c #C4B200",
"                ",
"  .+@@@@@@+.    ",
" #$%@&&&&&*$#=  ",
" --@%;>>>>;,,'  ",
" @@@%)!=  .++.  ",
" @@@@@+.  .++.  ",
" ~{]@@^/((_:<[  ",
"  [+@@@@@@^[    ",
" }|122<]@@^3}}45",
" @67  7+@@@@@@6.",
" @+.  78990]@@+.",
" @+.      7+@@+.",
" abcdddddde6]fgh",
"  [^@@@@@@@@+[  ",
"  hijjjjjjjjih  "};
