/* XPM */
static char * digit_16_3_xpm[] = {
"16 15 37 1",
" 	c #000000",
".	c #363000",
"+	c #E9D400",
"@	c #EED800",
"#	c #332E00",
"$	c #E3CE00",
"%	c #E7D100",
"&	c #1F1B00",
"*	c #3F3900",
"=	c #EAD400",
"-	c #0B0900",
";	c #534B00",
">	c #615800",
",	c #DFCA00",
"'	c #131000",
")	c #6F6400",
"!	c #EAD500",
"~	c #312B00",
"{	c #D4C100",
"]	c #D8C400",
"^	c #D9C500",
"/	c #EDD700",
"(	c #7A6E00",
"_	c #706500",
":	c #2E2800",
"<	c #EBD500",
"[	c #7F7200",
"}	c #7C7000",
"|	c #1A1600",
"1	c #CBB800",
"2	c #CDBA00",
"3	c #918300",
"4	c #8A7D00",
"5	c #C7B500",
"6	c #2A2500",
"7	c #C0AE00",
"8	c #C4B200",
"                ",
"  .+@@@@@@@@@@+.",
"  #$%%%%%@@@@%$#",
"   &&&&&*=@@=*& ",
"      -;>=@$,#  ",
"      .+@@+.-   ",
"    '>)!@@!)>'  ",
"    .!@@@@@@!.  ",
"    ~{]]]]^/!(_'",
"          :+@@<.",
" [[[}|    .+@@+.",
" @@@<.    .+@@+.",
" 12/<344443</256",
"  ~+@@@@@@@@+~  ",
"  678888888876  "};
