/* XPM */
static char * digit_16_9_xpm[] = {
"16 15 39 1",
" 	c #000000",
".	c #363000",
"+	c #E9D400",
"@	c #EED800",
"#	c #443C00",
"$	c #554C00",
"%	c #EAD400",
"&	c #E7D100",
"*	c #0B0900",
"=	c #ECD600",
"-	c #3F3900",
";	c #1F1B00",
">	c #E8D200",
",	c #332E00",
"'	c #DEC900",
")	c #DFCA00",
"!	c #EDD700",
"~	c #EAD500",
"{	c #6F6400",
"]	c #645A00",
"^	c #312B00",
"/	c #D4C100",
"(	c #D8C400",
"_	c #D9C500",
":	c #2E2800",
"<	c #1A1600",
"[	c #7C7000",
"}	c #867900",
"|	c #EBD500",
"1	c #D3C000",
"2	c #CEBB00",
"3	c #887B00",
"4	c #8A7D00",
"5	c #918300",
"6	c #CDBA00",
"7	c #C7B500",
"8	c #2A2500",
"9	c #C0AE00",
"0	c #C4B200",
"                ",
"  .+@@@@@@@@+.  ",
" #$%@&&&&&&@%$#*",
" ==@%-;;;;-%@=>,",
" @@@+.    .+@@+.",
" @@@+.    .+@@+.",
" ')!~{]]]]{~@@+.",
"  ^+@@@@@@@@@@+.",
"  ^/((((((_!@@+.",
"          :+@@+.",
"        <[}|!12:",
"        .|@@+:  ",
"  <344445|!678  ",
"  .~@@@@@@+^    ",
"  8900000098    "};
