/* XPM */
static char * digit_16_6_xpm[] = {
"16 15 37 1",
" 	c #000000",
".	c #363000",
"+	c #E9D400",
"@	c #EED800",
"#	c #0B0900",
"$	c #443C00",
"%	c #554C00",
"&	c #EAD400",
"*	c #E7D100",
"=	c #E3CE00",
"-	c #332E00",
";	c #E8D200",
">	c #ECD600",
",	c #3F3900",
"'	c #1F1B00",
")	c #615800",
"!	c #DFCA00",
"~	c #EAD500",
"{	c #6F6400",
"]	c #645A00",
"^	c #131000",
"/	c #EDD700",
"(	c #D9C500",
"_	c #D8C400",
":	c #7A6E00",
"<	c #706500",
"[	c #2E2800",
"}	c #EBD500",
"|	c #CBB800",
"1	c #CDBA00",
"2	c #918300",
"3	c #8A7D00",
"4	c #C7B500",
"5	c #2A2500",
"6	c #312B00",
"7	c #C0AE00",
"8	c #C4B200",
"                ",
"    .+@@@@@@+.  ",
"  #$%&@*****=-  ",
"  -;>@&,'''''   ",
" %)&@=!-        ",
" @@@+.#         ",
" @@@~{]]]]]])^  ",
" @@@@@@@@@@@~.  ",
" @@@/(____(/~:<^",
" @@@+[    [+@@}.",
" @@@+.    .+@@+.",
" @@@+.    .+@@+.",
" |1/}233332}/145",
"  6+@@@@@@@@+6  ",
"  578888888875  "};
