/* XPM */
static char * exit_closed_32_xpm[] = {
"32 32 753 2",
"  	c #358A23",
". 	c #2C872B",
"+ 	c #238432",
"@ 	c #298A31",
"# 	c #328624",
"$ 	c #438723",
"% 	c #488823",
"& 	c #3C8021",
"* 	c #328522",
"= 	c #358723",
"- 	c #338724",
"; 	c #28862F",
"> 	c #238834",
", 	c #2C862B",
"' 	c #348723",
") 	c #488723",
"! 	c #488923",
"~ 	c #358021",
"{ 	c #338722",
"] 	c #368A24",
"^ 	c #308626",
"/ 	c #248531",
"( 	c #258933",
"_ 	c #2F8627",
": 	c #3A8623",
"< 	c #498A24",
"[ 	c #438422",
"} 	c #328121",
"| 	c #358923",
"1 	c #348622",
"2 	c #508A23",
"3 	c #358623",
"4 	c #2D862A",
"5 	c #2A882F",
"6 	c #29842D",
"7 	c #308224",
"8 	c #317E20",
"9 	c #448622",
"0 	c #4D8823",
"a 	c #508723",
"b 	c #468823",
"c 	c #328524",
"d 	c #2C882D",
"e 	c #2A872F",
"f 	c #2A812A",
"g 	c #318021",
"h 	c #338321",
"i 	c #358321",
"j 	c #4B8A24",
"k 	c #4B8522",
"l 	c #528B24",
"m 	c #3C8422",
"n 	c #308727",
"o 	c #2A872E",
"p 	c #2A862E",
"q 	c #2D8127",
"r 	c #317F21",
"s 	c #348422",
"t 	c #3C8522",
"u 	c #4D8A24",
"v 	c #4C8422",
"w 	c #568923",
"x 	c #508823",
"y 	c #448723",
"z 	c #468924",
"A 	c #498824",
"B 	c #448522",
"C 	c #498322",
"D 	c #4D8422",
"E 	c #548722",
"F 	c #548522",
"G 	c #568B24",
"H 	c #4A8622",
"I 	c #448A24",
"J 	c #498823",
"K 	c #448523",
"L 	c #458422",
"M 	c #4D8622",
"N 	c #508522",
"O 	c #548622",
"P 	c #558723",
"Q 	c #568A23",
"R 	c #528723",
"S 	c #458B24",
"T 	c #498723",
"U 	c #468623",
"V 	c #448221",
"W 	c #4E8522",
"X 	c #528522",
"Y 	c #578A23",
"Z 	c #398121",
"` 	c #397E20",
" .	c #428723",
"..	c #4B8923",
"+.	c #4D8322",
"@.	c #518321",
"#.	c #518522",
"$.	c #4B8422",
"%.	c #478322",
"&.	c #3A8121",
"*.	c #397F22",
"=.	c #3E7E34",
"-.	c #44763F",
";.	c #406543",
">.	c #415F46",
",.	c #476A4A",
"'.	c #557B54",
").	c #52843A",
"!.	c #4A8524",
"~.	c #418121",
"{.	c #398021",
"].	c #3A8021",
"^.	c #3C8321",
"/.	c #498A23",
"(.	c #528622",
"_.	c #4C8522",
":.	c #4A8322",
"<.	c #338723",
"[.	c #348923",
"}.	c #338622",
"|.	c #358422",
"1.	c #398723",
"2.	c #378823",
"3.	c #35852B",
"4.	c #3F7349",
"5.	c #33443F",
"6.	c #747576",
"7.	c #A7A6A7",
"8.	c #ADADAE",
"9.	c #929395",
"0.	c #464A4E",
"a.	c #435A58",
"b.	c #4E825E",
"c.	c #358629",
"d.	c #348823",
"e.	c #388823",
"f.	c #2D8328",
"g.	c #308122",
"h.	c #328422",
"i.	c #338623",
"j.	c #358A24",
"k.	c #328926",
"l.	c #328A27",
"m.	c #328825",
"n.	c #338823",
"o.	c #2E862C",
"p.	c #3D6D4C",
"q.	c #585B60",
"r.	c #CED0D1",
"s.	c #EEEFF0",
"t.	c #CBCFD2",
"u.	c #B9BEC3",
"v.	c #C2C7CA",
"w.	c #D8D9DA",
"x.	c #8E8F90",
"y.	c #3A4A4E",
"z.	c #508464",
"A.	c #328327",
"B.	c #318222",
"C.	c #318321",
"D.	c #338A25",
"E.	c #328927",
"F.	c #318926",
"G.	c #328723",
"H.	c #318928",
"I.	c #248934",
"J.	c #29862E",
"K.	c #318625",
"L.	c #308021",
"M.	c #328523",
"N.	c #29882F",
"O.	c #258934",
"P.	c #248733",
"Q.	c #26842F",
"R.	c #328145",
"S.	c #414C4D",
"T.	c #DCDFE0",
"U.	c #DBDFE1",
"V.	c #6B7B8C",
"W.	c #334F68",
"X.	c #26435C",
"Y.	c #2B465E",
"Z.	c #5A6B7C",
"`.	c #A5ABB1",
" +	c #293444",
".+	c #4C6265",
"++	c #4B8661",
"@+	c #2F852B",
"#+	c #318322",
"$+	c #2E892B",
"%+	c #258B35",
"&+	c #25822F",
"*+	c #258B34",
"=+	c #238935",
"-+	c #228633",
";+	c #248431",
">+	c #27832E",
",+	c #2B842B",
"'+	c #308928",
")+	c #338924",
"!+	c #28842D",
"~+	c #278638",
"{+	c #326047",
"]+	c #A3A8AA",
"^+	c #EAECED",
"/+	c #617284",
"(+	c #223E58",
"_+	c #192C43",
":+	c #2C394A",
"<+	c #71767D",
"[+	c #505965",
"}+	c #253D55",
"|+	c #1C324A",
"1+	c #242E38",
"2+	c #647F82",
"3+	c #46865D",
"4+	c #268130",
"5+	c #29842C",
"6+	c #2D872A",
"7+	c #338824",
"8+	c #2C852A",
"9+	c #248632",
"0+	c #238934",
"a+	c #238633",
"b+	c #238532",
"c+	c #288830",
"d+	c #2E8628",
"e+	c #338925",
"f+	c #338522",
"g+	c #338725",
"h+	c #296D32",
"i+	c #33483C",
"j+	c #3C3E44",
"k+	c #A3A6AB",
"l+	c #969EA8",
"m+	c #29455E",
"n+	c #182C43",
"o+	c #1D2E44",
"p+	c #979DA3",
"q+	c #ACB6C1",
"r+	c #B8C0C7",
"s+	c #3C4857",
"t+	c #182C44",
"u+	c #060D24",
"v+	c #171F2B",
"w+	c #3B5152",
"x+	c #3D7F52",
"y+	c #30892E",
"z+	c #2E882B",
"A+	c #298D33",
"B+	c #2E882A",
"C+	c #318826",
"D+	c #308525",
"E+	c #388C24",
"F+	c #4A8928",
"G+	c #2F5E32",
"H+	c #8A8D8F",
"I+	c #BEC1C5",
"J+	c #B5B7BA",
"K+	c #959AA0",
"L+	c #364B61",
"M+	c #172A41",
"N+	c #182B40",
"O+	c #2E4053",
"P+	c #1E3349",
"Q+	c #304357",
"R+	c #313D4F",
"S+	c #3B4454",
"T+	c #28374C",
"U+	c #2B445B",
"V+	c #18293E",
"W+	c #2C3C3F",
"X+	c #368A27",
"Y+	c #458823",
"Z+	c #418723",
"`+	c #348A23",
" @	c #2F8B2B",
".@	c #29862D",
"+@	c #248330",
"@@	c #2D882B",
"#@	c #468622",
"$@	c #4C733F",
"%@	c #696E71",
"&@	c #A8ADB4",
"*@	c #404B5C",
"=@	c #7C8188",
"-@	c #737980",
";@	c #233247",
">@	c #162A40",
",@	c #162940",
"'@	c #172A40",
")@	c #162A3F",
"!@	c #545C67",
"~@	c #B8BFC4",
"{@	c #C0C8CF",
"]@	c #B1B6BB",
"^@	c #354456",
"/@	c #35516A",
"(@	c #0F1A2F",
"_@	c #4D6566",
":@	c #4A884B",
"<@	c #538723",
"[@	c #4D8723",
"}@	c #358D24",
"|@	c #328623",
"1@	c #3F8E24",
"2@	c #308828",
"3@	c #258732",
"4@	c #268832",
"5@	c #2E8527",
"6@	c #3C8624",
"7@	c #336135",
"8@	c #7F8489",
"9@	c #3B4558",
"0@	c #878D95",
"a@	c #A7B2BC",
"b@	c #AFB9C2",
"c@	c #6F757D",
"d@	c #162941",
"e@	c #788088",
"f@	c #586C7E",
"g@	c #30465A",
"h@	c #768694",
"i@	c #59616C",
"j@	c #192E48",
"k@	c #0C1A33",
"l@	c #3A4A52",
"m@	c #538466",
"n@	c #3F8923",
"o@	c #3A8422",
"p@	c #328321",
"q@	c #368322",
"r@	c #538823",
"s@	c #338825",
"t@	c #30872A",
"u@	c #30862B",
"v@	c #338624",
"w@	c #2E5D33",
"x@	c #233245",
"y@	c #13233C",
"z@	c #2A3A4E",
"A@	c #21354B",
"B@	c #283C51",
"C@	c #263549",
"D@	c #14263E",
"E@	c #172940",
"F@	c #162A41",
"G@	c #14273E",
"H@	c #1C2D43",
"I@	c #182B43",
"J@	c #1A2D43",
"K@	c #1A2C43",
"L@	c #11223B",
"M@	c #071029",
"N@	c #38484F",
"O@	c #518565",
"P@	c #327F20",
"Q@	c #3A8322",
"R@	c #458622",
"S@	c #548A24",
"T@	c #4F8823",
"U@	c #478121",
"V@	c #4D8923",
"W@	c #4B8021",
"X@	c #456D36",
"Y@	c #172635",
"Z@	c #0D1D37",
"`@	c #12233C",
" #	c #13243D",
".#	c #12233B",
"+#	c #0A1630",
"@#	c #0A1831",
"##	c #0D1C36",
"$#	c #07132C",
"%#	c #0E1D36",
"&#	c #13243C",
"*#	c #12243C",
"=#	c #0E1D37",
"-#	c #08132E",
";#	c #030720",
">#	c #495E61",
",#	c #55834D",
"'#	c #4C8221",
")#	c #538622",
"!#	c #528422",
"~#	c #528321",
"{#	c #378723",
"]#	c #348522",
"^#	c #398923",
"/#	c #408823",
"(#	c #488722",
"_#	c #4A862C",
":#	c #2C4B2A",
"<#	c #1A2C3E",
"[#	c #182A41",
"}#	c #0A152E",
"|#	c #040B25",
"1#	c #030721",
"2#	c #040923",
"3#	c #03041D",
"4#	c #13071D",
"5#	c #10081E",
"6#	c #240C1B",
"7#	c #08061E",
"8#	c #060D27",
"9#	c #040A24",
"0#	c #02051F",
"a#	c #222D37",
"b#	c #567E68",
"c#	c #468728",
"d#	c #488622",
"e#	c #4C8622",
"f#	c #4A8422",
"g#	c #428522",
"h#	c #438623",
"i#	c #318121",
"j#	c #328322",
"k#	c #358628",
"l#	c #265F27",
"m#	c #101F26",
"n#	c #0D1424",
"o#	c #242C36",
"p#	c #334149",
"q#	c #0E1524",
"r#	c #230D1A",
"s#	c #9A470F",
"t#	c #A04B0F",
"u#	c #B45108",
"v#	c #572418",
"w#	c #1E2732",
"x#	c #2F3B43",
"y#	c #303C45",
"z#	c #5A7675",
"A#	c #3E863F",
"B#	c #2A872D",
"C#	c #318524",
"D#	c #2F8B2C",
"E#	c #2F862E",
"F#	c #5E8274",
"G#	c #798A8F",
"H#	c #A4B0B2",
"I#	c #91A2A5",
"J#	c #4D6268",
"K#	c #7D5F52",
"L#	c #E39E34",
"M#	c #EEAE39",
"N#	c #C77414",
"O#	c #3A292E",
"P#	c #678086",
"Q#	c #B8C1C2",
"R#	c #6D8287",
"S#	c #7B8C91",
"T#	c #698388",
"U#	c #508560",
"V#	c #318A28",
"W#	c #2D892C",
"X#	c #2D8A2C",
"Y#	c #2E8225",
"Z#	c #248C35",
"`#	c #258632",
" $	c #318624",
".$	c #318422",
"+$	c #278A37",
"@$	c #B4C5B8",
"#$	c #C4CBCC",
"$$	c #A0AFB1",
"%$	c #8FA0A3",
"&$	c #3E4950",
"*$	c #D5C6B0",
"=$	c #FDD892",
"-$	c #F3DBC4",
";$	c #8D5126",
">$	c #46585F",
",$	c #6D888E",
"'$	c #B3BEBF",
")$	c #99A8AC",
"!$	c #DEE2E2",
"~$	c #5A896E",
"{$	c #32842A",
"]$	c #318523",
"^$	c #308A29",
"/$	c #258430",
"($	c #238A35",
"_$	c #238733",
":$	c #258E36",
"<$	c #228533",
"[$	c #248833",
"}$	c #2E8528",
"|$	c #749F7C",
"1$	c #8FA1A2",
"2$	c #6C878D",
"3$	c #5D757B",
"4$	c #706F72",
"5$	c #F8D69F",
"6$	c #FBE0B6",
"7$	c #D29768",
"8$	c #3F2E30",
"9$	c #374046",
"0$	c #37464D",
"a$	c #5A7177",
"b$	c #6E8F88",
"c$	c #73A17A",
"d$	c #278737",
"e$	c #278730",
"f$	c #2A822A",
"g$	c #268530",
"h$	c #238734",
"i$	c #258833",
"j$	c #27852F",
"k$	c #2B852B",
"l$	c #328724",
"m$	c #358C24",
"n$	c #368622",
"o$	c #2F8A2A",
"p$	c #2B8830",
"q$	c #408955",
"r$	c #658683",
"s$	c #44545B",
"t$	c #B9ADA8",
"u$	c #F6BC50",
"v$	c #F6B941",
"w$	c #E6BE91",
"x$	c #D9C3A4",
"y$	c #C5A288",
"z$	c #412522",
"A$	c #305F43",
"B$	c #2E893E",
"C$	c #348B24",
"D$	c #368823",
"E$	c #2C892D",
"F$	c #278A32",
"G$	c #318A27",
"H$	c #2C8429",
"I$	c #3C8A23",
"J$	c #3E8723",
"K$	c #348C24",
"L$	c #418649",
"M$	c #1E302D",
"N$	c #796B68",
"O$	c #884922",
"P$	c #B88973",
"Q$	c #F8BF50",
"R$	c #F2B235",
"S$	c #9C5922",
"T$	c #2A472B",
"U$	c #34872D",
"V$	c #328725",
"W$	c #328A26",
"X$	c #2D8529",
"Y$	c #2F8528",
"Z$	c #4C8723",
"`$	c #228332",
" %	c #2B882D",
".%	c #508622",
"+%	c #418322",
"@%	c #318827",
"#%	c #257633",
"$%	c #2B5E3F",
"%%	c #2A2E36",
"&%	c #D8C2A6",
"*%	c #F3B538",
"=%	c #A55F17",
"-%	c #313933",
";%	c #378134",
">%	c #2E8629",
",%	c #278731",
"'%	c #518723",
")%	c #498222",
"!%	c #358B24",
"~%	c #468A23",
"{%	c #2A892F",
"]%	c #2A852C",
"^%	c #348725",
"/%	c #368722",
"(%	c #328021",
"_%	c #3B8522",
":%	c #448A23",
"<%	c #478823",
"[%	c #3E8623",
"}%	c #2F8728",
"|%	c #307B40",
"1%	c #6A6B6A",
"2%	c #EEC182",
"3%	c #AF6718",
"4%	c #333134",
"5%	c #42734E",
"6%	c #428925",
"7%	c #408522",
"8%	c #498D24",
"9%	c #378422",
"0%	c #268A33",
"a%	c #29862F",
"b%	c #2F8327",
"c%	c #358221",
"d%	c #438A23",
"e%	c #438722",
"f%	c #558924",
"g%	c #478723",
"h%	c #378322",
"i%	c #3A8925",
"j%	c #3B8525",
"k%	c #368021",
"l%	c #3E7F20",
"m%	c #538522",
"n%	c #538A23",
"o%	c #418227",
"p%	c #345940",
"q%	c #A99A8A",
"r%	c #B36F31",
"s%	c #372F33",
"t%	c #507561",
"u%	c #4A872A",
"v%	c #558823",
"w%	c #578B24",
"x%	c #4D8522",
"y%	c #378725",
"z%	c #3F8826",
"A%	c #388223",
"B%	c #387C20",
"C%	c #4E8723",
"D%	c #498522",
"E%	c #468723",
"F%	c #4C8A23",
"G%	c #528823",
"H%	c #518121",
"I%	c #538422",
"J%	c #4E8221",
"K%	c #4A7E42",
"L%	c #343637",
"M%	c #9C7462",
"N%	c #392C2D",
"O%	c #547364",
"P%	c #558636",
"Q%	c #518221",
"R%	c #4A8221",
"S%	c #468522",
"T%	c #478622",
"U%	c #498923",
"V%	c #528623",
"W%	c #338322",
"X%	c #318221",
"Y%	c #338422",
"Z%	c #388B24",
"`%	c #3A8522",
" &	c #3E8522",
".&	c #438522",
"+&	c #408622",
"@&	c #368522",
"#&	c #34812A",
"$&	c #406352",
"%&	c #312427",
"&&	c #342B2B",
"*&	c #477356",
"=&	c #418432",
"-&	c #3D8622",
";&	c #388723",
">&	c #378A23",
",&	c #3D8522",
"'&	c #418522",
")&	c #378622",
"!&	c #318424",
"~&	c #478451",
"{&	c #2B3B40",
"]&	c #101B25",
"^&	c #3A7142",
"/&	c #338227",
"(&	c #338923",
"_&	c #348A24",
":&	c #358C25",
"<&	c #268932",
"[&	c #2D8429",
"}&	c #2A882E",
"|&	c #2C892C",
"1&	c #268A35",
"2&	c #54856D",
"3&	c #51676D",
"4&	c #536A6F",
"5&	c #537F6C",
"6&	c #4D8064",
"7&	c #4B8063",
"8&	c #498265",
"9&	c #4A8166",
"0&	c #4E8367",
"a&	c #4C8763",
"b&	c #388B4B",
"c&	c #2A832C",
"d&	c #308425",
"e&	c #2F892A",
"f&	c #288730",
"g&	c #298C32",
"h&	c #228734",
"i&	c #29852D",
"j&	c #2D872B",
"k&	c #2E8025",
"l&	c #318725",
"m&	c #258531",
"n&	c #228433",
"o&	c #268B38",
"p&	c #4F7C71",
"q&	c #4E6C79",
"r&	c #4C6977",
"s&	c #4B6878",
"t&	c #4C6879",
"u&	c #4B6778",
"v&	c #4C6777",
"w&	c #4E6978",
"x&	c #55727C",
"y&	c #568474",
"z&	c #268937",
"A&	c #2E8427",
"B&	c #2F8425",
"C&	c #29872E",
"D&	c #308827",
"E&	c #318927",
"F&	c #258631",
"G&	c #248B35",
"H&	c #29873C",
"I&	c #3D8653",
"J&	c #44835C",
"K&	c #48845F",
"L&	c #4A8360",
"M&	c #4F8365",
"N&	c #508365",
"O&	c #518568",
"P&	c #508669",
"Q&	c #44875C",
"R&	c #2A873B",
"S&	c #228131",
"T&	c #2D8629",
"U&	c #248B34",
"V&	c #29872F",
"W&	c #2F8829",
"X&	c #368C24",
"Y&	c #3E8622",
"Z&	c #338C27",
"`&	c #2A8B30",
" *	c #28852E",
".*	c #2D8428",
"+*	c #2C872C",
"@*	c #368923",
"#*	c #418823",
"$*	c #2C882C",
"%*	c #298930",
"&*	c #2D8227",
"**	c #2D882C",
"=*	c #3B8622",
"-*	c #548923",
";*	c #408723",
">*	c #28842E",
",*	c #558B24",
"'*	c #3B8A24",
")*	c #528923",
"!*	c #4A8823",
"  . + @ # $ % & *   = - ; > , ' ) ! ~ ' { ] ^ / ( _ : < [ } | 1 ",
"2 3 4 5 6 7 8 = 9 0 a b c d e f g h i j k l m n o p q r s t u v ",
"w x y z A B C D E F w G H I J K L M N O P Q R b S T U V W X F Y ",
"& Z `  ...+.x @.#.$.%.&.*.=.-.;.>.,.'.).!.~.{.].^./.D a (.@._.:.",
"{ <.[.}.' = |.1.2.' <.3.4.5.6.7.8.9.0.a.b.c.<.[.* d.1 |.1.e.1 }.",
"f.g.h.h.i.j.k.l.m.n.o.p.q.r.s.t.u.v.w.x.y.z.A.B.C.i.d.D.E.F.G.H.",
"I.J.K.n.L.M.N.O.P.Q.R.S.T.U.V.W.X.Y.Z.`. +.+++@+i.h.#+$+P.%+&+*+",
"=+-+;+>+,+'+)+!+> ~+{+]+^+/+(+_+:+<+[+}+|+1+2+3+4+5+6+7+8+9+0+0+",
"a+b+9+c+d+e+f+g+h+i+j+k+l+m+n+o+p+q+r+s+t+u+v+w+x+y+K.<.<.z+A+a+",
"B+C+_ D+* E+F+G+H+I+J+K+L+|+M+N+O+P+Q+R+S+T+U+V+W+b.X+Y+Z+`+c  @",
"- .@+@@@d.#@$@%@&@*@=@-@;@>@,@'@)@'@!@~@{@]@^@/@(@_@:@<@[@' }@|@",
"1@2@3@4@5@6@7@8@9@0@a@b@c@,@,@>@,@d@e@f@g@h@i@j@k@l@m@n@o@p@e.q@",
"r@m s@t@u@v@w@x@y@z@A@B@C@d@D@E@F@G@H@I@F@J@K@L@M@N@O@P@Q@R@S@G ",
"#.T@U@V@a W@X@Y@J@Z@`@ #.#L@+#@###$#%#&#*#.#=#-#;#>#,#'#X )#!#~#",
"{#1 ]#^#/#(#_#:#<#[#}#|#1#2#3#4#5#6#7#2#;#8#9#0#a#b#c#d#e#f#g#h#",
"i#L.h.j#<.d.' k#l#m#n#o#p#q#r#s#t#u#v#w#x#q#q#y#z#A#<.}.| ' d.<.",
"B#C#<.* j#n.6+D#E#F#G#H#I#J#K#L#M#N#O#P#Q#R#S#T#U#i.* V#W#X#Y#@@",
"Z#`#f. $.$7+X#+ +$@$#$$$%$&$*$=$-$;$>$,$'$)$!$~${$]$G.^$/$($_$:$",
"<$<$_$[$>+}$<.@@b+|$1$2$3$4$5$6$7$8$9$0$a$b$c$d$a+e$f$|@n g$> h$",
"i$j$J.k$l$m$n$<.o$p$q$r$s$t$u$v$w$x$y$z$A$B$/$o >+C+C$D$' l.E$F$",
"m.G$H$D+* I$x J$[.K$l.L$M$N$O$P$Q$R$S$T$U$V$W$X$Y$<.| Z$! d.C$k.",
"C$.@`$ %d.T .%+%[.`+{ @%#%$%%%&%*%=%-%;%n.d.>%+ ,% $n@'%)%d.!%C.",
"~%c {%i$]%^%/%(%_%:%<%[%}%|%1%2%3%4%5%6%7%8%9%@@0%a%b%D$s c%d%e%",
"f%g%h%i%j%k%l%<%'%m%Y n%o%p%q%r%s%t%u%)#v%w%x%o@y%z%A%B%#@C%m%w ",
"D%E%L F%G%(.X H%I%(.J%(#K%L%M%N%O%P%Q%!#(.R%S%T%U%a )#X !#~#V%@.",
"W%i#X%Y%Z%`% &.&+&^#@&#&$&%&&&*&=&-&.&J$;&W%B.j#X%>&1.,&$ '&1.)&",
"!&* n.<.h.n.n.C$!%X%l$~&{&]&^&/&!%7+K$(&.$l$<.}.{ { * n._&:&* 7+",
"<&[&.$.$* _&}&c+>+|&1&2&3&4&5&6&7&8&9&0&a&b&c&d&X%f+n.e&f&,%]%g&",
"h&> i&j&k&l&'+m&($n&o&p&q&r&s&s&t&u&v&w&x&y&z&e$k$A&B&l.C&> <$Z#",
"> n&h$;+B#D&<.E&F&G&> H&I&J&K&L&M&N&O&P&Q&R&_$> S&C&T&n.# {%U&h$",
"V&4 [&W&* X&Y&@&Z&}%`& *.*+*K.[.@*#*h.Z&$*%*]%&***7+_&=*=*)+V#5 ",
"_&j& *5@<.:%-*;*[.m$)+k.k$>*l$}...,*= _&:&(&2@i&,+<.'*)*!*  !%7+"};
