/* XPM */
static char * exit_open_32_xpm[] = {
"32 32 877 2",
"  	c #358A23",
". 	c #2C872B",
"+ 	c #238432",
"@ 	c #298A31",
"# 	c #328624",
"$ 	c #438723",
"% 	c #488823",
"& 	c #3C8021",
"* 	c #328522",
"= 	c #358723",
"- 	c #338724",
"; 	c #28862F",
"> 	c #238834",
", 	c #2C862B",
"' 	c #348723",
") 	c #488723",
"! 	c #488923",
"~ 	c #358021",
"{ 	c #338722",
"] 	c #368A24",
"^ 	c #308626",
"/ 	c #248531",
"( 	c #258933",
"_ 	c #2F8627",
": 	c #3A8623",
"< 	c #498A24",
"[ 	c #438422",
"} 	c #328121",
"| 	c #358923",
"1 	c #348622",
"2 	c #508A23",
"3 	c #358623",
"4 	c #2D862A",
"5 	c #2A882F",
"6 	c #29842D",
"7 	c #308224",
"8 	c #317E20",
"9 	c #448622",
"0 	c #4D8823",
"a 	c #508723",
"b 	c #468823",
"c 	c #328524",
"d 	c #2C882D",
"e 	c #2A872F",
"f 	c #2A812A",
"g 	c #318021",
"h 	c #338321",
"i 	c #358321",
"j 	c #4B8A24",
"k 	c #4B8522",
"l 	c #528B24",
"m 	c #3C8422",
"n 	c #308727",
"o 	c #2A872E",
"p 	c #2A862E",
"q 	c #2D8127",
"r 	c #317F21",
"s 	c #348422",
"t 	c #3C8522",
"u 	c #4D8A24",
"v 	c #4C8422",
"w 	c #568923",
"x 	c #508823",
"y 	c #448723",
"z 	c #468924",
"A 	c #498824",
"B 	c #448522",
"C 	c #498322",
"D 	c #4D8422",
"E 	c #548722",
"F 	c #548522",
"G 	c #568B24",
"H 	c #4A8622",
"I 	c #448A24",
"J 	c #498823",
"K 	c #448523",
"L 	c #458422",
"M 	c #4D8622",
"N 	c #508522",
"O 	c #548622",
"P 	c #558723",
"Q 	c #568A23",
"R 	c #528723",
"S 	c #458B24",
"T 	c #498723",
"U 	c #468623",
"V 	c #448221",
"W 	c #4E8522",
"X 	c #528522",
"Y 	c #578A23",
"Z 	c #398121",
"` 	c #397E20",
" .	c #428723",
"..	c #4B8923",
"+.	c #4D8322",
"@.	c #518321",
"#.	c #518522",
"$.	c #4B8422",
"%.	c #478322",
"&.	c #3A8121",
"*.	c #397F20",
"=.	c #3A8021",
"-.	c #4D8A23",
";.	c #4F8321",
">.	c #518322",
",.	c #4F8422",
"'.	c #4A8522",
").	c #418121",
"!.	c #398021",
"~.	c #3C8321",
"{.	c #498A23",
"].	c #528622",
"^.	c #4C8522",
"/.	c #4A8322",
"(.	c #338723",
"_.	c #348923",
":.	c #338622",
"<.	c #358422",
"[.	c #398723",
"}.	c #378823",
"|.	c #348823",
"1.	c #338522",
"2.	c #368723",
"3.	c #358522",
"4.	c #3A8723",
"5.	c #368923",
"6.	c #388823",
"7.	c #2D8328",
"8.	c #308122",
"9.	c #328422",
"0.	c #338623",
"a.	c #358A24",
"b.	c #328926",
"c.	c #328A27",
"d.	c #328825",
"e.	c #338823",
"f.	c #2D8629",
"g.	c #308525",
"h.	c #368E5A",
"i.	c #6FAD9A",
"j.	c #A1B6A1",
"k.	c #B5B08E",
"l.	c #B9AC86",
"m.	c #ADA781",
"n.	c #83A37B",
"o.	c #3F945A",
"p.	c #318725",
"q.	c #2E882A",
"r.	c #308323",
"s.	c #318222",
"t.	c #318321",
"u.	c #338A25",
"v.	c #328927",
"w.	c #318926",
"x.	c #328723",
"y.	c #318928",
"z.	c #248934",
"A.	c #29862E",
"B.	c #318625",
"C.	c #308021",
"D.	c #328523",
"E.	c #29882F",
"F.	c #258934",
"G.	c #248733",
"H.	c #26842F",
"I.	c #51A283",
"J.	c #B5C8B9",
"K.	c #EBCBAE",
"L.	c #FEAD72",
"M.	c #FE9357",
"N.	c #FA804C",
"O.	c #F8744B",
"P.	c #FB6F47",
"Q.	c #FD724A",
"R.	c #FB8360",
"S.	c #D99A82",
"T.	c #909E7A",
"U.	c #278A3E",
"V.	c #2E8528",
"W.	c #318322",
"X.	c #2E892B",
"Y.	c #258B35",
"Z.	c #25822F",
"`.	c #258B34",
" +	c #238935",
".+	c #228633",
"++	c #248431",
"@+	c #27832E",
"#+	c #2B842B",
"$+	c #308928",
"%+	c #338924",
"&+	c #28842D",
"*+	c #298D4A",
"=+	c #9BBCAC",
"-+	c #F0C4A5",
";+	c #FD996A",
">+	c #FBA162",
",+	c #FAC269",
"'+	c #FBD671",
")+	c #FDE683",
"!+	c #FEE782",
"~+	c #FDE37E",
"{+	c #F9CF6A",
"]+	c #F8B460",
"^+	c #F78353",
"/+	c #FD644A",
"(+	c #DC8A6F",
"_+	c #63925F",
":+	c #25812E",
"<+	c #29842C",
"[+	c #2D872A",
"}+	c #338824",
"|+	c #2C852A",
"1+	c #248632",
"2+	c #238934",
"3+	c #238633",
"4+	c #238532",
"5+	c #288830",
"6+	c #2E8628",
"7+	c #338925",
"8+	c #3E8F4A",
"9+	c #B8BCA6",
"0+	c #FBA371",
"a+	c #FA955C",
"b+	c #FBCD6C",
"c+	c #FDE888",
"d+	c #FEF09E",
"e+	c #F9EF9D",
"f+	c #F1EB95",
"g+	c #EDE991",
"h+	c #F0EA92",
"i+	c #FBEE9B",
"j+	c #FEED94",
"k+	c #FEE078",
"l+	c #F9BB55",
"m+	c #F67045",
"n+	c #F56E5C",
"o+	c #919472",
"p+	c #2E8A32",
"q+	c #2E882B",
"r+	c #298D33",
"s+	c #318826",
"t+	c #388C24",
"u+	c #4E8E3B",
"v+	c #B9A694",
"w+	c #FC7A50",
"x+	c #F8A656",
"y+	c #FDE079",
"z+	c #FDEE9E",
"A+	c #F2EA95",
"B+	c #E2E78E",
"C+	c #CBE895",
"D+	c #B5E08F",
"E+	c #A9DC8B",
"F+	c #A2DF86",
"G+	c #B1E483",
"H+	c #CFE380",
"I+	c #EFE78A",
"J+	c #FEE98E",
"K+	c #FBD160",
"L+	c #F48747",
"M+	c #F66255",
"N+	c #8F9167",
"O+	c #458823",
"P+	c #418723",
"Q+	c #348A23",
"R+	c #2F8B2B",
"S+	c #29862D",
"T+	c #248330",
"U+	c #2D882B",
"V+	c #46882D",
"W+	c #A7A08D",
"X+	c #FA654E",
"Y+	c #F59D4E",
"Z+	c #FDDE7D",
"`+	c #F7EC98",
" @	c #DAE68A",
".@	c #A7DB8D",
"+@	c #7CD0BA",
"@@	c #78DCE2",
"#@	c #7BE6F4",
"$@	c #75E7F6",
"%@	c #6CE0F1",
"&@	c #62D5DB",
"*@	c #73CCAC",
"=@	c #9ADD88",
"-@	c #CCDE82",
";@	c #F9E88F",
">@	c #FDCD64",
",@	c #F17D43",
"'@	c #E9655B",
")@	c #668F55",
"!@	c #538723",
"~@	c #4D8723",
"{@	c #358D24",
"]@	c #328623",
"^@	c #3F8E24",
"/@	c #308828",
"(@	c #258732",
"_@	c #268832",
":@	c #2E8527",
"<@	c #63915E",
"[@	c #E96C68",
"}@	c #F27D45",
"|@	c #FCCE66",
"1@	c #F2E58A",
"2@	c #C0E486",
"3@	c #7ACDA9",
"4@	c #6CDFED",
"5@	c #64D6F5",
"6@	c #94C2ED",
"7@	c #A4B6ED",
"8@	c #A5B1EB",
"9@	c #9DB1ED",
"0@	c #83B7EA",
"a@	c #4CCDF1",
"b@	c #46CADB",
"c@	c #6ECC98",
"d@	c #A8D983",
"e@	c #F5DE7C",
"f@	c #F9B651",
"g@	c #EB5C3F",
"h@	c #BD7459",
"i@	c #438A2C",
"j@	c #3A8422",
"k@	c #328321",
"l@	c #368322",
"m@	c #538823",
"n@	c #338825",
"o@	c #30872A",
"p@	c #35893B",
"q@	c #B29086",
"r@	c #E54A3B",
"s@	c #F5A548",
"t@	c #F4D56E",
"u@	c #A3D687",
"v@	c #59BEAB",
"w@	c #5BD6EE",
"x@	c #81B0E3",
"y@	c #9EA2E2",
"z@	c #82A6D7",
"A@	c #7CB6D5",
"B@	c #7DBCD7",
"C@	c #7BB5D5",
"D@	c #80A2D6",
"E@	c #9096DC",
"F@	c #68A7DE",
"G@	c #2BBDDE",
"H@	c #4DBC9A",
"I@	c #A5CC80",
"J@	c #F8C661",
"K@	c #EA8841",
"L@	c #DA443F",
"M@	c #5C803F",
"N@	c #3A8322",
"O@	c #458622",
"P@	c #548A24",
"Q@	c #4F8823",
"R@	c #478121",
"S@	c #4D8923",
"T@	c #6D9D78",
"U@	c #C9717A",
"V@	c #DE673A",
"W@	c #F3AB4D",
"X@	c #B1C077",
"Y@	c #41B295",
"Z@	c #28AFD4",
"`@	c #7296D3",
" #	c #7E93D1",
".#	c #86CADF",
"+#	c #91DCEB",
"@#	c #92DBEB",
"##	c #94DCEB",
"$#	c #95DDEC",
"%#	c #87C6DD",
"&#	c #798ACE",
"*#	c #5791D2",
"=#	c #1FA1C7",
"-#	c #3DB28F",
";#	c #CCB76B",
">#	c #EC9443",
",#	c #D24739",
"'#	c #A06F50",
")#	c #528526",
"!#	c #538622",
"~#	c #528422",
"{#	c #528321",
"]#	c #378723",
"^#	c #348522",
"/#	c #398923",
"(#	c #82A693",
"_#	c #C83942",
":#	c #E0743C",
"<#	c #E0A355",
"[#	c #4DA18A",
"}#	c #1E8DAF",
"|#	c #3885C6",
"1#	c #687EC1",
"2#	c #8DD2E3",
"3#	c #96DEEC",
"4#	c #9CDFEC",
"5#	c #C2E9F0",
"6#	c #D2EFF3",
"7#	c #C8ECF1",
"8#	c #A6E2ED",
"9#	c #9ADEEA",
"0#	c #8BCADE",
"a#	c #5D75BD",
"b#	c #2A85C5",
"c#	c #1F8A9F",
"d#	c #799C81",
"e#	c #E3954C",
"f#	c #D45A39",
"g#	c #B8656A",
"h#	c #5A8A44",
"i#	c #4A8422",
"j#	c #428522",
"k#	c #438623",
"l#	c #318121",
"m#	c #378530",
"n#	c #A5A298",
"o#	c #C2444F",
"p#	c #E1743C",
"q#	c #BC9A68",
"r#	c #0F8C94",
"s#	c #1579B6",
"t#	c #3E68B1",
"u#	c #A0BFD7",
"v#	c #B1E5EE",
"w#	c #B1E4ED",
"x#	c #F3F8F2",
"y#	c #FFFFFB",
"z#	c #FFFEF7",
"A#	c #F7F9EF",
"B#	c #C4E8EB",
"C#	c #E8F5EF",
"D#	c #ACB5CC",
"E#	c #3367AE",
"F#	c #1579AD",
"G#	c #1E888D",
"H#	c #D49154",
"I#	c #D5603B",
"J#	c #BA4357",
"K#	c #81AD9E",
"L#	c #358827",
"M#	c #2A872D",
"N#	c #318524",
"O#	c #67995D",
"P#	c #E3EBDD",
"Q#	c #D1B7B8",
"R#	c #DBABAB",
"S#	c #FBEDE6",
"T#	c #F7F7EE",
"U#	c #D6E2DF",
"V#	c #759CC5",
"W#	c #3D60A2",
"X#	c #BBD3DC",
"Y#	c #E4F0EA",
"Z#	c #DFEEE9",
"`#	c #F2F8EF",
" $	c #E0FAF5",
".$	c #DEFCF7",
"+$	c #D8FAF6",
"@$	c #E4F5EE",
"#$	c #D8EAE7",
"$$	c #A0CBDB",
"%$	c #86B4CE",
"&$	c #2E5AA1",
"*$	c #87A6C6",
"=$	c #D7E3DE",
"-$	c #F6F0E6",
";$	c #F3DACF",
">$	c #C98690",
",$	c #D8D3D4",
"'$	c #A0BE9F",
")$	c #318329",
"!$	c #248C35",
"~$	c #2F883C",
"{$	c #BBD3C8",
"]$	c #98D8E5",
"^$	c #B4D0D9",
"/$	c #FAFBEF",
"($	c #EDFBF4",
"_$	c #CDF9F6",
":$	c #BAF2F2",
"<$	c #B2E2E7",
"[$	c #668EB9",
"}$	c #94BFD7",
"|$	c #D7E7EB",
"1$	c #E9F5F2",
"2$	c #A2EBF1",
"3$	c #91EEF4",
"4$	c #9EF2F6",
"5$	c #92EEF3",
"6$	c #76E1EB",
"7$	c #9BDAE6",
"8$	c #9FC8DC",
"9$	c #4792C1",
"0$	c #86A7C2",
"a$	c #D5EFEC",
"b$	c #D9F7F4",
"c$	c #EAFCF8",
"d$	c #FCFDF3",
"e$	c #F1F2E9",
"f$	c #AAD2DB",
"g$	c #D7EEE9",
"h$	c #72A377",
"i$	c #258E36",
"j$	c #228533",
"k$	c #60A185",
"l$	c #8FC6D9",
"m$	c #63A9CD",
"n$	c #CAE1E5",
"o$	c #C0E9EB",
"p$	c #95E9F1",
"q$	c #E8FBF8",
"r$	c #EBFAF6",
"s$	c #B6E6EC",
"t$	c #A3D4E2",
"u$	c #D3F2EE",
"v$	c #CAF8F7",
"w$	c #C8F6F6",
"x$	c #D9F3EF",
"y$	c #8BDCE9",
"z$	c #64D5E8",
"A$	c #62D1E6",
"B$	c #83D1E6",
"C$	c #D8F0F0",
"D$	c #D8F7F4",
"E$	c #CDE6E7",
"F$	c #ECF4F2",
"G$	c #F9FDF8",
"H$	c #E2F9F5",
"I$	c #A1F3F7",
"J$	c #A6EFF2",
"K$	c #D1ECE9",
"L$	c #9BCFDE",
"M$	c #5CB8D6",
"N$	c #79B0A5",
"O$	c #238734",
"P$	c #258833",
"Q$	c #94C5BC",
"R$	c #C8E3E8",
"S$	c #FBFCF5",
"T$	c #FFFFF7",
"U$	c #F6F8EF",
"V$	c #C8EAED",
"W$	c #9FF5F8",
"X$	c #B2F5F8",
"Y$	c #91E8F1",
"Z$	c #AFE6ED",
"`$	c #76E1EE",
" %	c #7EE6F1",
".%	c #78E4EF",
"+%	c #6BD9EA",
"@%	c #94D8E6",
"#%	c #7ACFE5",
"$%	c #A8D8E8",
"%%	c #B4E1EC",
"&%	c #AAE5F0",
"*%	c #7FD9EA",
"=%	c #CBEDEE",
"-%	c #BCF4F4",
";%	c #B6F6F6",
">%	c #C0EFEF",
",%	c #D3ECEE",
"'%	c #7CD3E8",
")%	c #9AD6E6",
"!%	c #D9E9EA",
"~%	c #BCD3DF",
"{%	c #85BAB8",
"]%	c #278A32",
"^%	c #ACD3CE",
"/%	c #E8F1E9",
"(%	c #E7F9F3",
"_%	c #CEF9F9",
":%	c #ABF1F6",
"<%	c #99E1EC",
"[%	c #6BDAEC",
"}%	c #D7F1F2",
"|%	c #FCFEF7",
"1%	c #FEFFF6",
"2%	c #EEF6F0",
"3%	c #85D8EA",
"4%	c #6CD3EA",
"5%	c #A2EDF6",
"6%	c #84DFEE",
"7%	c #C7E5EF",
"8%	c #C7E7ED",
"9%	c #8BE1ED",
"0%	c #7DE5F1",
"a%	c #81DDED",
"b%	c #A6ECF4",
"c%	c #7AE1EF",
"d%	c #7EE1EF",
"e%	c #AFE8EE",
"f%	c #C0EAEE",
"g%	c #B5DEE7",
"h%	c #BAE9EC",
"i%	c #C0F8F6",
"j%	c #D0F6F2",
"k%	c #B3D1C8",
"l%	c #348B24",
"m%	c #94C3BF",
"n%	c #A5D5DF",
"o%	c #6EDFED",
"p%	c #75E5F0",
"q%	c #73DEEE",
"r%	c #B7E5F1",
"s%	c #D2ECF1",
"t%	c #C0F1F3",
"u%	c #90F1F8",
"v%	c #93F0F6",
"w%	c #B6ECEE",
"x%	c #BBDCE5",
"y%	c #41B7DC",
"z%	c #4FC5E4",
"A%	c #C0E5EA",
"B%	c #C5F9F7",
"C%	c #B1F0F1",
"D%	c #C0E5ED",
"E%	c #C5E7F1",
"F%	c #C6EBEF",
"G%	c #82DAE9",
"H%	c #8AD5E9",
"I%	c #F5F8F4",
"J%	c #FFFFF8",
"K%	c #FEFCF3",
"L%	c #CFEDED",
"M%	c #90DFEE",
"N%	c #62D6E9",
"O%	c #58CFE7",
"P%	c #70B6C3",
"Q%	c #468A23",
"R%	c #90BDBA",
"S%	c #73B4D4",
"T%	c #7BC7E0",
"U%	c #52BCDB",
"V%	c #D4EAEB",
"W%	c #F3FCF5",
"X%	c #E6FBF6",
"Y%	c #E8F8F1",
"Z%	c #98DFEC",
"`%	c #A2E6F0",
" &	c #B1E2EE",
".&	c #97CDDE",
"+&	c #A3D5E6",
"@&	c #BAEBF0",
"#&	c #7AD0E4",
"$&	c #5AD1E6",
"%&	c #6CCEE3",
"&&	c #E1F1EE",
"*&	c #D8F9F7",
"=&	c #C0F5F5",
"-&	c #B9E6EB",
";&	c #C2E5EC",
">&	c #ADEFF4",
",&	c #A5F8FA",
"'&	c #A8F5F8",
")&	c #BCE8EC",
"!&	c #75B7D6",
"~&	c #3DABD3",
"{&	c #65B8D8",
"]&	c #5C9FB9",
"^&	c #438722",
"/&	c #558924",
"(&	c #A3C3BC",
"_&	c #6ACCE4",
":&	c #A6EEF6",
"<&	c #72C9E3",
"[&	c #A8E2EA",
"}&	c #91EDF6",
"|&	c #92EEF5",
"1&	c #79E3EE",
"2&	c #88DBEA",
"3&	c #ADEAF1",
"4&	c #92E2EE",
"5&	c #69CCE2",
"6&	c #8DCDE3",
"7&	c #8AC7DE",
"8&	c #7AC2DE",
"9&	c #72C0DD",
"0&	c #B7E2EA",
"a&	c #9EE6EE",
"b&	c #7EE6F0",
"c&	c #A6E9F0",
"d&	c #91DFEC",
"e&	c #A3F1F6",
"f&	c #86E4F0",
"g&	c #6FD9EB",
"h&	c #65DDEE",
"i&	c #56CBE4",
"j&	c #68B3D3",
"k&	c #97E5F0",
"l&	c #76DBED",
"m&	c #66AFC9",
"n&	c #498522",
"o&	c #7FA7AC",
"p&	c #38A0CC",
"q&	c #4DC0E0",
"r&	c #43AAD4",
"s&	c #54C0DF",
"t&	c #55D0E9",
"u&	c #8EE1EF",
"v&	c #8DDFEE",
"w&	c #AFE0EA",
"x&	c #D6FAF7",
"y&	c #D6F3F1",
"z&	c #97C3DB",
"A&	c #89B9D4",
"B&	c #DBF2F1",
"C&	c #D9F0EF",
"D&	c #8BCFE4",
"E&	c #4ECBE5",
"F&	c #70CBE4",
"G&	c #C3E6ED",
"H&	c #D7FAF9",
"I&	c #A5EAF0",
"J&	c #54C7E3",
"K&	c #45BBDD",
"L&	c #3AADD4",
"M&	c #3AB1D9",
"N&	c #33A6D2",
"O&	c #3292C4",
"P&	c #3AA9D2",
"Q&	c #31A1CF",
"R&	c #2E8AB5",
"S&	c #338322",
"T&	c #7BA498",
"U&	c #2783BE",
"V&	c #1C82BE",
"W&	c #1A7CBA",
"X&	c #2A99CB",
"Y&	c #33A3D1",
"Z&	c #43B4DA",
"`&	c #3FB1D6",
" *	c #50C1DD",
".*	c #6EDCEC",
"+*	c #6AD8E9",
"@*	c #92E6F1",
"#*	c #8AD4E8",
"$*	c #74CBE6",
"%*	c #4ABBDE",
"&*	c #36A0CF",
"**	c #5DB3D6",
"=*	c #A0EAF2",
"-*	c #86DFEB",
";*	c #6ADBEA",
">*	c #3099C7",
",*	c #2995C5",
"'*	c #2792C6",
")*	c #2690C7",
"!*	c #248CC4",
"~*	c #1D79B5",
"{*	c #1F82BE",
"]*	c #1D7FBD",
"^*	c #3080A6",
"/*	c #378622",
"(*	c #318424",
"_*	c #428A3D",
":*	c #6D9DA2",
"<*	c #2F82B9",
"[*	c #2F76AF",
"}*	c #2D86B5",
"|*	c #2494C7",
"1*	c #1F82C0",
"2*	c #2082C0",
"3*	c #2892C5",
"4*	c #33A4D1",
"5*	c #34A4D1",
"6*	c #3BB3D8",
"7*	c #2F9BC7",
"8*	c #2C8FC2",
"9*	c #238CBF",
"0*	c #1D78B0",
"a*	c #2C8DBD",
"b*	c #3FB2D7",
"c*	c #3AB2D7",
"d*	c #36A6CF",
"e*	c #2E9DCA",
"f*	c #237DB6",
"g*	c #1E7CBB",
"h*	c #1C78BA",
"i*	c #1F85C0",
"j*	c #2487BA",
"k*	c #1E69A7",
"l*	c #1D7CB9",
"m*	c #2480AC",
"n*	c #398667",
"o*	c #268932",
"p*	c #2D8429",
"q*	c #318422",
"r*	c #498C42",
"s*	c #6FA175",
"t*	c #509274",
"u*	c #5B9482",
"v*	c #35908E",
"w*	c #438D9A",
"x*	c #84A8AA",
"y*	c #87B3B8",
"z*	c #73A2AD",
"A*	c #89A7A7",
"B*	c #769FA0",
"C*	c #A2C3B2",
"D*	c #619592",
"E*	c #27818D",
"F*	c #227F86",
"G*	c #3D847E",
"H*	c #579185",
"I*	c #298C85",
"J*	c #589889",
"K*	c #6F9C87",
"L*	c #2F856E",
"M*	c #2E886F",
"N*	c #478D6C",
"O*	c #338865",
"P*	c #569661",
"Q*	c #348939",
"R*	c #278731",
"S*	c #2A852C",
"T*	c #298C32",
"U*	c #228734",
"V*	c #29852D",
"W*	c #2D872B",
"X*	c #2E8025",
"Y*	c #258531",
"Z*	c #238A35",
"`*	c #228433",
" =	c #248B35",
".=	c #2B862B",
"+=	c #2F8325",
"@=	c #328724",
"#=	c #2D882C",
"$=	c #278730",
"%=	c #2B852B",
"&=	c #2E8427",
"*=	c #2F8425",
"==	c #29872E",
"-=	c #308827",
";=	c #318927",
">=	c #258631",
",=	c #238733",
"'=	c #228332",
")=	c #268630",
"!=	c #228131",
"~=	c #2A892F",
"{=	c #248B34",
"]=	c #29872F",
"^=	c #2F8829",
"/=	c #368C24",
"(=	c #3E8622",
"_=	c #368522",
":=	c #338C27",
"<=	c #2F8728",
"[=	c #2A8B30",
"}=	c #28852E",
"|=	c #2D8428",
"1=	c #2C872C",
"2=	c #418823",
"3=	c #2C882C",
"4=	c #298930",
"5=	c #2D8227",
"6=	c #348A24",
"7=	c #3B8622",
"8=	c #318A28",
"9=	c #448A23",
"0=	c #548923",
"a=	c #408723",
"b=	c #358C24",
"c=	c #28842E",
"d=	c #558B24",
"e=	c #358C25",
"f=	c #338923",
"g=	c #3B8A24",
"h=	c #528923",
"i=	c #4A8823",
"j=	c #358B24",
"  . + @ # $ % & *   = - ; > , ' ) ! ~ ' { ] ^ / ( _ : < [ } | 1 ",
"2 3 4 5 6 7 8 = 9 0 a b c d e f g h i j k l m n o p q r s t u v ",
"w x y z A B C D E F w G H I J K L M N O P Q R b S T U V W X F Y ",
"& Z `  ...+.x @.#.$.%.&.*.=.y -.;.x >.,.'.).!.=.~.{.D a ].@.^./.",
"{ (._.:.' = <.[.}.' (.* |.{ |.1.2.3.4.5.:.:.(._.* |.1 <.[.6.1 :.",
"7.8.9.9.0.a.b.c.d.e.f.g.h.i.j.k.l.m.n.o.p.q.r.s.t.0.|.u.v.w.x.y.",
"z.A.B.e.C.D.E.F.G.H.I.J.K.L.M.N.O.P.Q.R.S.T.U.V.0.9.W.X.G.Y.Z.`.",
" +.+++@+#+$+%+&+*+=+-+;+>+,+'+)+!+~+{+]+^+/+(+_+:+<+[+}+|+1+2+2+",
"3+4+1+5+6+7+1.8+9+0+a+b+c+d+e+f+g+h+i+j+k+l+m+n+o+p+B.(.(.q+r+3+",
"q.s+_ g.* t+u+v+w+x+y+z+A+B+C+D+E+F+G+H+I+J+K+L+M+N+a.O+P+Q+c R+",
"- S+T+U+|.V+W+X+Y+Z+`+ @.@+@@@#@$@%@&@*@=@-@;@>@,@'@)@!@~@' {@]@",
"^@/@(@_@:@<@[@}@|@1@2@3@4@5@6@7@8@9@0@a@b@c@d@e@f@g@h@i@j@k@6.l@",
"m@m n@o@p@q@r@s@t@u@v@w@x@y@z@A@B@C@D@E@F@G@H@I@J@K@L@M@N@O@P@G ",
"#.Q@R@S@T@U@V@W@X@Y@Z@`@ #.#+#@###$#$#%#&#*#=#-#;#>#,#'#)#!#~#{#",
"]#1 ^#/#(#_#:#<#[#}#|#1#2#3#4#5#6#7#8#9#0#a#b#c#d#e#f#g#h#i#j#k#",
"l#C.9.m#n#o#p#q#r#s#t#u#v#w#x#y#y#z#A#B#C#D#E#F#G#H#I#J#K#L#|.(.",
"M#N#O#P#Q#R#S#T#U#V#W#X#Y#Z#`# $.$+$@$#$$$%$&$*$=$-$;$>$,$'$)$U+",
"!$~${$]$^$/$($_$:$<$[$}$|$1$2$3$4$5$6$7$8$9$0$a$b$c$d$e$f$g$h$i$",
"j$k$l$m$n$o$p$q$r$s$t$u$v$w$x$y$z$A$B$C$D$E$F$G$H$I$J$K$L$M$N$O$",
"P$Q$R$S$T$U$V$W$X$Y$Z$`$ %.%+%@%#%$%%%&%*%=%-%;%>%,%'%)%!%~%{%]%",
"d.^%/%(%_%:%<%[%}%|%1%2%3%4%5%6%7%8%9%0%a%b%c%d%e%f%g%h%i%j%k%b.",
"l%m%n%o%p%q%r%s%t%u%v%w%x%y%z%A%B%C%D%E%F%G%H%I%J%K%L%M%N%O%P%t.",
"Q%R%S%T%U%V%W%X%Y%Z%`% &.&+&@&#&$&%&&&*&=&-&;&>&,&'&)&!&~&{&]&^&",
"/&(&_&:&<&[&}&|&1&2&3&4&5&6&7&8&9&0&a&b&c&d&e&f&g&h&i&j&k&l&m&w ",
"n&o&p&q&r&s&t&u&v&w&x&y&z&A&B&C&D&E&F&G&H&I&J&K&L&M&N&O&P&Q&R&@.",
"S&T&U&V&W&X&Y&Z&`& *.*+*@*#*$*%*&***=*-*;*i&>*,*'*)*!*~*{*]*^*/*",
"(*_*:*<*[*}*|*1*2*3*4*5*6*7*8*9*0*a*b*c*d*e*f*g*h*i*j*k*l*m*n*}+",
"o*p*q*r*s*t*u*v*w*x*y*z*A*B*C*D*E*F*G*H*I*J*K*L*M*N*O*P*Q*R*S*T*",
"U*> V*W*X*p.$+Y*Z*`* = +G..=f.+=@=#=3+> > 2+z.$=%=&=*=c.==> j$!$",
"> `*O$++M#-=(.;=>= => O$,='=)=. d.]@q.( 2+,=,=> !===f.e.# ~={=O$",
"]=4 p*^=* /=(=_=:=<=[=}=|=1=B._.5.2=9.:=3=4=S*5=#=}+6=7=7=%+8=5 ",
"6=W*}=:@(.9=0=a=_.b=%+b.%=c=@=:...d== 6=e=f=/@V*#+(.g=h=i=  j=}+"};
