/* XPM */
static char * moves_64_xpm[] = {
"192 60 18 1",
" 	c #000000",
".	c #AE9E00",
"+	c #EED800",
"@	c #D2BE00",
"#	c #AF9F00",
"$	c #908300",
"%	c #C8B400",
"&	c #DCC600",
"*	c #686000",
"=	c #807300",
"-	c #7F7200",
";	c #C9B500",
">	c #E6D000",
",	c #DCC800",
"'	c #AF9E00",
")	c #837500",
"!	c #B2A100",
"~	c #C3B100",
"                                                                                                                                                                                                ",
"                                                                                                                                                                                   .++++++++    ",
"                                                                                                                                                                                   .++++++++    ",
"                                                                                                                                                                                   .++++++++    ",
"                                                                                                                                                                                   .++++++++    ",
"                                                                                                                                                                                   .++++++++    ",
" +++++++++++++++++++++++++.            @++++++++++++++++++++.            @+++++++@        @+++++++@        @++++++++++++++++++++.            @++++++++++++++++++++.                .++++++++    ",
" +++++++++++++++++++++++++.            @++++++++++++++++++++.            @+++++++@        @+++++++@        @++++++++++++++++++++.            @++++++++++++++++++++.                .++++++++    ",
" +++++++++++++++++++++++++.            @++++++++++++++++++++.            @+++++++@        @+++++++@        @++++++++++++++++++++.            @++++++++++++++++++++.                .++++++++    ",
" +++++++++++++++++++++++++.            @++++++++++++++++++++.            @+++++++@        @+++++++@        @++++++++++++++++++++.            @++++++++++++++++++++.                .++++++++    ",
" ++++#$$$%++++++++$$$$&+++.            @+++%$$$$$$$$$$$$&+++.            @+++++++@        @+++++++@        @+++%$$$$$$$$$$$$&+++.        $$$$&+++%$$$$$$$$$$$$$$$$*                             ",
" ++++=   .++++++++    @+++++++@    ++++++++.            @+++++++@        @+++++++@        @+++++++@    ++++++++.            @+++++++@    ++++++++.                                              ",
" ++++=   .++++++++    @+++++++@    ++++++++.            @+++++++@        @+++++++@        @+++++++@    ++++++++.            @+++++++@    ++++++++.                                              ",
" ++++=   .++++++++    @+++++++@    ++++++++.            @+++++++@        @+++++++@        @+++++++@    ++++++++.            @+++++++@    ++++++++.                                              ",
" ++++=   .++++++++    @+++++++@    ++++++++.            @+++++++@        @+++++++@        @+++++++@    ++++++++.            @+++++++@    ++++++++.                                 .++++++++    ",
" ++++=   .++++++++    @+++++++@    ++++++++.            @+++++++@        @+++++++@        @+++++++@    +++++++++++++++++++++++++++++@        @++++++++++++++++++++.                .++++++++    ",
" ++++=   .++++++++    @+++++++@    ++++++++.            @+++++++@        @+++++++@        @+++++++@    +++++++++++++++++++++++++++++@        @++++++++++++++++++++.                .++++++++    ",
" ++++=   .++++++++    @+++++++@    ++++++++.            @+++++++@        @+++++++@        @+++++++@    +++++++++++++++++++++++++++++@        @++++++++++++++++++++.                .++++++++    ",
" ++++=   .++++++++    @+++++++@    ++++++++.            @+++++++@        @+++++++@        @+++++++@    +++++++++++++++++++++++++++++@        @++++++++++++++++++++.                .++++++++    ",
" ++++=   .++++++++    @+++++++@    ++++++++.            @+++++++@            .++++++++++++++++.        ++++++++%$$$$$$$$$$$$$$$$$$$$-                         @+++++++@            .++++++++    ",
" ++++=   .++++++++    @+++++++@    ++++++++.            @+++++++@            .++++++++++++++++.        ++++++++.                                              @+++++++@            .++++++++    ",
" ++++=   .++++++++    @+++++++@    ++++++++.            @+++++++@            .++++++++++++++++.        ++++++++.                                              @+++++++@            .++++++++    ",
" ++++=   .++++++++    @+++++++@    ++++++++.            @+++++++@            .++++++++++++++++.        ++++++++.                                              @+++++++@            .++++++++    ",
" ++++=   .++++++++    @+++++++@    ;;;;>+++%$$$$$$$$$$$$&+++,;;;'            )!!!~++++++++~!!!)        ;;;;>+++%$$$$$$$$$$$$$$$$*        $$$$$$$$$$$$$$$$$$$$$&+++%$$$-                         ",
" ++++=   .++++++++    @+++++++@        @++++++++++++++++++++.                    =++++++++=                @++++++++++++++++++++.        +++++++++++++++++++++++++.                             ",
" ++++=   .++++++++    @+++++++@        @++++++++++++++++++++.                    =++++++++=                @++++++++++++++++++++.        +++++++++++++++++++++++++.                             ",
" ++++=   .++++++++    @+++++++@        @++++++++++++++++++++.                    =++++++++=                @++++++++++++++++++++.        +++++++++++++++++++++++++.                             ",
" ++++=   .++++++++    @+++++++@        @++++++++++++++++++++.                    =++++++++=                @++++++++++++++++++++.        +++++++++++++++++++++++++.                             ",
"                                                                                                                                                                                                ",
"                                                                                                                                                                                                ",
"                                                                                                                                                                                                ",
"                                                                                                                                                                                                ",
"                                                                                                                                                                                                ",
"                                                                                                                                                                                                ",
"                                                                                                                                                                                                ",
"                                                                                                                                                                                                ",
"                                                                                                                                                                                                ",
"                                                                                                                                                                                                ",
"                                                                                                                                                                                                ",
"                                                                                                                                                                                                ",
"                                                                                                                                                                                                ",
"                                                                                                                                                                                                ",
"                                                                                                                                                                                                ",
"                                                                                                                                                                                                ",
"                                                                                                                                                                                                ",
"                                                                                                                                                                                                ",
"                                                                                                                                                                                                ",
"                                                                                                                                                                                                ",
"                                                                                                                                                                                                ",
"                                                                                                                                                                                                ",
"                                                                                                                                                                                                ",
"                                                                                                                                                                                                ",
"                                                                                                                                                                                                ",
"                                                                                                                                                                                                ",
"                                                                                                                                                                                                ",
"                                                                                                                                                                                                ",
"                                                                                                                                                                                                ",
"                                                                                                                                                                                                ",
"                                                                                                                                                                                                ",
"                                                                                                                                                                                                "};
