/* XPM */
static char * moves_32_xpm[] = {
"96 30 94 2",
"  	c #000000",
". 	c #5F5600",
"+ 	c #AD9D00",
"@ 	c #AF9E00",
"# 	c #AB9B00",
"$ 	c #242000",
"% 	c #847700",
"& 	c #ECD600",
"* 	c #EED800",
"= 	c #EAD400",
"- 	c #352F00",
"; 	c #342F00",
"> 	c #191500",
", 	c #1F1B00",
"' 	c #302B00",
") 	c #040300",
"! 	c #E7D200",
"~ 	c #817500",
"{ 	c #998A00",
"] 	c #E9D300",
"^ 	c #D9C500",
"/ 	c #2D2700",
"( 	c #EDD700",
"_ 	c #EBD500",
": 	c #9C8D00",
"< 	c #DDC800",
"[ 	c #2E2800",
"} 	c #110F00",
"| 	c #1C1900",
"1 	c #9D8E00",
"2 	c #827600",
"3 	c #E5D000",
"4 	c #342E00",
"5 	c #CAB700",
"6 	c #736800",
"7 	c #A09100",
"8 	c #EAD500",
"9 	c #796E00",
"0 	c #776C00",
"a 	c #E0CB00",
"b 	c #C2B000",
"c 	c #AE9E00",
"d 	c #716600",
"e 	c #7F7300",
"f 	c #D6C100",
"g 	c #756A00",
"h 	c #706600",
"i 	c #908200",
"j 	c #C5B200",
"k 	c #D6C200",
"l 	c #6F6500",
"m 	c #3B3600",
"n 	c #050400",
"o 	c #C0AE00",
"p 	c #181400",
"q 	c #CFBC00",
"r 	c #DFCA00",
"s 	c #B0A000",
"t 	c #B1A100",
"u 	c #E6D000",
"v 	c #E4CF00",
"w 	c #C6B300",
"x 	c #C4B200",
"y 	c #807300",
"z 	c #302A00",
"A 	c #1C1800",
"B 	c #0E0C00",
"C 	c #9F9000",
"D 	c #D9C400",
"E 	c #E2CC00",
"F 	c #D8C400",
"G 	c #8D7F00",
"H 	c #736700",
"I 	c #CEBB00",
"J 	c #D5C100",
"K 	c #514900",
"L 	c #D1BE00",
"M 	c #1D1900",
"N 	c #2B2600",
"O 	c #9F8F00",
"P 	c #887B00",
"Q 	c #181500",
"R 	c #100D00",
"S 	c #252000",
"T 	c #6C6100",
"U 	c #AD9C00",
"V 	c #867900",
"W 	c #BCAA00",
"X 	c #171400",
"Y 	c #655A00",
"Z 	c #E6D100",
"` 	c #292400",
" .	c #010100",
"..	c #110E00",
"                                                                                                                                                                                  . + @ @ # $   ",
"                                                                                                                                                                                  % & * * = -   ",
"$ - - - - - - - - - - - ; >           , - - - - - - - - - ; >           , - - - ' )     ) ' - - - ,       , - - - - - - - - - ; >           , - - - - - - - - - ; >               % & * * = -   ",
"# = = = = = = = = = = = ! ~           { ] = = = = = = = = ! ~           { ] = = ^ /     / ^ = = ] {       { ] = = = = = = = = ! ~           { ] = = = = = = = = ! ~               % & * * = -   ",
"@ * ( _ & * * * * _ _ * & %           : ( ( _ _ _ _ _ _ * & %           : ( * * < [     [ < * * ( :       : ( ( _ _ _ _ _ _ * & %       } | 1 ( ( _ _ _ _ _ _ _ ] 2               ~ ! = = 3 4   ",
"@ * 5 6 7 & * * 8 9 0 a ( b c d   e @ 5 ( f g h h h h 0 a ( b c d       : ( * * < [     [ < * * ( :   e @ 5 ( f g h h h h 0 a ( b c d   i j k * f g h h h h h h l m               > ; - - 4 n   ",
"@ * o p % & * * = - [ < * * ( :   @ * * * q $         [ < * * ( :       : ( * * < [     [ < * * ( :   @ * * * q $         [ < * * ( :   @ * * * q $                               > ; - - 4 n   ",
"@ * o p % & * * = - [ < * * ( :   @ * * * q $         [ < * * ( :       : ( * * < [     [ < * * ( :   @ * * * r s @ @ @ @ t u * * ( :   e @ 5 ( r s @ @ @ @ @ @ + .               ~ ! = = 3 4   ",
"@ * o p % & * * = - [ < * * ( :   @ * * * q $         [ < * * ( :       : ( * * < [     [ < * * ( :   @ * * * * * * * * * * * * * ( :       : ( * * * * * * * * & %               % & * * = -   ",
"@ * o p % & * * = - [ < * * ( :   @ * * * q $         [ < * * ( :       d c b ( u t @ @ t u ( b c d   @ * * * v w j j j j j j j j x y       d c @ @ @ @ @ @ t u ( b c d           % & * * = -   ",
"@ * o p % & * * = - [ < * * ( :   @ * * * q $         [ < * * ( :           % & * * * * * * & %       @ * * * q z | | | | | | | | A B                       [ < * * ( :           % & * * = -   ",
"@ * o p % & * * = - [ < * * ( :   C D E * f g h h h h 0 a * r F G           H I J ( * * ( J I H       C D E * f g h h h h h h l m       K h h h h h h h h h 0 a ( L x y           . + @ @ # $   ",
"@ * o p % & * * = - [ < * * ( :   M N O ( ( _ _ _ _ _ _ * & P N Q           R S T _ * * _ T S R       M N O ( ( _ _ _ _ _ _ _ ] 2       U _ _ _ _ _ _ _ _ _ _ * & V A B                         ",
"# = W X ~ ! = = 3 4 / ^ = = ] {       { ] = = = = = = = = ! ~                   Y Z = = Z Y               { ] = = = = = = = = ! ~       # = = = = = = = = = = = ! ~                             ",
"$ - `  .> ; - - 4 n ) ' - - - ,       , - - - - - - - - - ; >                   ..4 - - 4 ..              , - - - - - - - - - ; >       $ - - - - - - - - - - - ; >                             ",
"                                                                                                                                                                                                ",
"                                                                                                                                                                                                ",
"                                                                                                                                                                                                ",
"                                                                                                                                                                                                ",
"                                                                                                                                                                                                ",
"                                                                                                                                                                                                ",
"                                                                                                                                                                                                ",
"                                                                                                                                                                                                ",
"                                                                                                                                                                                                ",
"                                                                                                                                                                                                ",
"                                                                                                                                                                                                ",
"                                                                                                                                                                                                ",
"                                                                                                                                                                                                ",
"                                                                                                                                                                                                ",
"                                                                                                                                                                                                "};
