/* XPM */
static char * path_32_xpm[] = {
"32 32 508 2",
"  	c #358A23",
". 	c #2C872B",
"+ 	c #238432",
"@ 	c #298A31",
"# 	c #328624",
"$ 	c #438723",
"% 	c #488823",
"& 	c #3C8021",
"* 	c #328522",
"= 	c #358723",
"- 	c #338724",
"; 	c #28862F",
"> 	c #238834",
", 	c #2C862B",
"' 	c #348723",
") 	c #488723",
"! 	c #488923",
"~ 	c #358021",
"{ 	c #338722",
"] 	c #368A24",
"^ 	c #308626",
"/ 	c #248531",
"( 	c #258933",
"_ 	c #2F8627",
": 	c #3A8623",
"< 	c #498A24",
"[ 	c #438422",
"} 	c #328121",
"| 	c #358923",
"1 	c #348622",
"2 	c #508A23",
"3 	c #358623",
"4 	c #2D862A",
"5 	c #2A882F",
"6 	c #29842D",
"7 	c #308224",
"8 	c #317E20",
"9 	c #448622",
"0 	c #4D8823",
"a 	c #508723",
"b 	c #468823",
"c 	c #328524",
"d 	c #2C882D",
"e 	c #2A872F",
"f 	c #2A812A",
"g 	c #318021",
"h 	c #338321",
"i 	c #358321",
"j 	c #4B8A24",
"k 	c #4B8522",
"l 	c #528B24",
"m 	c #3C8422",
"n 	c #308727",
"o 	c #2A872E",
"p 	c #2A862E",
"q 	c #2D8127",
"r 	c #317F21",
"s 	c #348422",
"t 	c #3C8522",
"u 	c #4D8A24",
"v 	c #4C8422",
"w 	c #568923",
"x 	c #508823",
"y 	c #448723",
"z 	c #468924",
"A 	c #498824",
"B 	c #448522",
"C 	c #498322",
"D 	c #4D8422",
"E 	c #548722",
"F 	c #548522",
"G 	c #568B24",
"H 	c #4A8622",
"I 	c #448A24",
"J 	c #498823",
"K 	c #448523",
"L 	c #458422",
"M 	c #4D8622",
"N 	c #508522",
"O 	c #548622",
"P 	c #558723",
"Q 	c #568A23",
"R 	c #528723",
"S 	c #458B24",
"T 	c #498723",
"U 	c #468623",
"V 	c #448221",
"W 	c #4E8522",
"X 	c #528522",
"Y 	c #578A23",
"Z 	c #398121",
"` 	c #397E20",
" .	c #428723",
"..	c #4B8923",
"+.	c #4D8322",
"@.	c #518321",
"#.	c #518522",
"$.	c #4B8422",
"%.	c #478322",
"&.	c #3A8121",
"*.	c #397F20",
"=.	c #3A8021",
"-.	c #4D8A23",
";.	c #4F8321",
">.	c #518322",
",.	c #4F8422",
"'.	c #4A8522",
").	c #418121",
"!.	c #398021",
"~.	c #3C8321",
"{.	c #498A23",
"].	c #528622",
"^.	c #4C8522",
"/.	c #4A8322",
"(.	c #338723",
"_.	c #348923",
":.	c #338622",
"<.	c #358422",
"[.	c #398723",
"}.	c #378823",
"|.	c #348823",
"1.	c #338522",
"2.	c #368723",
"3.	c #358522",
"4.	c #3A8723",
"5.	c #368923",
"6.	c #388823",
"7.	c #2D8328",
"8.	c #308122",
"9.	c #328422",
"0.	c #338623",
"a.	c #358A24",
"b.	c #328926",
"c.	c #328A27",
"d.	c #328825",
"e.	c #338823",
"f.	c #2D8629",
"g.	c #308525",
"h.	c #318222",
"i.	c #338822",
"j.	c #348C25",
"k.	c #318826",
"l.	c #328A26",
"m.	c #328824",
"n.	c #318725",
"o.	c #2E882A",
"p.	c #308323",
"q.	c #318321",
"r.	c #338A25",
"s.	c #328927",
"t.	c #318926",
"u.	c #328723",
"v.	c #318928",
"w.	c #248934",
"x.	c #29862E",
"y.	c #318625",
"z.	c #308021",
"A.	c #328523",
"B.	c #29882F",
"C.	c #258934",
"D.	c #248733",
"E.	c #26842F",
"F.	c #248A35",
"G.	c #258A33",
"H.	c #328623",
"I.	c #318221",
"J.	c #308324",
"K.	c #268A33",
"L.	c #268932",
"M.	c #278730",
"N.	c #2E8528",
"O.	c #318322",
"P.	c #2E892B",
"Q.	c #258B35",
"R.	c #25822F",
"S.	c #258B34",
"T.	c #238935",
"U.	c #228633",
"V.	c #248431",
"W.	c #27832E",
"X.	c #2B842B",
"Y.	c #308928",
"Z.	c #338924",
"`.	c #28842D",
" +	c #238A35",
".+	c #238633",
"++	c #25832F",
"@+	c #27832D",
"#+	c #258530",
"$+	c #238734",
"%+	c #248B35",
"&+	c #25812E",
"*+	c #29842C",
"=+	c #2D872A",
"-+	c #338824",
";+	c #2C852A",
">+	c #248632",
",+	c #238934",
"'+	c #238532",
")+	c #288830",
"!+	c #2E8628",
"~+	c #338925",
"{+	c #2B892E",
"]+	c #278A32",
"^+	c #228432",
"/+	c #2B882E",
"(+	c #318827",
"_+	c #308726",
":+	c #2A8D31",
"<+	c #248833",
"[+	c #258732",
"}+	c #2E882B",
"|+	c #298D33",
"1+	c #388C24",
"2+	c #4A8A23",
"3+	c #398623",
"4+	c #2F8C2B",
"5+	c #3C8923",
"6+	c #4B8B24",
"7+	c #308A29",
"8+	c #2F8A2A",
"9+	c #2F8728",
"0+	c #2F8527",
"a+	c #458823",
"b+	c #418723",
"c+	c #348A23",
"d+	c #2F8B2B",
"e+	c #29862D",
"f+	c #248330",
"g+	c #2D882B",
"h+	c #468622",
"i+	c #538622",
"j+	c #358B24",
"k+	c #26812E",
"l+	c #248732",
"m+	c #4E8622",
"n+	c #558A23",
"o+	c #388723",
"p+	c #348A24",
"q+	c #2E8729",
"r+	c #248331",
"s+	c #28852E",
"t+	c #3D8823",
"u+	c #538723",
"v+	c #4D8723",
"w+	c #358D24",
"x+	c #3F8E24",
"y+	c #308828",
"z+	c #268832",
"A+	c #2E8527",
"B+	c #3C8624",
"C+	c #3D8622",
"D+	c #358221",
"E+	c #348522",
"F+	c #388923",
"G+	c #3B8622",
"H+	c #398B24",
"I+	c #2C882C",
"J+	c #28872F",
"K+	c #308225",
"L+	c #3F8623",
"M+	c #3D8923",
"N+	c #378923",
"O+	c #3E8C24",
"P+	c #358724",
"Q+	c #288730",
"R+	c #2B842A",
"S+	c #358424",
"T+	c #3F8923",
"U+	c #3A8422",
"V+	c #328321",
"W+	c #368322",
"X+	c #538823",
"Y+	c #338825",
"Z+	c #30872A",
"`+	c #30862B",
" @	c #338624",
".@	c #378021",
"+@	c #3A8322",
"@@	c #4E8823",
"#@	c #558A24",
"$@	c #558923",
"%@	c #32872A",
"&@	c #2F872A",
"*@	c #338322",
"=@	c #3D8322",
"-@	c #538923",
";@	c #548A23",
">@	c #438321",
",@	c #348724",
"'@	c #308729",
")@	c #31882B",
"!@	c #318626",
"~@	c #327F20",
"{@	c #458622",
"]@	c #548A24",
"^@	c #4F8823",
"/@	c #478121",
"(@	c #4D8923",
"_@	c #4B8021",
":@	c #4E8221",
"<@	c #528422",
"[@	c #528322",
"}@	c #508622",
"|@	c #488522",
"1@	c #508221",
"2@	c #538422",
"3@	c #538522",
"4@	c #518823",
"5@	c #4D8321",
"6@	c #4C8221",
"7@	c #528321",
"8@	c #378723",
"9@	c #398923",
"0@	c #408823",
"a@	c #488722",
"b@	c #4B8221",
"c@	c #498622",
"d@	c #418522",
"e@	c #418823",
"f@	c #358622",
"g@	c #348322",
"h@	c #3B8A24",
"i@	c #488422",
"j@	c #498923",
"k@	c #478622",
"l@	c #3C8722",
"m@	c #3F8B24",
"n@	c #458723",
"o@	c #488622",
"p@	c #4C8622",
"q@	c #4A8422",
"r@	c #428522",
"s@	c #438623",
"t@	c #318121",
"u@	c #328322",
"v@	c #318422",
"w@	c #358823",
"x@	c #2A872D",
"y@	c #318524",
"z@	c #2F8B2C",
"A@	c #2F8325",
"B@	c #328724",
"C@	c #328925",
"D@	c #2D892C",
"E@	c #2E8A2B",
"F@	c #2E8428",
"G@	c #318A28",
"H@	c #2D8A2C",
"I@	c #2E8225",
"J@	c #248C35",
"K@	c #258632",
"L@	c #318624",
"M@	c #248A34",
"N@	c #258E36",
"O@	c #258C35",
"P@	c #27852F",
"Q@	c #2F8425",
"R@	c #298930",
"S@	c #238733",
"T@	c #2A842C",
"U@	c #308425",
"V@	c #318523",
"W@	c #258430",
"X@	c #228533",
"Y@	c #258832",
"Z@	c #28812C",
"`@	c #2A822A",
" #	c #268530",
".#	c #258833",
"+#	c #2B852B",
"@#	c #358C24",
"##	c #368622",
"$#	c #2A882E",
"%#	c #29872E",
"&#	c #27842F",
"*#	c #348B24",
"=#	c #368623",
"-#	c #2E8B2C",
";#	c #278931",
">#	c #368823",
",#	c #2C892D",
"'#	c #318A27",
")#	c #2C8429",
"!#	c #3C8A23",
"~#	c #3E8723",
"{#	c #348C24",
"]#	c #528C24",
"^#	c #338B26",
"/#	c #328725",
"(#	c #2D8529",
"_#	c #2F8528",
":#	c #4C8723",
"<#	c #228332",
"[#	c #2B882D",
"}#	c #418322",
"|#	c #238533",
"1#	c #4F8522",
"2#	c #508722",
"3#	c #378422",
"4#	c #2E8629",
"5#	c #278731",
"6#	c #518723",
"7#	c #498222",
"8#	c #468A23",
"9#	c #2A892F",
"0#	c #2A852C",
"a#	c #348725",
"b#	c #368722",
"c#	c #328021",
"d#	c #3B8522",
"e#	c #448A23",
"f#	c #478823",
"g#	c #3E8623",
"h#	c #258631",
"i#	c #428923",
"j#	c #408522",
"k#	c #498D24",
"l#	c #29862F",
"m#	c #2F8327",
"n#	c #438A23",
"o#	c #438722",
"p#	c #558924",
"q#	c #478723",
"r#	c #378322",
"s#	c #3A8925",
"t#	c #3B8525",
"u#	c #368021",
"v#	c #3E7F20",
"w#	c #538A23",
"x#	c #408322",
"y#	c #368624",
"z#	c #3F8925",
"A#	c #368124",
"B#	c #387F20",
"C#	c #438322",
"D#	c #498722",
"E#	c #558823",
"F#	c #578B24",
"G#	c #4D8522",
"H#	c #378725",
"I#	c #3F8826",
"J#	c #388223",
"K#	c #387C20",
"L#	c #4E8723",
"M#	c #498522",
"N#	c #468723",
"O#	c #4C8A23",
"P#	c #528823",
"Q#	c #518121",
"R#	c #468422",
"S#	c #518221",
"T#	c #4A8221",
"U#	c #468522",
"V#	c #528623",
"W#	c #338422",
"X#	c #388B24",
"Y#	c #3A8522",
"Z#	c #3E8522",
"`#	c #438522",
" $	c #408622",
".$	c #368522",
"+$	c #3A8B24",
"@$	c #3D8422",
"#$	c #378A23",
"$$	c #3D8522",
"%$	c #378622",
"&$	c #318424",
"*$	c #338923",
"=$	c #358C25",
"-$	c #2D8429",
";$	c #2C892C",
">$	c #258A34",
",$	c #2F8427",
"'$	c #29852D",
")$	c #2B8A2F",
"!$	c #268C34",
"~$	c #2A832B",
"{$	c #2F892A",
"]$	c #298C32",
"^$	c #228734",
"/$	c #2D872B",
"($	c #2E8025",
"_$	c #258531",
":$	c #228433",
"<$	c #2B862B",
"[$	c #2D882C",
"}$	c #2E8427",
"|$	c #308827",
"1$	c #318927",
"2$	c #268630",
"3$	c #228131",
"4$	c #248B34",
"5$	c #29872F",
"6$	c #2F8829",
"7$	c #368C24",
"8$	c #3E8622",
"9$	c #338C27",
"0$	c #2A8B30",
"a$	c #2D8428",
"b$	c #2C872C",
"c$	c #2D8227",
"d$	c #548923",
"e$	c #408723",
"f$	c #28842E",
"g$	c #558B24",
"h$	c #528923",
"i$	c #4A8823",
"  . + @ # $ % & *   = - ; > , ' ) ! ~ ' { ] ^ / ( _ : < [ } | 1 ",
"2 3 4 5 6 7 8 = 9 0 a b c d e f g h i j k l m n o p q r s t u v ",
"w x y z A B C D E F w G H I J K L M N O P Q R b S T U V W X F Y ",
"& Z `  ...+.x @.#.$.%.&.*.=.y -.;.x >.,.'.).!.=.~.{.D a ].@.^./.",
"{ (._.:.' = <.[.}.' (.* |.{ |.1.2.3.4.5.:.:.(._.* |.1 <.[.6.1 :.",
"7.8.9.9.0.a.b.c.d.e.f.g.h.9.9.i.j.k.l.m.n.o.p.h.q.0.|.r.s.t.u.v.",
"w.x.y.e.z.A.B.C.D.E.F.G.. H.(.I.J.K.C./ L.F.M.N.0.9.O.P.D.Q.R.S.",
"T.U.V.W.X.Y.Z.`.> > T. +.+++@+, d.n #+T.$+%+> D.&+*+=+-+;+>+,+,+",
".+'+>+)+!+~+1.-+{+]+,+^+>+'+/+(+e.:._+:+<+.+.+V.[+P.y.(.(.}+|+.+",
"o.k._ g.* 1+2+3+-+d.4+f.d.N.-+(.5+6+:.Z.7+8+9+g.0+e.a.a+b+c+c d+",
"- e+f+g+|.h+i+y _.j+|.^ k+l+y.= m+n+o+p+_.(.q+r+s+u.t+u+v+' w+H.",
"x+y+[+z+A+B+C+D+E+F+G+H+I+w.J+K+L+M+8 N+3.O+P+Q+S.R+S+T+U+V+6.W+",
"X+m Y+Z+`+ @.@+@@@#@$@v+W+(+%@&@*@+@=@-@;@G >@,@'@)@!@~@+@{@]@G ",
"#.^@/@(@a _@:@X O <@[@}@v |@x +.D 1@i+2@3@>.,.'.T 4@5@6@X i+<@7@",
"8@1 E+9@0@a@J b@c@d@e@f@E+g@h@S i@j@b@k@d@l@1 3.3 m@n@o@p@q@r@s@",
"t@z.9.u@(.|.' | ' |.v@t@I.9.9.:._.(.w@|.:.O.q.I.O.:.(.:.| ' |.(.",
"x@y@(.* u@e.=+z@=+A@x.=+B@1.:.v@C@D@E@F@!+5 0+B@9.:.* G@D@H@I@g+",
"J@K@7.L@v@-+H@+ M@w.N@O@P@Q@y@H.# R@S@w.%+N@<+T@U@V@u.7+W@ +S@N@",
"X@X@S@<+W.N.(.g+'+X@,+X@.+S@Y@Z@n.# x.S@U.U.> $+.+M.`@H.n  #> $+",
".#P@x.+#B@@###(.8+$#K.>+%#&#N.*#  =#B@-#;#K.W@o W.k.*#>#' c.,#]+",
"d.'#)#g.* !#x ~#_.{#c.b.n ;+v@0. .]#1 c+^#/#l.(#_#(.| :#! |.*#b.",
"*#e+<#[#|.T }@}#_.c+{ k.W@|#Y.w@1#2#3#c+e.|.4#+ 5#L@T+6#7#|.j+q.",
"8#c 9#.#0#a#b#c#d#e#f#g#9+]+h#)#}.5.8 i#j#k#3#g+K.l#m#>#s D+n#o#",
"p#q#r#s#t#u#v#f#6#3@Y w#x#y#z#A#B#C#D#i+E#F#G#U+H#I#J#K#h+L#3@w ",
"M#N#L O#P#].X Q#2@].:@a@R#f#v+X+].i+S#<@].T#U#k@j@a i+X <@7@V#@.",
"*@t@I.W#X#Y#Z#`# $9@.$t@I.t@w@+$@$C+`#~#o+*@h.u@I.#$[.$$$ d@[.%$",
"&$* e.(.9.e.e.*#j+I.B@H.e.e.:.I.j+-+{#*$v@B@(.:.{ { * e.p+=$* -+",
"L.-$v@v@* p+$#)+W.;$>$J+,$I.9.(.n.@ J+'$)$!$~$U@I.1.e.{$Q+5#0#]$",
"^$> '$/$($n.Y._$ +:$%+T.D.<$f.A@B@[$.+> > ,+w.M.+#}$Q@c.%#> X@J@",
"> :$$+V.x@|$(.1$h#%+> $+S@<#2$. d.H.o.( ,+S@S@> 3$%#f.e.# 9#4$$+",
"5$4 -$6$* 7$8$.$9$9+0$s+a$b$y._.5.e@9.9$I+R@0#c$[$-+p+G+G+Z.G@5 ",
"p+/$s+A+(.e#d$e$_.@#Z.b.+#f$B@:...g$= p+=$*$y+'$X.(.h@h$i$  j+-+"};
