/* XPM */
static char * patrol_sprite2_32_xpm[] = {
"32 32 975 2",
"  	c #358A23",
". 	c #2C872B",
"+ 	c #238432",
"@ 	c #298A31",
"# 	c #3E723C",
"$ 	c #302A2C",
"% 	c #534E57",
"& 	c #738B7D",
"* 	c #3B8732",
"= 	c #358A24",
"- 	c #378727",
"; 	c #5D835E",
"> 	c #697070",
", 	c #6F767E",
"' 	c #809291",
") 	c #5D8D5F",
"! 	c #4A8728",
"~ 	c #488923",
"{ 	c #358021",
"] 	c #348723",
"^ 	c #338722",
"/ 	c #368A24",
"( 	c #308626",
"_ 	c #248531",
": 	c #258933",
"< 	c #2F8627",
"[ 	c #3A8623",
"} 	c #498A24",
"| 	c #438422",
"1 	c #328121",
"2 	c #358923",
"3 	c #348622",
"4 	c #508A23",
"5 	c #358623",
"6 	c #2D862A",
"7 	c #2A882F",
"8 	c #2F8433",
"9 	c #556F57",
"0 	c #2C2027",
"a 	c #5C545C",
"b 	c #76837A",
"c 	c #69905F",
"d 	c #53882E",
"e 	c #488828",
"f 	c #618E66",
"g 	c #7F8C8E",
"h 	c #4E4D51",
"i 	c #606368",
"j 	c #718C7C",
"k 	c #3F8535",
"l 	c #358321",
"m 	c #4B8A24",
"n 	c #4B8522",
"o 	c #528B24",
"p 	c #3C8422",
"q 	c #308727",
"r 	c #2A872E",
"s 	c #2A862E",
"t 	c #2D8127",
"u 	c #317F21",
"v 	c #348422",
"w 	c #3C8522",
"x 	c #4D8A24",
"y 	c #4C8422",
"z 	c #568923",
"A 	c #508823",
"B 	c #448723",
"C 	c #468924",
"D 	c #498824",
"E 	c #4F853B",
"F 	c #404E3B",
"G 	c #372830",
"H 	c #5C4F58",
"I 	c #716F75",
"J 	c #86938A",
"K 	c #769670",
"L 	c #4E872F",
"M 	c #5D8F4F",
"N 	c #8A978A",
"O 	c #515152",
"P 	c #474548",
"Q 	c #738875",
"R 	c #53862D",
"S 	c #548622",
"T 	c #558723",
"U 	c #568A23",
"V 	c #528723",
"W 	c #468823",
"X 	c #458B24",
"Y 	c #498723",
"Z 	c #468623",
"` 	c #448221",
" .	c #4E8522",
"..	c #528522",
"+.	c #548522",
"@.	c #578A23",
"#.	c #3C8021",
"$.	c #398121",
"%.	c #397E20",
"&.	c #428723",
"*.	c #4B8923",
"=.	c #4D8322",
"-.	c #54803B",
";.	c #2D342C",
">.	c #352933",
",.	c #4A3E49",
"'.	c #655B69",
").	c #7C8188",
"!.	c #657972",
"~.	c #5D865E",
"{.	c #4E893A",
"].	c #6A8C63",
"^.	c #323430",
"/.	c #37343A",
"(.	c #657E5A",
"_.	c #508426",
":.	c #4A8522",
"<.	c #418121",
"[.	c #398021",
"}.	c #3A8021",
"|.	c #3C8321",
"1.	c #498A23",
"2.	c #4D8422",
"3.	c #508723",
"4.	c #528622",
"5.	c #518321",
"6.	c #4C8522",
"7.	c #4A8322",
"8.	c #41893B",
"9.	c #4A8D48",
"0.	c #358627",
"a.	c #358723",
"b.	c #368426",
"c.	c #5F825F",
"d.	c #343234",
"e.	c #291E24",
"f.	c #655869",
"g.	c #695C6A",
"h.	c #716671",
"i.	c #62636C",
"j.	c #879794",
"k.	c #608C70",
"l.	c #517352",
"m.	c #291E25",
"n.	c #474748",
"o.	c #588855",
"p.	c #348623",
"q.	c #338622",
"r.	c #338723",
"s.	c #348923",
"t.	c #328522",
"u.	c #348823",
"v.	c #358422",
"w.	c #398723",
"x.	c #388823",
"y.	c #2D8328",
"z.	c #3B8335",
"A.	c #859993",
"B.	c #7E9788",
"C.	c #5E905E",
"D.	c #3A8B2D",
"E.	c #328926",
"F.	c #3B8B34",
"G.	c #69836D",
"H.	c #554F42",
"I.	c #251821",
"J.	c #413440",
"K.	c #554754",
"L.	c #948995",
"M.	c #655E67",
"N.	c #717989",
"O.	c #6A7E87",
"P.	c #2D3034",
"Q.	c #362E3B",
"R.	c #5F6967",
"S.	c #518A52",
"T.	c #2F882B",
"U.	c #308323",
"V.	c #318222",
"W.	c #318321",
"X.	c #338623",
"Y.	c #338A25",
"Z.	c #328927",
"`.	c #318926",
" +	c #328723",
".+	c #318928",
"++	c #248934",
"@+	c #29862E",
"#+	c #598B5B",
"$+	c #7F8286",
"%+	c #90949A",
"&+	c #889B92",
"*+	c #488D51",
"=+	c #2A8A39",
"-+	c #378944",
";+	c #78907A",
">+	c #6C5E4D",
",+	c #2E1E1A",
"'+	c #2F242B",
")+	c #514854",
"!+	c #61565F",
"~+	c #685E6B",
"{+	c #5E6879",
"]+	c #50636F",
"^+	c #676C7E",
"/+	c #676D7A",
"(+	c #848D91",
"_+	c #649172",
":+	c #2E8837",
"<+	c #2E8528",
"[+	c #328422",
"}+	c #318322",
"|+	c #2E892B",
"1+	c #248733",
"2+	c #258B35",
"3+	c #25822F",
"4+	c #258B34",
"5+	c #238935",
"6+	c #228633",
"7+	c #268534",
"8+	c #5F8E6A",
"9+	c #848D8E",
"0+	c #87838A",
"a+	c #8E958F",
"b+	c #7F9085",
"c+	c #5E6F67",
"d+	c #687773",
"e+	c #666D6F",
"f+	c #281C1E",
"g+	c #18070D",
"h+	c #150B14",
"i+	c #352632",
"j+	c #3F3A49",
"k+	c #667185",
"l+	c #7E8799",
"m+	c #73778C",
"n+	c #7A8095",
"o+	c #717285",
"p+	c #7A7D8C",
"q+	c #7A9389",
"r+	c #428C4E",
"s+	c #25812E",
"t+	c #29842C",
"u+	c #2D872A",
"v+	c #338824",
"w+	c #2C852A",
"x+	c #248632",
"y+	c #238934",
"z+	c #238633",
"A+	c #238532",
"B+	c #298831",
"C+	c #4D8B50",
"D+	c #7C8B84",
"E+	c #695E65",
"F+	c #95868D",
"G+	c #A096A0",
"H+	c #857B88",
"I+	c #605662",
"J+	c #322A31",
"K+	c #1E161C",
"L+	c #342E37",
"M+	c #231A24",
"N+	c #1B141F",
"O+	c #434960",
"P+	c #656C86",
"Q+	c #7C829B",
"R+	c #99A2B9",
"S+	c #80859A",
"T+	c #5A5A6D",
"U+	c #6D6C7D",
"V+	c #77867F",
"W+	c #48874E",
"X+	c #2F892C",
"Y+	c #318625",
"Z+	c #2E882B",
"`+	c #298D33",
" @	c #2E882A",
".@	c #318826",
"+@	c #308627",
"@@	c #4E884F",
"#@	c #728480",
"$@	c #3F4253",
"%@	c #221D29",
"&@	c #311D23",
"*@	c #604750",
"=@	c #8A7888",
"-@	c #A296A9",
";@	c #A092A8",
">@	c #867889",
",@	c #766878",
"'@	c #615868",
")@	c #342C3E",
"!@	c #1A121D",
"~@	c #191320",
"{@	c #302A3C",
"]@	c #4F4E61",
"^@	c #787D95",
"/@	c #75788C",
"(@	c #4C4859",
"_@	c #473D4A",
":@	c #7A776C",
"<@	c #3E8934",
"[@	c #3A8B2E",
"}@	c #48882E",
"|@	c #46872F",
"1@	c #3A8A2D",
"2@	c #328524",
"3@	c #2F8B2B",
"4@	c #338724",
"5@	c #2D8631",
"6@	c #2A7035",
"7@	c #314043",
"8@	c #383C50",
"9@	c #343752",
"0@	c #302F46",
"a@	c #211C2A",
"b@	c #170A11",
"c@	c #3A1F1F",
"d@	c #4F3439",
"e@	c #5F4A58",
"f@	c #655D72",
"g@	c #6C647A",
"h@	c #675F74",
"i@	c #4A455C",
"j@	c #3F384E",
"k@	c #291D2B",
"l@	c #833826",
"m@	c #B6934D",
"n@	c #663727",
"o@	c #312937",
"p@	c #42414F",
"q@	c #616474",
"r@	c #74757D",
"s@	c #73897E",
"t@	c #7D8E88",
"u@	c #737883",
"v@	c #867A82",
"w@	c #8E9087",
"x@	c #4E9047",
"y@	c #328623",
"z@	c #428E2C",
"A@	c #5E8365",
"B@	c #3D4145",
"C@	c #251D2F",
"D@	c #3A3A55",
"E@	c #3F3A58",
"F@	c #403756",
"G@	c #3D3A56",
"H@	c #150F17",
"I@	c #12080E",
"J@	c #12040D",
"K@	c #190B14",
"L@	c #322F3D",
"M@	c #54546A",
"N@	c #5D5D75",
"O@	c #78798F",
"P@	c #64657A",
"Q@	c #4D485B",
"R@	c #6B5156",
"S@	c #A79567",
"T@	c #825539",
"U@	c #3A292C",
"V@	c #383240",
"W@	c #575A6C",
"X@	c #515163",
"Y@	c #474455",
"Z@	c #63617A",
"`@	c #40404C",
" #	c #504D6E",
".#	c #7B4B47",
"+#	c #787F5E",
"@#	c #388426",
"##	c #577A49",
"$#	c #434246",
"%#	c #4F353B",
"&#	c #582C39",
"*#	c #6F363E",
"=#	c #7B3C41",
"-#	c #783637",
";#	c #61312F",
">#	c #4F3D44",
",#	c #6B646E",
"'#	c #675E64",
")#	c #5A5057",
"!#	c #4A4149",
"~#	c #241E2A",
"{#	c #383645",
"]#	c #636476",
"^#	c #7E7F92",
"/#	c #727388",
"(#	c #616073",
"_#	c #534E60",
":#	c #4F4A5C",
"<#	c #5D596C",
"[#	c #5D576C",
"}#	c #443F55",
"|#	c #4D4963",
"1#	c #6E6B7F",
"2#	c #747287",
"3#	c #6D6C84",
"4#	c #72728E",
"5#	c #4C3845",
"6#	c #9B887D",
"7#	c #5A8C30",
"8#	c #515751",
"9#	c #272033",
"0#	c #2E233F",
"a#	c #312948",
"b#	c #342C4D",
"c#	c #352D51",
"d#	c #393155",
"e#	c #2D223B",
"f#	c #1A0D15",
"g#	c #282128",
"h#	c #423A41",
"i#	c #524852",
"j#	c #564D58",
"k#	c #2C2331",
"l#	c #241C2A",
"m#	c #1E1722",
"n#	c #220F1A",
"o#	c #53222B",
"p#	c #613744",
"q#	c #615364",
"r#	c #51495F",
"s#	c #4D4861",
"t#	c #45415D",
"u#	c #403A56",
"v#	c #463E55",
"w#	c #4F495F",
"x#	c #605B71",
"y#	c #585166",
"z#	c #51495D",
"A#	c #392C35",
"B#	c #847062",
"C#	c #55842C",
"D#	c #272334",
"E#	c #28253A",
"F#	c #2C2541",
"G#	c #32284E",
"H#	c #362E51",
"I#	c #352644",
"J#	c #301A2C",
"K#	c #2E0F18",
"L#	c #230B11",
"M#	c #160910",
"N#	c #251F2A",
"O#	c #3B3345",
"P#	c #524F69",
"Q#	c #555269",
"R#	c #322D42",
"S#	c #2F2C3B",
"T#	c #3B1822",
"U#	c #600E06",
"V#	c #691307",
"W#	c #60120A",
"X#	c #5E1616",
"Y#	c #5F1E23",
"Z#	c #5D2D3A",
"`#	c #573D51",
" $	c #514153",
".$	c #5B4D57",
"+$	c #A2796D",
"@$	c #B66D5E",
"#$	c #A94330",
"$$	c #743128",
"%$	c #7C6F5C",
"&$	c #46862B",
"*$	c #241D3A",
"=$	c #272439",
"-$	c #302745",
";$	c #372E4F",
">$	c #3A2F47",
",$	c #5C323E",
"'$	c #5F393C",
")$	c #5A2B1D",
"!$	c #552A20",
"~$	c #50211F",
"{$	c #47252F",
"]$	c #545166",
"^$	c #66657D",
"/$	c #6B6A84",
"($	c #4F4F66",
"_$	c #424158",
":$	c #524152",
"<$	c #6E1A18",
"[$	c #93250B",
"}$	c #851E0D",
"|$	c #671206",
"1$	c #812010",
"2$	c #8F635F",
"3$	c #8D8579",
"4$	c #8F7E5A",
"5$	c #998D61",
"6$	c #B88F69",
"7$	c #C67A62",
"8$	c #C48274",
"9$	c #C67150",
"0$	c #84947E",
"a$	c #358727",
"b$	c #322A42",
"c$	c #312B4A",
"d$	c #343151",
"e$	c #3B395B",
"f$	c #3C3A5E",
"g$	c #3E3651",
"h$	c #2C2636",
"i$	c #14070E",
"j$	c #14090F",
"k$	c #1C0A11",
"l$	c #250E16",
"m$	c #2B1011",
"n$	c #38151B",
"o$	c #52485A",
"p$	c #737B9B",
"q$	c #595B7A",
"r$	c #544D61",
"s$	c #A85755",
"t$	c #DF6A1E",
"u$	c #D2621D",
"v$	c #A63311",
"w$	c #7F2C20",
"x$	c #8D9681",
"y$	c #408938",
"z$	c #378526",
"A$	c #378625",
"B$	c #3A8527",
"C$	c #458C37",
"D$	c #869B84",
"E$	c #CDA07C",
"F$	c #6D9067",
"G$	c #2D882C",
"H$	c #372C50",
"I$	c #382E52",
"J$	c #3A3153",
"K$	c #3F395C",
"L$	c #362F4C",
"M$	c #221B2B",
"N$	c #292331",
"O$	c #201017",
"P$	c #431C17",
"Q$	c #642C1B",
"R$	c #733C21",
"S$	c #76492B",
"T$	c #6A414C",
"U$	c #584D66",
"V$	c #54536B",
"W$	c #4C4D6A",
"X$	c #423F57",
"Y$	c #97666C",
"Z$	c #F19945",
"`$	c #FBC73A",
" %	c #EFA02D",
".%	c #B64E21",
"+%	c #969195",
"@%	c #749676",
"#%	c #318426",
"$%	c #318523",
"%%	c #308A29",
"&%	c #4A8A4E",
"*%	c #999E80",
"=%	c #32893D",
"-%	c #258E36",
";%	c #352B4E",
">%	c #392F51",
",%	c #392F50",
"'%	c #352E4F",
")%	c #2A223C",
"!%	c #3E3857",
"~%	c #535267",
"{%	c #A44E21",
"]%	c #D37B37",
"^%	c #EBBD5E",
"/%	c #F3E563",
"(%	c #ECE66C",
"_%	c #907449",
":%	c #622D1D",
"<%	c #4B2E37",
"[%	c #403F55",
"}%	c #3A394D",
"|%	c #402F3F",
"1%	c #B0664E",
"2%	c #F7C53B",
"3%	c #FCDC49",
"4%	c #F4B635",
"5%	c #C77754",
"6%	c #B09A8C",
"7%	c #398944",
"8%	c #278730",
"9%	c #2A822A",
"0%	c #33882B",
"a%	c #2E8637",
"b%	c #238834",
"c%	c #238734",
"d%	c #342A4A",
"e%	c #382F4E",
"f%	c #3B3151",
"g%	c #2B223A",
"h%	c #362E4E",
"i%	c #5B5B7A",
"j%	c #604857",
"k%	c #E98739",
"l%	c #F8BF4D",
"m%	c #F4E181",
"n%	c #D0C783",
"o%	c #7B775A",
"p%	c #4C423E",
"q%	c #3A292A",
"r%	c #281D23",
"s%	c #221B23",
"t%	c #3F3B4B",
"u%	c #464153",
"v%	c #74535F",
"w%	c #CD7D41",
"x%	c #F8DF50",
"y%	c #FDED55",
"z%	c #F1B93F",
"A%	c #C4705D",
"B%	c #8F9273",
"C%	c #36882A",
"D%	c #348B24",
"E%	c #368823",
"F%	c #328A27",
"G%	c #2C892D",
"H%	c #278A32",
"I%	c #3A314D",
"J%	c #3E3457",
"K%	c #332A47",
"L%	c #312941",
"M%	c #4B4969",
"N%	c #646C8B",
"O%	c #A15739",
"P%	c #E6AA59",
"Q%	c #FCE56C",
"R%	c #FAEE78",
"S%	c #9EAA86",
"T%	c #749674",
"U%	c #6F9378",
"V%	c #789280",
"W%	c #6E7671",
"X%	c #3C3C40",
"Y%	c #281E26",
"Z%	c #392D3B",
"`%	c #483643",
" &	c #B27677",
".&	c #EAB77B",
"+&	c #FCF058",
"@&	c #FDF254",
"#&	c #EB9D40",
"$&	c #CD8672",
"%&	c #7F926C",
"&&	c #378926",
"*&	c #4C8723",
"=&	c #35294C",
"-&	c #423659",
";&	c #362D49",
">&	c #3E3552",
",&	c #525072",
"'&	c #6C768F",
")&	c #C96735",
"!&	c #EABA66",
"~&	c #F7EB93",
"{&	c #E7E091",
"]&	c #498C35",
"^&	c #258430",
"/&	c #258634",
"(&	c #3F893E",
"_&	c #596E4F",
":&	c #50322E",
"<&	c #543B40",
"[&	c #544C57",
"}&	c #7C5E6D",
"|&	c #C88075",
"1&	c #F5CB49",
"2&	c #FEF95D",
"3&	c #F7D745",
"4&	c #DD9462",
"5&	c #BF988D",
"6&	c #548B3D",
"7&	c #518723",
"8&	c #498222",
"9&	c #358B24",
"0&	c #322940",
"a&	c #423556",
"b&	c #362D4A",
"c&	c #403857",
"d&	c #524C71",
"e&	c #5F667E",
"f&	c #C06533",
"g&	c #F6C852",
"h&	c #F7E478",
"i&	c #D9D89B",
"j&	c #508B32",
"k&	c #3E8623",
"l&	c #2F8728",
"m&	c #258631",
"n&	c #31832E",
"o&	c #687E54",
"p&	c #765E5D",
"q&	c #4E4356",
"r&	c #443647",
"s&	c #A5727D",
"t&	c #E8AB4E",
"u&	c #FDEE59",
"v&	c #FAE34D",
"w&	c #E5883C",
"x&	c #D3987E",
"y&	c #688A56",
"z&	c #358221",
"A&	c #438A23",
"B&	c #438722",
"C&	c #2D293C",
"D&	c #3D334D",
"E&	c #3D3352",
"F&	c #3E3855",
"G&	c #4F4464",
"H&	c #514F71",
"I&	c #884C37",
"J&	c #EEB948",
"K&	c #FEE765",
"L&	c #EEEA8A",
"M&	c #6F9453",
"N&	c #538A23",
"O&	c #408322",
"P&	c #368624",
"Q&	c #3F8925",
"R&	c #368124",
"S&	c #3B8028",
"T&	c #758E6F",
"U&	c #816C6D",
"V&	c #4C2022",
"W&	c #916B75",
"X&	c #DE9060",
"Y&	c #FBD14D",
"Z&	c #F8E55C",
"`&	c #EDA33C",
" *	c #D97B4F",
".*	c #738A5B",
"+*	c #397C22",
"@*	c #468622",
"#*	c #4E8723",
"$*	c #538522",
"%*	c #323145",
"&*	c #362F53",
"**	c #3D3256",
"=*	c #474257",
"-*	c #433D5C",
";*	c #5F6282",
">*	c #5F434F",
",*	c #CA8B43",
"'*	c #F0CB67",
")*	c #F6EE8C",
"!*	c #95A284",
"~*	c #498727",
"{*	c #468422",
"]*	c #478823",
"^*	c #4D8723",
"/*	c #538823",
"(*	c #548628",
"_*	c #768C6B",
":*	c #6F5651",
"<*	c #573843",
"[*	c #CB7970",
"}*	c #F39452",
"|*	c #FAAA3A",
"1*	c #F6C74E",
"2*	c #EAA455",
"3*	c #AB998E",
"4*	c #A89058",
"5*	c #598330",
"6*	c #528623",
"7*	c #474959",
"8*	c #2C293D",
"9*	c #393251",
"0*	c #4D4A55",
"a*	c #3D354F",
"b*	c #52516E",
"c*	c #6F687B",
"d*	c #D6883B",
"e*	c #FAD05D",
"f*	c #F2E48F",
"g*	c #C4C69D",
"h*	c #4C874A",
"i*	c #318221",
"j*	c #318121",
"k*	c #358823",
"l*	c #3A8B24",
"m*	c #3D8422",
"n*	c #3D8622",
"o*	c #448524",
"p*	c #537A2F",
"q*	c #33221F",
"r*	c #AB7575",
"s*	c #DF8574",
"t*	c #E86A34",
"u*	c #EE9351",
"v*	c #F3C551",
"w*	c #DE9F6E",
"x*	c #E28C3A",
"y*	c #7A6228",
"z*	c #447C21",
"A*	c #398722",
"B*	c #378622",
"C*	c #1B1723",
"D*	c #201726",
"E*	c #352B4C",
"F*	c #3F3A50",
"G*	c #484555",
"H*	c #403555",
"I*	c #524A6A",
"J*	c #A1583C",
"K*	c #F7C150",
"L*	c #FCE368",
"M*	c #EEE88F",
"N*	c #8EA282",
"O*	c #378829",
"P*	c #338823",
"Q*	c #348C24",
"R*	c #488A41",
"S*	c #413B35",
"T*	c #62474D",
"U*	c #C48E8B",
"V*	c #DA9C77",
"W*	c #BC9D7B",
"X*	c #C8BE7A",
"Y*	c #ECCA4D",
"Z*	c #AF7A36",
"`*	c #B87026",
" =	c #7C541F",
".=	c #4A7823",
"+=	c #358824",
"@=	c #100C12",
"#=	c #150810",
"$=	c #1F1529",
"%=	c #302945",
"&=	c #403B51",
"*=	c #3F3550",
"==	c #443A5C",
"-=	c #483352",
";=	c #B7753A",
">=	c #EDC55D",
",=	c #FBE973",
"'=	c #DCDC95",
")=	c #6B946B",
"!=	c #328224",
"~=	c #318725",
"{=	c #2E8836",
"]=	c #7C9684",
"^=	c #816541",
"/=	c #3A2B26",
"(=	c #735351",
"_=	c #B99B7D",
":=	c #5C8432",
"<=	c #6F924F",
"[=	c #B7A339",
"}=	c #BFA249",
"|=	c #F5C34D",
"1=	c #ED9A32",
"2=	c #CE792A",
"3=	c #867C2D",
"4=	c #485A4E",
"5=	c #1C1017",
"6=	c #1B0C14",
"7=	c #190E19",
"8=	c #2A2136",
"9=	c #322743",
"0=	c #463E67",
"a=	c #804246",
"b=	c #EA9440",
"c=	c #F0C261",
"d=	c #F6EC97",
"e=	c #CACC9C",
"f=	c #5E906E",
"g=	c #2E862B",
"h=	c #2F8325",
"i=	c #328724",
"j=	c #5D906B",
"k=	c #A1A085",
"l=	c #9F997C",
"m=	c #796A63",
"n=	c #7D5D37",
"o=	c #557B35",
"p=	c #2C852B",
"q=	c #308428",
"r=	c #9B8427",
"s=	c #DF5D1F",
"t=	c #C5A95A",
"u=	c #FCE661",
"v=	c #FBBB40",
"w=	c #EB902C",
"x=	c #628E6D",
"y=	c #4D4D4D",
"z=	c #1D131C",
"A=	c #201216",
"B=	c #140611",
"C=	c #231625",
"D=	c #2C2036",
"E=	c #383152",
"F=	c #595878",
"G=	c #B86C3E",
"H=	c #F7BD49",
"I=	c #FCE360",
"J=	c #F9F083",
"K=	c #B7BB9D",
"L=	c #508D59",
"M=	c #2C872C",
"N=	c #328825",
"O=	c #418B42",
"P=	c #498E4D",
"Q=	c #919A95",
"R=	c #979077",
"S=	c #898A60",
"T=	c #2F8936",
"U=	c #228131",
"V=	c #29872E",
"W=	c #35862A",
"X=	c #898E2C",
"Y=	c #D1B850",
"Z=	c #FDF556",
"`=	c #FBE459",
" -	c #FBDC5C",
".-	c #2F8836",
"+-	c #4A6A4E",
"@-	c #1B111A",
"#-	c #271B1E",
"$-	c #1E1017",
"%-	c #14060D",
"&-	c #1C0917",
"*-	c #291B33",
"=-	c #414160",
"--	c #584A59",
";-	c #BE8045",
">-	c #F2C751",
",-	c #FCE86F",
"'-	c #F1EC8A",
")-	c #9AA98C",
"!-	c #388A2C",
"~-	c #368923",
"{-	c #418823",
"]-	c #388D2F",
"^-	c #629269",
"/-	c #468C47",
"(-	c #5F8E48",
"_-	c #2D8227",
":-	c #348A24",
"<-	c #7D842B",
"[-	c #E2A134",
"}-	c #F8A839",
"|-	c #F7CA52",
"1-	c #30802F",
"2-	c #1C2C1B",
"3-	c #251C1D",
"4-	c #27191F",
"5-	c #1A0F15",
"6-	c #13050C",
"7-	c #18030C",
"8-	c #1F1224",
"9-	c #3E4551",
"0-	c #714B43",
"a-	c #E2B740",
"b-	c #F0CA5A",
"c-	c #F1E173",
"d-	c #D0D098",
"e-	c #4A8A44",
"f-	c #558B24",
"g-	c #358C25",
"h-	c #348924",
"i-	c #318828",
"j-	c #29852D",
"k-	c #2B842B",
"l-	c #3B8A24",
"m-	c #528923",
"n-	c #75893A",
"o-	c #D99D3D",
"p-	c #F2A130",
"  . + @ # $ % & * = - ; > , ' ) ! ~ { ] ^ / ( _ : < [ } | 1 2 3 ",
"4 5 6 7 8 9 0 a b c d e f g h i j k l m n o p q r s t u v w x y ",
"z A B C D E F G H I J K L M N O P Q R S T U V W X Y Z `  ...+.@.",
"#.$.%.&.*.=.-.;.>.,.'.).!.~.{.].^./.(._.:.<.[.}.|.1.2.3.4.5.6.7.",
"^ 8.9.0.] a.b.c.d.e.f.g.h.i.j.k.l.m.n.o.p.q.r.s.t.u.3 v.w.x.3 q.",
"y.z.A.B.C.D.E.F.G.H.I.J.K.L.M.N.O.P.Q.R.S.T.U.V.W.X.u.Y.Z.`. +.+",
"++@+#+$+%+&+*+=+-+;+>+,+'+)+!+~+{+]+^+/+(+_+:+<+X.[+}+|+1+2+3+4+",
"5+6+7+8+9+0+a+b+c+d+e+f+g+h+i+j+k+l+m+n+o+p+q+r+s+t+u+v+w+x+y+y+",
"z+A+x+B+C+D+E+F+G+H+I+J+K+L+M+N+O+P+Q+R+S+T+U+V+W+X+Y+r.r.Z+`+z+",
" @.@+@@@#@$@%@&@*@=@-@;@>@,@'@)@!@~@{@]@^@/@(@_@:@<@[@}@|@1@2@3@",
"4@5@6@7@8@9@0@a@b@c@d@e@f@g@h@i@j@k@l@m@n@o@p@q@r@s@t@u@v@w@x@y@",
"z@A@B@C@D@E@F@G@H@I@J@K@L@M@N@O@P@Q@R@S@T@U@V@W@X@Y@Z@`@ #.#+#@#",
"##$#%#&#*#=#-#;#>#,#'#)#!#~#{#]#^#/#(#_#:#<#[#}#|#1#2#3#4#5#6#7#",
"8#9#0#a#b#c#d#e#f#g#h#i#j#k#l#m#n#o#p#q#r#s#t#u#v#w#x#y#z#A#B#C#",
"D#E#F#G#H#I#J#K#L#M#N#O#P#Q#R#S#T#U#V#W#X#Y#Z#`# $.$+$@$#$$$%$&$",
"*$=$-$;$>$,$'$)$!$~${$]$^$/$($_$:$<$[$}$|$1$2$3$4$5$6$7$8$9$0$a$",
"b$c$d$e$f$g$h$i$j$k$l$m$n$o$p$q$r$s$t$u$v$w$x$y$z$A$B$C$D$E$F$G$",
"H$I$J$K$L$M$N$O$P$Q$R$S$T$U$V$W$X$Y$Z$`$ %.%+%@%#%$% +%%&%*%=%-%",
";%>%,%'%)%!%~%{%]%^%/%(%_%:%<%[%}%|%1%2%3%4%5%6%7%8%9%y@0%a%b%c%",
"d%e%f%g%h%i%j%k%l%m%n%o%p%q%r%s%t%u%v%w%x%y%z%A%B%C%D%E%] F%G%H%",
"I%J%K%L%M%N%O%P%Q%R%S%T%U%V%W%X%Y%Z%`% &.&+&@&#&$&%&&&*&~ u.D%E.",
"=&-&;&>&,&'&)&!&~&{&]&.@^&/&(&_&:&<&[&}&|&1&2&3&4&5&6&7&8&u.9&W.",
"0&a&b&c&d&e&f&g&h&i&j&k&l&H%m&n&o&p&q&r&s&t&u&v&w&x&y&E%v z&A&B&",
"C&D&E&F&G&H&I&J&K&L&M&N&O&P&Q&R&S&T&U&V&W&X&Y&Z&`& *.*+*@*#*$*z ",
"%*&***=*-*;*>*,*'*)*!*~*{*]*^*/*4.(*_*:*<*[*}*|*1*2*3*4*5*5.6*5.",
"7*8*9*0*a*b*c*d*e*f*g*h*i*j*k*l*m*n*o*p*q*r*s*t*u*v*w*x*y*z*A*B*",
"C*D*E*F*G*H*I*J*K*L*M*N*O*P*q.i*9&v+Q*R*S*T*U*V*W*X*Y*Z*`* =.=+=",
"@=#=$=%=&=*===-=;=>=,='=)=!=[+r.~=@ {=]=^=/=(=_=:=<=[=}=|=1=2=3=",
"4=5=6=7=8=0&9=0=a=b=c=d=e=f=g=h=i=G$j=k=l=m=n=o=p=q=r=s=t=u=v=w=",
"x=y=z=A=B=C=D=E=F=G=H=I=J=K=L=M=N=y@O=P=Q=R=S=T=U=V=W=X=Y=Z=`= -",
".-+-@-#-$-%-&-*-=---;->-,-'-)-!-~-{-[+]-^-/-(-_-G$v+:-n*<-[-}-|-",
":-1-2-3-4-5-6-7-8-9-0-a-b-c-d-e-*.f-a.:-g-h-i-j-k-r.l-m-*&n-o-p-"};
