/* XPM */
static char * player_sprite1_32_xpm[] = {
"32 32 858 2",
"  	c #358A23",
". 	c #2C872B",
"+ 	c #238432",
"@ 	c #298A31",
"# 	c #328624",
"$ 	c #438723",
"% 	c #488823",
"& 	c #3C8021",
"* 	c #328522",
"= 	c #358723",
"- 	c #338724",
"; 	c #28862F",
"> 	c #238834",
", 	c #2C862B",
"' 	c #348723",
") 	c #488723",
"! 	c #488923",
"~ 	c #357F20",
"{ 	c #318422",
"] 	c #338823",
"^ 	c #2F8526",
"/ 	c #248531",
"( 	c #258933",
"_ 	c #2F8627",
": 	c #3A8623",
"< 	c #498A24",
"[ 	c #438422",
"} 	c #328121",
"| 	c #358923",
"1 	c #348622",
"2 	c #508A23",
"3 	c #358623",
"4 	c #2D862A",
"5 	c #2A882F",
"6 	c #29842D",
"7 	c #308224",
"8 	c #317E20",
"9 	c #448622",
"0 	c #4D8823",
"a 	c #508723",
"b 	c #468823",
"c 	c #328524",
"d 	c #2C882D",
"e 	c #2A872F",
"f 	c #2A812A",
"g 	c #318021",
"h 	c #308021",
"i 	c #22771E",
"j 	c #1E821F",
"k 	c #1E881F",
"l 	c #1E841F",
"m 	c #217B1E",
"n 	c #247B24",
"o 	c #26832E",
"p 	c #2A862E",
"q 	c #2D8127",
"r 	c #317F21",
"s 	c #348422",
"t 	c #3C8522",
"u 	c #4D8A24",
"v 	c #4C8422",
"w 	c #568923",
"x 	c #508823",
"y 	c #458725",
"z 	c #4E8B36",
"A 	c #628E53",
"B 	c #6A8E61",
"C 	c #608A4E",
"D 	c #5B8841",
"E 	c #57872B",
"F 	c #548522",
"G 	c #568B24",
"H 	c #4A8622",
"I 	c #448A24",
"J 	c #498823",
"K 	c #448523",
"L 	c #448422",
"M 	c #2C781F",
"N 	c #24A225",
"O 	c #34BF34",
"P 	c #37C337",
"Q 	c #2DB42E",
"R 	c #1F9B21",
"S 	c #1D831E",
"T 	c #337B21",
"U 	c #458623",
"V 	c #448221",
"W 	c #4E8522",
"X 	c #528522",
"Y 	c #578A23",
"Z 	c #3A8123",
"` 	c #6C8C64",
" .	c #B9BDB8",
"..	c #D7D7D7",
"+.	c #E2E3E2",
"@.	c #D2D3D2",
"#.	c #C4C6C4",
"$.	c #A8AFA4",
"%.	c #5D8845",
"&.	c #478322",
"*.	c #3A8121",
"=.	c #397F20",
"-.	c #3A8021",
";.	c #448723",
">.	c #4D8A23",
",.	c #4B7F21",
"'.	c #27851F",
").	c #3CB832",
"!.	c #3CC539",
"~.	c #39C639",
"{.	c #39C539",
"].	c #29AF2A",
"^.	c #1D9F1E",
"/.	c #1F841E",
"(.	c #498121",
"_.	c #528622",
":.	c #518321",
"<.	c #4C8522",
"[.	c #4A8322",
"}.	c #338722",
"|.	c #528B4B",
"1.	c #C3C5C2",
"2.	c #F1F1F1",
"3.	c #FEFEFE",
"4.	c #FCFCFC",
"5.	c #FBFBFB",
"6.	c #E0E0E0",
"7.	c #8B9C8A",
"8.	c #39872C",
"9.	c #348823",
"0.	c #318623",
"a.	c #2F8121",
"b.	c #327823",
"c.	c #89882D",
"d.	c #BAAD45",
"e.	c #A9BA4C",
"f.	c #68BA3A",
"g.	c #38C337",
"h.	c #2EB72F",
"i.	c #1FA220",
"j.	c #1DA01E",
"k.	c #1D8B1E",
"l.	c #308121",
"m.	c #358422",
"n.	c #398723",
"o.	c #388823",
"p.	c #338622",
"q.	c #2E8328",
"r.	c #779275",
"s.	c #EDEDED",
"t.	c #F8F8F8",
"u.	c #F3F3F3",
"v.	c #E5E5E5",
"w.	c #C2C3C2",
"x.	c #698F68",
"y.	c #308525",
"z.	c #318222",
"A.	c #328422",
"B.	c #25741F",
"C.	c #218022",
"D.	c #366827",
"E.	c #A3862E",
"F.	c #62622C",
"G.	c #867B30",
"H.	c #B2A23A",
"I.	c #2B9523",
"J.	c #1E9B1F",
"K.	c #1E9D1F",
"L.	c #1E991F",
"M.	c #1F7D21",
"N.	c #338A25",
"O.	c #318926",
"P.	c #328723",
"Q.	c #318928",
"R.	c #248934",
"S.	c #5F8953",
"T.	c #ABA79C",
"U.	c #C1C1BF",
"V.	c #D3D3D2",
"W.	c #D8D8D8",
"X.	c #D2D2D2",
"Y.	c #7A957C",
"Z.	c #268A34",
"`.	c #348623",
" +	c #377924",
".+	c #2A7B21",
"++	c #408E2B",
"@+	c #B4A03F",
"#+	c #A39548",
"$+	c #947E34",
"%+	c #8F762D",
"&+	c #2D382D",
"*+	c #2B3A2C",
"=+	c #2B392C",
"-+	c #2A3E2B",
";+	c #2C7F22",
">+	c #278A26",
",+	c #1E7424",
"'+	c #248B34",
")+	c #25822F",
"!+	c #258B34",
"~+	c #238935",
"{+	c #678434",
"]+	c #D4CCB8",
"^+	c #CCCBCA",
"/+	c #CCCCCC",
"(+	c #DFDFDF",
"_+	c #D9D9D9",
":+	c #E2E2E2",
"<+	c #7D987F",
"[+	c #258A36",
"}+	c #248633",
"|+	c #697B39",
"1+	c #B7855C",
"2+	c #A4784E",
"3+	c #7A6D3B",
"4+	c #5B812E",
"5+	c #839937",
"6+	c #A3A93D",
"7+	c #5B8F36",
"8+	c #377332",
"9+	c #30632F",
"0+	c #30672E",
"a+	c #2E7D2F",
"b+	c #2F9430",
"c+	c #299C2B",
"d+	c #1E8121",
"e+	c #1D7421",
"f+	c #248532",
"g+	c #238934",
"h+	c #268633",
"i+	c #7B8233",
"j+	c #DCCA9D",
"k+	c #E7E4DD",
"l+	c #E2E2E0",
"m+	c #BFBFBE",
"n+	c #DCDCDC",
"o+	c #739375",
"p+	c #3F8030",
"q+	c #6E7225",
"r+	c #91641F",
"s+	c #AC7034",
"t+	c #C5926B",
"u+	c #D3A57E",
"v+	c #A16F4B",
"w+	c #7F8359",
"x+	c #688F5D",
"y+	c #409032",
"z+	c #359C2F",
"A+	c #369E30",
"B+	c #369B2F",
"C+	c #338B29",
"D+	c #1E8320",
"E+	c #30831C",
"F+	c #21811D",
"G+	c #2C7F21",
"H+	c #2E882B",
"I+	c #298D33",
"J+	c #238633",
"K+	c #35882A",
"L+	c #9D8929",
"M+	c #DCB233",
"N+	c #E0B94D",
"O+	c #DEC380",
"P+	c #C2B496",
"Q+	c #D5D5D5",
"R+	c #E4E4E4",
"S+	c #AEB1AD",
"T+	c #698341",
"U+	c #9E6511",
"V+	c #BB6B0B",
"W+	c #AC6D2C",
"X+	c #B47E4A",
"Y+	c #DBAE82",
"Z+	c #ECC595",
"`+	c #C6966D",
" @	c #6F8E63",
".@	c #E6EAE3",
"+@	c #B38166",
"@@	c #9E704A",
"#@	c #987048",
"$@	c #A2754E",
"%@	c #9B7542",
"&@	c #6A7E17",
"*@	c #86610D",
"=@	c #58771C",
"-@	c #418723",
";@	c #348A23",
">@	c #2F8B2B",
",@	c #478624",
"'@	c #B8972C",
")@	c #DEB431",
"!@	c #DFB431",
"~@	c #DDB330",
"{@	c #D3B154",
"]@	c #BEBCB9",
"^@	c #E1E1E1",
"/@	c #D0D0D0",
"(@	c #7D8D76",
"_@	c #A06513",
":@	c #CA730A",
"<@	c #B56914",
"[@	c #C08C5B",
"}@	c #C59261",
"|@	c #BF895E",
"1@	c #DDB180",
"2@	c #DCAF80",
"3@	c #CFB1A0",
"4@	c #DAC2B7",
"5@	c #D4A67B",
"6@	c #E2B785",
"7@	c #DDB17E",
"8@	c #C89864",
"9@	c #A9723D",
"0@	c #B96A09",
"a@	c #B3690A",
"b@	c #687E1E",
"c@	c #4D8723",
"d@	c #358D24",
"e@	c #328623",
"f@	c #688825",
"g@	c #C8A32F",
"h@	c #DDB230",
"i@	c #E1B633",
"j@	c #E0B532",
"k@	c #DFB534",
"l@	c #BFAA78",
"m@	c #CCCBCB",
"n@	c #AEB3AE",
"o@	c #69813C",
"p@	c #BB6C0A",
"q@	c #CD750A",
"r@	c #B3691B",
"s@	c #E1B88C",
"t@	c #DEB288",
"u@	c #C38D65",
"v@	c #D4A477",
"w@	c #D09F73",
"x@	c #D7A87A",
"y@	c #DEB382",
"z@	c #E2B885",
"A@	c #CE9F6B",
"B@	c #B97830",
"C@	c #C1761C",
"D@	c #AD681A",
"E@	c #B6690D",
"F@	c #A5640C",
"G@	c #508320",
"H@	c #3A8422",
"I@	c #328321",
"J@	c #368322",
"K@	c #808425",
"L@	c #D9B031",
"M@	c #E0B531",
"N@	c #E1B632",
"O@	c #D9B038",
"P@	c #AF9D73",
"Q@	c #659063",
"R@	c #5E861A",
"S@	c #BC6D0A",
"T@	c #C87513",
"U@	c #BD8853",
"V@	c #D9AE7B",
"W@	c #DEB280",
"X@	c #D7A879",
"Y@	c #DBAE7D",
"Z@	c #DEB481",
"`@	c #CFA16C",
" #	c #BF8649",
".#	c #CD8026",
"+#	c #D07E1C",
"@#	c #A76731",
"##	c #C48F62",
"$#	c #B37E50",
"%#	c #637B21",
"&#	c #337F20",
"*#	c #3A8322",
"=#	c #458622",
"-#	c #548A24",
";#	c #978628",
">#	c #E0B533",
",#	c #E0B632",
"'#	c #DFB531",
")#	c #DDB331",
"!#	c #B2932C",
"~#	c #497D22",
"{#	c #367D1B",
"]#	c #AA660A",
"^#	c #CE760C",
"/#	c #D27F1C",
"(#	c #C37924",
"_#	c #BA7528",
":#	c #B97930",
"<#	c #BD7B30",
"[#	c #C17A29",
"}#	c #D18427",
"|#	c #DA8622",
"1#	c #D17911",
"2#	c #C26F0A",
"3#	c #BD8B5A",
"4#	c #DDB07F",
"5#	c #B4865B",
"6#	c #548224",
"7#	c #4C8221",
"8#	c #538622",
"9#	c #528422",
"0#	c #528321",
"a#	c #A38C37",
"b#	c #DBBE72",
"c#	c #DEBC5B",
"d#	c #E0B744",
"e#	c #DFB53B",
"f#	c #DFB537",
"g#	c #DDB337",
"h#	c #AB8F2A",
"i#	c #4E8523",
"j#	c #54741C",
"k#	c #A8640A",
"l#	c #CC750A",
"m#	c #CD760B",
"n#	c #D17A12",
"o#	c #D7811C",
"p#	c #D98522",
"q#	c #D98421",
"r#	c #D58019",
"s#	c #CF780F",
"t#	c #CD750B",
"u#	c #CB740A",
"v#	c #B0670A",
"w#	c #856A2E",
"x#	c #9D7C4C",
"y#	c #6E8334",
"z#	c #458723",
"A#	c #488522",
"B#	c #4D8623",
"C#	c #64802C",
"D#	c #588229",
"E#	c #438623",
"F#	c #5B7D23",
"G#	c #958838",
"H#	c #B8A672",
"I#	c #C7B893",
"J#	c #D3BF85",
"K#	c #D6BF77",
"L#	c #CEB364",
"M#	c #97882E",
"N#	c #5E791C",
"O#	c #8F6511",
"P#	c #AF670B",
"Q#	c #BF6D0A",
"R#	c #C9730A",
"S#	c #CC740A",
"T#	c #BA6C0A",
"U#	c #9B650C",
"V#	c #597E17",
"W#	c #238F1E",
"X#	c #26821F",
"Y#	c #24791F",
"Z#	c #25771F",
"`#	c #256E1F",
" $	c #77763A",
".$	c #B27B56",
"+$	c #A17449",
"@$	c #608330",
"#$	c #2A872D",
"$$	c #378524",
"%$	c #4E8423",
"&$	c #668125",
"*$	c #717D29",
"=$	c #73822B",
"-$	c #6C812C",
";$	c #4A882C",
">$	c #2E872A",
",$	c #2F8325",
"'$	c #30852D",
")$	c #457D27",
"!$	c #646E17",
"~$	c #756F12",
"{$	c #86680F",
"]$	c #98630C",
"^$	c #9D650B",
"/$	c #99660C",
"($	c #8A680E",
"_$	c #5A7C17",
":$	c #2D8D1C",
"<$	c #1E9B1E",
"[$	c #1C921E",
"}$	c #1C8D1E",
"|$	c #758146",
"1$	c #D0A375",
"2$	c #C7936A",
"3$	c #BB805C",
"4$	c #9B7A49",
"5$	c #248C35",
"6$	c #258632",
"7$	c #2D8328",
"8$	c #318624",
"9$	c #338824",
"0$	c #2D8A2C",
"a$	c #248A34",
"b$	c #258E36",
"c$	c #1C821F",
"d$	c #359220",
"e$	c #3F8922",
"f$	c #357E1F",
"g$	c #2D8D1E",
"h$	c #278F1D",
"i$	c #23921E",
"j$	c #1F961E",
"k$	c #1D991E",
"l$	c #1B791F",
"m$	c #1B851F",
"n$	c #1C8F1F",
"o$	c #1C961E",
"p$	c #1B8A1E",
"q$	c #A59862",
"r$	c #E3B986",
"s$	c #C69068",
"t$	c #AB7650",
"u$	c #228533",
"v$	c #238733",
"w$	c #248833",
"x$	c #27832E",
"y$	c #2E8528",
"z$	c #338723",
"A$	c #2D882B",
"B$	c #238532",
"C$	c #237730",
"D$	c #3C6C26",
"E$	c #AE9D3C",
"F$	c #BBA948",
"G$	c #BDAA48",
"H$	c #969D39",
"I$	c #269C1F",
"J$	c #1E981F",
"K$	c #218322",
"L$	c #236029",
"M$	c #228332",
"N$	c #207E2E",
"O$	c #1F7C2B",
"P$	c #207A27",
"Q$	c #1D751F",
"R$	c #6A7038",
"S$	c #C09166",
"T$	c #C59268",
"U$	c #A07A4E",
"V$	c #8D7946",
"W$	c #258833",
"X$	c #27852F",
"Y$	c #29862E",
"Z$	c #2B852B",
"`$	c #328724",
" %	c #358C24",
".%	c #368622",
"+%	c #2F8A2A",
"@%	c #2A882E",
"#%	c #258732",
"$%	c #26602D",
"%%	c #60532B",
"&%	c #AB8B2D",
"*%	c #574D2C",
"=%	c #75642D",
"-%	c #AA8C2F",
";%	c #394A2A",
">%	c #293F2B",
",%	c #2A392C",
"'%	c #2B332D",
")%	c #2A392D",
"!%	c #22762B",
"~%	c #318826",
"{%	c #338923",
"]%	c #307D21",
"^%	c #5A822D",
"/%	c #9F784A",
"(%	c #618337",
"_%	c #2C8A33",
":%	c #328825",
"<%	c #318A27",
"[%	c #2C8429",
"}%	c #3C8A23",
"|%	c #3E8723",
"1%	c #2F8423",
"2%	c #1E8820",
"3%	c #667D26",
"4%	c #BCA03E",
"5%	c #837437",
"6%	c #857130",
"7%	c #AC8D2E",
"8%	c #343B2C",
"9%	c #2B382D",
"0%	c #2A422B",
"a%	c #276028",
"b%	c #218723",
"c%	c #1C8C1E",
"d%	c #21751F",
"e%	c #2D8225",
"f%	c #4C8723",
"g%	c #498923",
"h%	c #3B8725",
"i%	c #368B24",
"j%	c #328926",
"k%	c #348B24",
"l%	c #29862D",
"m%	c #2B882D",
"n%	c #498723",
"o%	c #508622",
"p%	c #418322",
"q%	c #26A726",
"r%	c #1EA11F",
"s%	c #309E20",
"t%	c #82942F",
"u%	c #AAA042",
"v%	c #B5AD48",
"w%	c #768E27",
"x%	c #239021",
"y%	c #1F9620",
"z%	c #1E9B20",
"A%	c #218623",
"B%	c #2D8022",
"C%	c #3F8923",
"D%	c #518723",
"E%	c #498222",
"F%	c #358B24",
"G%	c #318321",
"H%	c #468A23",
"I%	c #2A892F",
"J%	c #2A852C",
"K%	c #348725",
"L%	c #368722",
"M%	c #328021",
"N%	c #3B8522",
"O%	c #3E8222",
"P%	c #2E8E26",
"Q%	c #2BA92B",
"R%	c #2DB12D",
"S%	c #207C21",
"T%	c #236E1F",
"U%	c #32AF2C",
"V%	c #21A01F",
"W%	c #24A824",
"X%	c #2AB02B",
"Y%	c #2BA82C",
"Z%	c #238727",
"`%	c #27822B",
" &	c #2F8327",
".&	c #368823",
"+&	c #358221",
"@&	c #438A23",
"#&	c #438722",
"$&	c #558924",
"%&	c #478723",
"&&	c #378322",
"*&	c #3A8925",
"=&	c #3B8525",
"-&	c #368021",
";&	c #3E7F20",
">&	c #478823",
",&	c #538522",
"'&	c #548823",
")&	c #478222",
"!&	c #307921",
"~&	c #19691D",
"{&	c #1A6B1E",
"]&	c #2AA62B",
"^&	c #2AAA2A",
"/&	c #2AA92A",
"(&	c #2AA42A",
"_&	c #2A9F2B",
":&	c #259227",
"<&	c #207820",
"[&	c #327C20",
"}&	c #368624",
"|&	c #3F8826",
"1&	c #388223",
"2&	c #387C20",
"3&	c #468622",
"4&	c #4E8723",
"5&	c #498522",
"6&	c #468723",
"7&	c #458422",
"8&	c #4C8A23",
"9&	c #528823",
"0&	c #518121",
"a&	c #538422",
"b&	c #4E8221",
"c&	c #478722",
"d&	c #3D7E21",
"e&	c #1E6920",
"f&	c #19681D",
"g&	c #1C6C1E",
"h&	c #3A7920",
"i&	c #447F21",
"j&	c #437C20",
"k&	c #2E701E",
"l&	c #1A691D",
"m&	c #246B24",
"n&	c #49852B",
"o&	c #528623",
"p&	c #338322",
"q&	c #318121",
"r&	c #318221",
"s&	c #338422",
"t&	c #388B24",
"u&	c #3A8522",
"v&	c #3E8522",
"w&	c #438522",
"x&	c #408622",
"y&	c #398923",
"z&	c #368522",
"A&	c #368229",
"B&	c #869B86",
"C&	c #7E9A7F",
"D&	c #5D845C",
"E&	c #3E8324",
"F&	c #3D8622",
"G&	c #3C8622",
"H&	c #397D34",
"I&	c #648866",
"J&	c #ACBAAD",
"K&	c #899E87",
"L&	c #368228",
"M&	c #378A23",
"N&	c #3D8522",
"O&	c #418522",
"P&	c #378622",
"Q&	c #318424",
"R&	c #3B882E",
"S&	c #BFC4BE",
"T&	c #D9DAD9",
"U&	c #7E8E7C",
"V&	c #368B27",
"W&	c #348C24",
"X&	c #37842B",
"Y&	c #8D9C8D",
"Z&	c #D1D2D1",
"`&	c #DEDEDD",
" *	c #799777",
".*	c #368627",
"+*	c #348A24",
"@*	c #358C25",
"#*	c #268932",
"$*	c #2D8429",
"%*	c #288830",
"&*	c #2C892C",
"**	c #258A34",
"=*	c #5F8C31",
"-*	c #898742",
";*	c #BAB9B3",
">*	c #AFB0AF",
",*	c #465346",
"'*	c #318426",
")*	c #288A31",
"!*	c #28872F",
"~*	c #2B8A2F",
"{*	c #3E8C47",
"]*	c #7B807C",
"^*	c #C1C2C1",
"/*	c #9E9E98",
"(*	c #888439",
"_*	c #628B29",
":*	c #2F892A",
"<*	c #288730",
"[*	c #278731",
"}*	c #298C32",
"|*	c #228734",
"1*	c #29852D",
"2*	c #2D872B",
"3*	c #2E8025",
"4*	c #318725",
"5*	c #308928",
"6*	c #258531",
"7*	c #238A35",
"8*	c #287332",
"9*	c #7B7032",
"0*	c #887332",
"a*	c #897439",
"b*	c #323734",
"c*	c #2B382C",
"d*	c #2C7720",
"e*	c #277A27",
"f*	c #1E782D",
"g*	c #1E7A2E",
"h*	c #1F7A2E",
"i*	c #2A422E",
"j*	c #373B38",
"k*	c #897435",
"l*	c #877232",
"m*	c #7B6E30",
"n*	c #2F6B2B",
"o*	c #28832F",
"p*	c #228433",
"q*	c #238734",
"r*	c #248431",
"s*	c #308827",
"t*	c #318927",
"u*	c #258430",
"v*	c #226F2E",
"w*	c #2A382D",
"x*	c #2E332D",
"y*	c #42412E",
"z*	c #32412D",
"A*	c #2A5B2D",
"B*	c #286525",
"C*	c #2A731E",
"D*	c #29721C",
"E*	c #267423",
"F*	c #1E742A",
"G*	c #1D742B",
"H*	c #1C722A",
"I*	c #20652A",
"J*	c #245D2B",
"K*	c #31442C",
"L*	c #2D332D",
"M*	c #2B342C",
"N*	c #2A6425",
"O*	c #28832D",
"P*	c #29872F",
"Q*	c #2F8829",
"R*	c #368C24",
"S*	c #3E8622",
"T*	c #338C26",
"U*	c #2E8227",
"V*	c #2A782B",
"W*	c #29682A",
"X*	c #2B6825",
"Y*	c #267425",
"Z*	c #29741F",
"`*	c #2C761D",
" =	c #2D751D",
".=	c #37741D",
"+=	c #2A711C",
"@=	c #2A7820",
"#=	c #247425",
"$=	c #227527",
"%=	c #237225",
"&=	c #257020",
"*=	c #277525",
"==	c #2C6A22",
"-=	c #2E6B26",
";=	c #377322",
">=	c #398021",
",=	c #318A28",
"'=	c #28852E",
")=	c #2E8527",
"!=	c #448A23",
"~=	c #548923",
"{=	c #408723",
"]=	c #348923",
"^=	c #338924",
"/=	c #2B842A",
"(=	c #27842E",
"_=	c #338522",
":=	c #4B8823",
"<=	c #348522",
"[=	c #308727",
"}=	c #2B842B",
"|=	c #3B8A24",
"1=	c #4A8823",
"  . + @ # $ % & *   = - ; > , ' ) ! ~ * { ] ^ / ( _ : < [ } | 1 ",
"2 3 4 5 6 7 8 = 9 0 a b c d e f g h i j k l m n o p q r s t u v ",
"w x y z A B C D E F w G H I J K L M N O P O Q R S T U V W X F Y ",
"& Z `  ...+.@.#.$.%.&.*.=.-.;.>.,.'.).!.~.~.{.].^./.(.a _.:.<.[.",
"}.|.1.2.3.4.4.5.6.7.8.* 9.}.0.a.b.c.d.e.f.g.h.i.j.k.l.m.n.o.1 p.",
"q.r.+.s.5.t.3.u.v.w.x.y.z.A.B.C.D.E.F.G.H.I.J.K.L.M.{ N.O.O.P.Q.",
"R.S.T.U.V.s.4.v.W.X.Y.Z.. `. +.+++@+#+$+%+&+*+*+=+-+;+>+,+'+)+!+",
"~+{+]+6.^+/+s.(+_+:+<+[+}+|+1+2+3+4+5+6+7+8+9+0+a+b+c+d+e+f+g+g+",
"h+i+j+k+l+m+v.(+n+X.o+p+q+r+s+t+u+v+w+x+y+z+A+B+C+D+E+F+G+H+I+J+",
"K+L+M+N+O+P+Q+R+..S+T+U+V+W+X+Y+Z+`+ @.@+@@@#@$@%@&@*@=@-@;@c >@",
",@'@)@!@~@{@]@^@/@(@_@:@<@[@}@|@1@2@3@4@5@6@7@8@9@0@a@b@c@' d@e@",
"f@g@h@i@j@k@l@m@n@o@p@q@r@s@t@u@v@w@x@y@z@A@B@C@D@E@F@G@H@I@o.J@",
"K@L@j@j@M@N@O@P@Q@R@S@q@T@U@V@W@X@Y@Z@`@ #.#+#@###$#%#&#*#=#-#G ",
";#>#~@j@,#'#)#!#~#{#]#q@^#/#(#_#:#<#[#}#|#1#2#3#4#5#6#7#X 8#9#0#",
"a#b#c#d#e#f#g#h#i#j#k#l#q@m#n#o#p#q#r#s#t#u#v#w#x#y#z#A#B#C#D#E#",
"F#G#H#I#J#K#L#M#: N#O#P#Q#R#u#S#S#S#u#R#T#U#V#W#X#Y#Z#`# $.$+$@$",
"#$$$%$&$*$=$-$;$>$,$'$)$!$~${$]$^$/$($~$_$:$<$j.^.[$}$|$1$2$3$4$",
"5$6$7$8${ 9$0$+ a$R.b$a$c$d$e$f$g$h$i$j$k$l$m$n$o$p$}$q$r$X@s$t$",
"u$u$v$w$x$y$z$A$B$u$g+C$D$E$F$G$H$I$K.J$K$L$M$N$O$P$Q$R$S$T$U$V$",
"W$X$Y$Z$`$ %.%z$+%@%#%$%%%&%*%=%-%;%>%,%'%)%!%Y$x$~%{%]%^%/%(%_%",
":%<%[%y.* }%x |%{%1%M.2%3%4%5%6%7%8%9%0%a%b%c%d%e%z$| f%g%h%i%j%",
"k%l%M$m%9.n%o%p%e@C.q%r%s%t%u%v%w%x%y%K.^.j.j.z%A%B%C%D%E%9.F%G%",
"H%c I%W$J%K%L%M%N%O%P%Q%R%S%T%U%V%r%r%r%i.W%X%Y%Z%`% &.&s +&@&#&",
"$&%&&&*&=&-&;&>&D%,&'&)&!&~&{&]&^&^&/&(&_&:&<&[&}&|&1&2&3&4&,&w ",
"5&6&7&8&9&_.X 0&a&_.b&c&d&e&f&g&h&i&j&k&l&f&m&n&g%a 8#X 9#0#o&:.",
"p&q&r&s&t&u&v&w&x&y&z&q&A&B&C&D&E&F&w&G&H&I&J&K&L&M&n.N&$ O&n.P&",
"Q&* ] z$A.] ] k%F%r&`$e@R&S&T&U&V&9$W&{%X&Y&Z&`& *.** ] +*@** 9$",
"#*$*{ { * +*@%%*x$&***=*-*;*>*,*'*)*!*6 ~*{*]*^*/*(*_*:*<*[*J%}*",
"|*> 1*2*3*4*5*6*7*M$8*9*0*a*b*c*d*e*f*g*g*h*i*j*k*l*m*n*o*> u$5$",
"> p*q*r*#$s*z$t*u*v*w*x*y*z*A*B*C*D*E*F*G*H*I*J*K*y*L*M*N*O*'+q*",
"P*4 $*Q** R*S*z&T*U*V*W*X*Y*Z*`* =.=+=@=#=$=%=&=*===-=;=>=9$,=5 ",
"+*2*'=)=z$!=~={=]= %^=j%/=(=`$_=:=~=<=] +*z$[=6 }=z$|=9&1=  F%9$"};
