/* XPM */
static char * player_dead_32_xpm[] = {
"32 32 798 2",
"  	c #358A23",
". 	c #2C872B",
"+ 	c #238432",
"@ 	c #298A31",
"# 	c #328624",
"$ 	c #438723",
"% 	c #488823",
"& 	c #3C8021",
"* 	c #328522",
"= 	c #358723",
"- 	c #338724",
"; 	c #28862F",
"> 	c #238834",
", 	c #2C862B",
"' 	c #348723",
") 	c #488723",
"! 	c #488923",
"~ 	c #358021",
"{ 	c #338722",
"] 	c #368A24",
"^ 	c #308626",
"/ 	c #248531",
"( 	c #258933",
"_ 	c #2F8627",
": 	c #3A8623",
"< 	c #498A24",
"[ 	c #438422",
"} 	c #328121",
"| 	c #358923",
"1 	c #348622",
"2 	c #508A23",
"3 	c #358623",
"4 	c #2D862A",
"5 	c #2A882F",
"6 	c #29842D",
"7 	c #308224",
"8 	c #317E20",
"9 	c #448622",
"0 	c #4D8823",
"a 	c #508723",
"b 	c #468823",
"c 	c #328524",
"d 	c #2C882D",
"e 	c #2A872F",
"f 	c #2A812A",
"g 	c #318021",
"h 	c #338321",
"i 	c #358321",
"j 	c #4B8A24",
"k 	c #4B8522",
"l 	c #528B24",
"m 	c #3C8422",
"n 	c #308727",
"o 	c #2A872E",
"p 	c #2A862E",
"q 	c #2D8127",
"r 	c #317F21",
"s 	c #348422",
"t 	c #3C8522",
"u 	c #4D8A24",
"v 	c #4C8422",
"w 	c #568923",
"x 	c #508823",
"y 	c #448723",
"z 	c #468924",
"A 	c #498824",
"B 	c #448522",
"C 	c #498322",
"D 	c #4D8422",
"E 	c #548722",
"F 	c #548522",
"G 	c #568B24",
"H 	c #4A8622",
"I 	c #448A24",
"J 	c #498823",
"K 	c #448523",
"L 	c #458422",
"M 	c #4D8622",
"N 	c #508522",
"O 	c #548622",
"P 	c #558723",
"Q 	c #568A23",
"R 	c #528723",
"S 	c #458B24",
"T 	c #498723",
"U 	c #468623",
"V 	c #448221",
"W 	c #4E8522",
"X 	c #528522",
"Y 	c #578A23",
"Z 	c #398121",
"` 	c #397E20",
" .	c #428723",
"..	c #4B8923",
"+.	c #50893A",
"@.	c #7EB384",
"#.	c #9AC196",
"$.	c #80A370",
"%.	c #529358",
"&.	c #478322",
"*.	c #3A8121",
"=.	c #397F20",
"-.	c #3A8021",
";.	c #4C862E",
">.	c #92B08F",
",.	c #94C3A8",
"'.	c #61B08D",
").	c #42A779",
"!.	c #4C8D42",
"~.	c #4A8522",
"{.	c #418121",
"].	c #398021",
"^.	c #3C8321",
"/.	c #498A23",
"(.	c #528622",
"_.	c #518321",
":.	c #4C8522",
"<.	c #4A8322",
"[.	c #338723",
"}.	c #348923",
"|.	c #338622",
"1.	c #35892B",
"2.	c #5CBEA1",
"3.	c #9E6B42",
"4.	c #AA8A6A",
"5.	c #876146",
"6.	c #5C2116",
"7.	c #5B5D4F",
"8.	c #5E9177",
"9.	c #799162",
"0.	c #408B52",
"a.	c #48A686",
"b.	c #916755",
"c.	c #99705C",
"d.	c #732612",
"e.	c #545445",
"f.	c #67AF99",
"g.	c #2BBE9E",
"h.	c #2A9F6A",
"i.	c #338827",
"j.	c #348823",
"k.	c #358422",
"l.	c #398723",
"m.	c #388823",
"n.	c #2D8328",
"o.	c #308122",
"p.	c #328422",
"q.	c #368B37",
"r.	c #5CD5BF",
"s.	c #647C78",
"t.	c #8A8D8B",
"u.	c #555757",
"v.	c #1D2123",
"w.	c #191A1C",
"x.	c #3F1C18",
"y.	c #5B1A0F",
"z.	c #713820",
"A.	c #806D5C",
"B.	c #969693",
"C.	c #646563",
"D.	c #171B1F",
"E.	c #2B2623",
"F.	c #7E6B60",
"G.	c #9A9787",
"H.	c #819F89",
"I.	c #58A882",
"J.	c #318224",
"K.	c #318321",
"L.	c #338623",
"M.	c #338A25",
"N.	c #328927",
"O.	c #318926",
"P.	c #328723",
"Q.	c #318928",
"R.	c #248934",
"S.	c #29862E",
"T.	c #318625",
"U.	c #338823",
"V.	c #328433",
"W.	c #50C8B1",
"X.	c #2A3E3A",
"Y.	c #274B47",
"Z.	c #0E301F",
"`.	c #0C1C17",
" +	c #121617",
".+	c #151819",
"++	c #171B1C",
"@+	c #4C514D",
"#+	c #46574A",
"$+	c #384344",
"%+	c #19393C",
"&+	c #0F1C17",
"*+	c #161B1C",
"=+	c #6C706F",
"-+	c #5F5953",
";+	c #7C5646",
">+	c #A19B79",
",+	c #2E862D",
"'+	c #318322",
")+	c #2E892B",
"!+	c #248733",
"~+	c #258B35",
"{+	c #25822F",
"]+	c #258B34",
"^+	c #238935",
"/+	c #228633",
"(+	c #248431",
"_+	c #27832E",
":+	c #2B842B",
"<+	c #41B085",
"[+	c #3E9B8E",
"}+	c #469088",
"|+	c #4EBAAD",
"1+	c #71442A",
"2+	c #423225",
"3+	c #16191A",
"4+	c #1A1F21",
"5+	c #5C7575",
"6+	c #339570",
"7+	c #216733",
"8+	c #226A5E",
"9+	c #3D3022",
"0+	c #2B251F",
"a+	c #2F3731",
"b+	c #6D726B",
"c+	c #727671",
"d+	c #379065",
"e+	c #25812E",
"f+	c #29842C",
"g+	c #2D872A",
"h+	c #338824",
"i+	c #2C852A",
"j+	c #248632",
"k+	c #238934",
"l+	c #238633",
"m+	c #238532",
"n+	c #288830",
"o+	c #2E8628",
"p+	c #338925",
"q+	c #358832",
"r+	c #42A67A",
"s+	c #52CFBC",
"t+	c #6DB1A8",
"u+	c #9D5B3A",
"v+	c #403C37",
"w+	c #1E2B24",
"x+	c #417772",
"y+	c #31A275",
"z+	c #318827",
"A+	c #38B18B",
"B+	c #616551",
"C+	c #5E3522",
"D+	c #141916",
"E+	c #4A524C",
"F+	c #597F6E",
"G+	c #23873E",
"H+	c #258732",
"I+	c #2E882B",
"J+	c #298D33",
"K+	c #2E882A",
"L+	c #318826",
"M+	c #308525",
"N+	c #388C24",
"O+	c #4A8A23",
"P+	c #398623",
"Q+	c #74AE91",
"R+	c #739471",
"S+	c #83B87A",
"T+	c #74AB6E",
"U+	c #479A7B",
"V+	c #358C36",
"W+	c #3C8B2F",
"X+	c #8C8666",
"Y+	c #A66642",
"Z+	c #493122",
"`+	c #404844",
" @	c #428051",
".@	c #2F8728",
"+@	c #2F8527",
"@@	c #358A24",
"#@	c #458823",
"$@	c #418723",
"%@	c #348A23",
"&@	c #2F8B2B",
"*@	c #29862D",
"=@	c #248330",
"-@	c #2D882B",
";@	c #468622",
">@	c #538622",
",@	c #69C4AA",
"'@	c #BDF6EC",
")@	c #EAF5E2",
"!@	c #CADBC3",
"~@	c #77A186",
"{@	c #4E8622",
"]@	c #72DBCC",
"^@	c #B6B4A4",
"/@	c #586848",
"(@	c #517659",
"_@	c #3D9255",
":@	c #2E8729",
"<@	c #248331",
"[@	c #28852E",
"}@	c #3D8823",
"|@	c #538723",
"1@	c #4D8723",
"2@	c #358D24",
"3@	c #328623",
"4@	c #3F8E24",
"5@	c #308828",
"6@	c #268832",
"7@	c #2E8527",
"8@	c #3C8624",
"9@	c #3D8622",
"0@	c #358221",
"a@	c #348522",
"b@	c #81C7B1",
"c@	c #A1EAB9",
"d@	c #9DE07C",
"e@	c #74C05B",
"f@	c #409353",
"g@	c #389358",
"h@	c #308225",
"i@	c #428D43",
"j@	c #6EDCB4",
"k@	c #9DCF87",
"l@	c #8EA181",
"m@	c #90A89E",
"n@	c #4C9A60",
"o@	c #358724",
"p@	c #288730",
"q@	c #2B842A",
"r@	c #358424",
"s@	c #3F8923",
"t@	c #3A8422",
"u@	c #328321",
"v@	c #368322",
"w@	c #538823",
"x@	c #338825",
"y@	c #30872A",
"z@	c #30862B",
"A@	c #338624",
"B@	c #378021",
"C@	c #3A8322",
"D@	c #508927",
"E@	c #A0D5C2",
"F@	c #C3EDC6",
"G@	c #B5DA9C",
"H@	c #6DA859",
"I@	c #3C8A43",
"J@	c #33883F",
"K@	c #2F872A",
"L@	c #55B691",
"M@	c #C4ECD1",
"N@	c #E7EFDD",
"O@	c #A4B299",
"P@	c #5C9A7E",
"Q@	c #529B5D",
"R@	c #438321",
"S@	c #348724",
"T@	c #308729",
"U@	c #31882B",
"V@	c #318626",
"W@	c #327F20",
"X@	c #458622",
"Y@	c #548A24",
"Z@	c #518522",
"`@	c #4F8823",
" #	c #478121",
".#	c #4D8923",
"+#	c #4B8021",
"@#	c #4E8221",
"##	c #5A8D37",
"$#	c #85CB89",
"%#	c #5AA242",
"&#	c #82B45E",
"*#	c #398B26",
"=#	c #257227",
"-#	c #549067",
";#	c #5C9153",
">#	c #6DBE9A",
",#	c #61A648",
"'#	c #74B354",
")#	c #77AA65",
"!#	c #597553",
"~#	c #4D8540",
"{#	c #4F8422",
"]#	c #518823",
"^#	c #4D8321",
"/#	c #4C8221",
"(#	c #528422",
"_#	c #528321",
":#	c #378723",
"<#	c #398923",
"[#	c #408823",
"}#	c #488722",
"|#	c #4B8221",
"1#	c #508B2B",
"2#	c #93CA6A",
"3#	c #65AB4A",
"4#	c #62974C",
"5#	c #226318",
"6#	c #124B0E",
"7#	c #3C9175",
"8#	c #71C09D",
"9#	c #60BA7A",
"0#	c #8DBE65",
"a#	c #488F37",
"b#	c #14461B",
"c#	c #3B5E3D",
"d#	c #4D8D3D",
"e#	c #358522",
"f#	c #3F8B24",
"g#	c #458723",
"h#	c #488622",
"i#	c #4C8622",
"j#	c #4A8422",
"k#	c #428522",
"l#	c #438623",
"m#	c #318121",
"n#	c #308021",
"o#	c #328322",
"p#	c #89CB54",
"q#	c #67B742",
"r#	c #80B251",
"s#	c #719E55",
"t#	c #86C85F",
"u#	c #54BF3D",
"v#	c #4EB53B",
"w#	c #52B434",
"x#	c #44983A",
"y#	c #2C7727",
"z#	c #326233",
"A#	c #779762",
"B#	c #72A839",
"C#	c #318221",
"D#	c #2A872D",
"E#	c #318524",
"F#	c #2F8B2C",
"G#	c #5A9E3A",
"H#	c #98DC5C",
"I#	c #4BB45F",
"J#	c #86D088",
"K#	c #7BD284",
"L#	c #A8E395",
"M#	c #AEE28C",
"N#	c #8BC766",
"O#	c #A0BF78",
"P#	c #316E2A",
"Q#	c #38583B",
"R#	c #6E9239",
"S#	c #75AA36",
"T#	c #328724",
"U#	c #318A28",
"V#	c #2D892C",
"W#	c #2D8A2C",
"X#	c #2E8225",
"Y#	c #248C35",
"Z#	c #258632",
"`#	c #318624",
" $	c #318422",
".$	c #248A34",
"+$	c #268A35",
"@$	c #1D7331",
"#$	c #3D5923",
"$$	c #6A5D28",
"%$	c #827046",
"&$	c #406641",
"*$	c #439059",
"=$	c #5EB47D",
"-$	c #3EA05A",
";$	c #155E2D",
">$	c #132D1B",
",$	c #142C20",
"'$	c #40863D",
")$	c #248833",
"!$	c #2A842C",
"~$	c #308425",
"{$	c #318523",
"]$	c #308A29",
"^$	c #258430",
"/$	c #238A35",
"($	c #238733",
"_$	c #258E36",
":$	c #228533",
"<$	c #2E8528",
"[$	c #3F9037",
"}$	c #688F35",
"|$	c #A4AF3F",
"1$	c #A4A73E",
"2$	c #6B6B32",
"3$	c #4C7430",
"4$	c #4D672F",
"5$	c #005325",
"6$	c #034621",
"7$	c #034321",
"8$	c #205737",
"9$	c #29813A",
"0$	c #238734",
"a$	c #278730",
"b$	c #2A822A",
"c$	c #268530",
"d$	c #258833",
"e$	c #27852F",
"f$	c #2B852B",
"g$	c #358C24",
"h$	c #368622",
"i$	c #2F8A2A",
"j$	c #3B8B31",
"k$	c #A6C559",
"l$	c #CBDF5F",
"m$	c #AEC62F",
"n$	c #95AF19",
"o$	c #88A713",
"p$	c #83A515",
"q$	c #5C9229",
"r$	c #26692C",
"s$	c #02461F",
"t$	c #01371B",
"u$	c #124828",
"v$	c #288033",
"w$	c #348B24",
"x$	c #368823",
"y$	c #328A27",
"z$	c #2C892D",
"A$	c #278A32",
"B$	c #328825",
"C$	c #318A27",
"D$	c #2C8429",
"E$	c #3C8A23",
"F$	c #3E8723",
"G$	c #398A23",
"H$	c #81A036",
"I$	c #BFD85D",
"J$	c #7FDA72",
"K$	c #45D07A",
"L$	c #60C683",
"M$	c #63CB89",
"N$	c #62C585",
"O$	c #599039",
"P$	c #436C1A",
"Q$	c #345F2B",
"R$	c #133520",
"S$	c #082C1B",
"T$	c #427D27",
"U$	c #3A8B26",
"V$	c #589028",
"W$	c #5B8A24",
"X$	c #438922",
"Y$	c #4C8723",
"Z$	c #328926",
"`$	c #228332",
" %	c #2B882D",
".%	c #508622",
"+%	c #418322",
"@%	c #5D9D28",
"#%	c #88BF48",
"$%	c #55EA99",
"%%	c #35ECA2",
"&%	c #1ED889",
"*%	c #089950",
"=%	c #60BF86",
"-%	c #5CDC95",
";%	c #34D088",
">%	c #739E3C",
",%	c #508C37",
"'%	c #408D4E",
")%	c #346F54",
"!%	c #496F33",
"~%	c #3B6408",
"{%	c #47720E",
"]%	c #397628",
"^%	c #3C7521",
"/%	c #3B7516",
"(%	c #518623",
"_%	c #498222",
":%	c #358B24",
"<%	c #468A23",
"[%	c #2A892F",
"}%	c #2A852C",
"|%	c #348725",
"1%	c #368723",
"2%	c #339952",
"3%	c #47BE83",
"4%	c #1CB172",
"5%	c #6AF0B2",
"6%	c #80EBB0",
"7%	c #30BA72",
"8%	c #037334",
"9%	c #1B5C2E",
"0%	c #2CB46B",
"a%	c #0BDD88",
"b%	c #498E46",
"c%	c #698B24",
"d%	c #2B622F",
"e%	c #04724A",
"f%	c #0C8855",
"g%	c #09A568",
"h%	c #09AE6C",
"i%	c #04A867",
"j%	c #098957",
"k%	c #24663B",
"l%	c #2E6F18",
"m%	c #438A23",
"n%	c #438722",
"o%	c #558924",
"p%	c #478723",
"q%	c #378322",
"r%	c #3A8925",
"s%	c #3B8525",
"t%	c #3E852B",
"u%	c #5AB57F",
"v%	c #3ABE82",
"w%	c #08804A",
"x%	c #6B955D",
"y%	c #B7D5A2",
"z%	c #8EC58E",
"A%	c #08984D",
"B%	c #04652C",
"C%	c #103720",
"D%	c #138645",
"E%	c #1FC77B",
"F%	c #305935",
"G%	c #1E3516",
"H%	c #1E6D48",
"I%	c #459A73",
"J%	c #4BB383",
"K%	c #479463",
"L%	c #51A36F",
"M%	c #2D9968",
"N%	c #488065",
"O%	c #6F8D7C",
"P%	c #264F18",
"Q%	c #4E8723",
"R%	c #538522",
"S%	c #498522",
"T%	c #468723",
"U%	c #4C8A23",
"V%	c #568F28",
"W%	c #3E934D",
"X%	c #A1A07C",
"Y%	c #83B489",
"Z%	c #04682F",
"`%	c #527338",
" &	c #516246",
".&	c #776741",
"+&	c #2F5738",
"@&	c #1E392A",
"#&	c #134327",
"$&	c #14AA61",
"%&	c #297C51",
"&&	c #283813",
"*&	c #314821",
"=&	c #1E6D46",
"-&	c #53926A",
";&	c #D3C9A3",
">&	c #EBC6A1",
",&	c #D0A783",
"'&	c #5E8255",
")&	c #6D8D77",
"!&	c #54614F",
"~&	c #375C17",
"{&	c #528623",
"]&	c #338322",
"^&	c #338422",
"/&	c #89B234",
"(&	c #D1C989",
"_&	c #F6C79D",
":&	c #94B787",
"<&	c #118D48",
"[&	c #6FA466",
"}&	c #7A6758",
"|&	c #85673C",
"1&	c #26321A",
"2&	c #217949",
"3&	c #20B36D",
"4&	c #117745",
"5&	c #212211",
"6&	c #272C09",
"7&	c #3B4D0C",
"8&	c #A58556",
"9&	c #E4BC95",
"0&	c #EDB490",
"a&	c #E4B491",
"b&	c #BD9975",
"c&	c #39663E",
"d&	c #3B603E",
"e&	c #34431E",
"f&	c #3A7620",
"g&	c #418522",
"h&	c #378622",
"i&	c #318424",
"j&	c #B3BE56",
"k&	c #DED282",
"l&	c #E8B56C",
"m&	c #8CB978",
"n&	c #27A867",
"o&	c #4ED08A",
"p&	c #91CA95",
"q&	c #88B780",
"r&	c #37BD7B",
"s&	c #30BE7C",
"t&	c #12683B",
"u&	c #221E09",
"v&	c #33160B",
"w&	c #33240E",
"x&	c #4A5314",
"y&	c #906C27",
"z&	c #D99468",
"A&	c #DDA681",
"B&	c #DCA586",
"C&	c #BD927A",
"D&	c #41522A",
"E&	c #3E531A",
"F&	c #538025",
"G&	c #348A24",
"H&	c #358C25",
"I&	c #268932",
"J&	c #2D8429",
"K&	c #65952C",
"L&	c #7BA72F",
"M&	c #7EA735",
"N&	c #659E37",
"O&	c #4FB271",
"P&	c #4DBF7A",
"Q&	c #5DCC8D",
"R&	c #53B87D",
"S&	c #389059",
"T&	c #416817",
"U&	c #325312",
"V&	c #38691A",
"W&	c #427723",
"X&	c #538C31",
"Y&	c #589031",
"Z&	c #608E30",
"`&	c #A08F42",
" *	c #CB805C",
".*	c #CB8362",
"+*	c #9A6D4E",
"@*	c #4B7D1D",
"#*	c #3A8622",
"$*	c #2F892A",
"%*	c #278731",
"&*	c #298C32",
"**	c #228734",
"=*	c #29852D",
"-*	c #2D872B",
";*	c #2E8025",
">*	c #318725",
",*	c #308928",
"'*	c #258531",
")*	c #228433",
"!*	c #3E8F32",
"~*	c #3A812E",
"{*	c #47882E",
"]*	c #308429",
"^*	c #2D8629",
"/*	c #2F8325",
"(*	c #2D882C",
"_*	c #658530",
":*	c #776626",
"<*	c #48581B",
"[*	c #2C832A",
"}*	c #2E8427",
"|*	c #2F8425",
"1*	c #29872E",
"2*	c #308827",
"3*	c #318927",
"4*	c #258631",
"5*	c #248B35",
"6*	c #268630",
"7*	c #228131",
"8*	c #248B34",
"9*	c #29872F",
"0*	c #2F8829",
"a*	c #368C24",
"b*	c #3E8622",
"c*	c #368522",
"d*	c #338C27",
"e*	c #2A8B30",
"f*	c #2D8428",
"g*	c #2C872C",
"h*	c #368923",
"i*	c #418823",
"j*	c #2C882C",
"k*	c #298930",
"l*	c #2D8227",
"m*	c #3B8622",
"n*	c #338924",
"o*	c #448A23",
"p*	c #548923",
"q*	c #408723",
"r*	c #28842E",
"s*	c #558B24",
"t*	c #338923",
"u*	c #3B8A24",
"v*	c #528923",
"w*	c #4A8823",
"  . + @ # $ % & *   = - ; > , ' ) ! ~ ' { ] ^ / ( _ : < [ } | 1 ",
"2 3 4 5 6 7 8 = 9 0 a b c d e f g h i j k l m n o p q r s t u v ",
"w x y z A B C D E F w G H I J K L M N O P Q R b S T U V W X F Y ",
"& Z `  ...+.@.#.$.%.&.*.=.-.;.>.,.'.).!.~.{.].-.^./.D a (._.:.<.",
"{ [.}.|.1.2.3.4.5.6.7.8.9.0.a.b.c.d.e.f.g.h.i.}.* j.1 k.l.m.1 |.",
"n.o.p.p.q.r.s.t.u.v.w.x.y.z.A.B.C.D.E.F.G.H.I.J.K.L.j.M.N.O.P.Q.",
"R.S.T.U.V.W.X.Y.Z.`. +.+++@+#+$+%+&+*+=+-+;+>+,+L.p.'+)+!+~+{+]+",
"^+/+(+_+:+<+[+}+|+1+2+3+4+5+6+7+8+9+0+a+b+c+d+!+e+f+g+h+i+j+k+k+",
"l+m+j+n+o+p+q+r+s+t+u+v+w+x+y+z+A+B+C+D+E+F+G+(+H+)+T.[.[.I+J+l+",
"K+L+_ M+* N+O+P+h+Q+R+S+T+U+V+[.W+X+Y+Z+`+ @.@M++@U.@@#@$@%@c &@",
"- *@=@-@j.;@>@y }.,@'@)@!@~@T.= {@]@^@/@(@_@:@<@[@P.}@|@1@' 2@3@",
"4@5@H+6@7@8@9@0@a@b@c@d@e@f@g@h@i@j@k@l@m@n@o@p@]+q@r@s@t@u@m.v@",
"w@m x@y@z@A@B@C@D@E@F@G@H@I@J@K@L@M@N@O@P@Q@R@S@T@U@V@W@C@X@Y@G ",
"Z@`@ #.#a +#@#X ##$#%#&#*#=#-#;#>#,#'#)#!#~#{#~.T ]#^#/#X >@(#_#",
":#1 a@<#[#}#J |#1#2#3#4#5#6#7#8#9#0#a#b#c#d#1 e#3 f#g#h#i#j#k#l#",
"m#n#p.o#[.j.' | = p#q#r#s#t#u#v#w#x#y#z#A#B#K.C#'+|.[.|.| ' j.[.",
"D#E#[.* o#U.g+F#g+G#H#I#J#K#L#M#N#O#P#Q#R#S#+@T#p.|.* U#V#W#X#-@",
"Y#Z#n.`# $h+W#+ .$+$@$#$$$%$&$*$=$-$;$>$,$'$)$!$~${$P.]$^$/$($_$",
":$:$($)$_+<$[.-@m+:$[$}$|$1$2$3$4$5$6$7$8$9$> 0$l+a$b$3@n c$> 0$",
"d$e$S.f$T#g$h$[.i$j$k$l$m$n$o$p$q$r$s$t$u$v$^$o _+L+w$x$' y$z$A$",
"B$C$D$M+* E$x F$G$H$I$J$K$L$M$N$O$P$Q$R$S$T$U$V$W$X$| Y$! j.w$Z$",
"w$*@`$ %j.T .%+%@%#%$%%%&%*%=%-%;%>%,%'%)%!%~%{%]%^%/%(%_%j.:%K.",
"<%c [%d$}%|%1%2%3%4%5%6%7%8%9%0%a%b%c%d%e%f%g%h%i%j%k%l%s 0@m%n%",
"o%p%q%r%s%t%u%v%w%x%y%z%A%B%C%D%E%F%G%H%I%J%K%L%M%N%O%P%;@Q%R%w ",
"S%T%L U%V%W%X%Y%Z%`% &.&+&@&#&$&%&&&*&=&-&;&>&,&'&)&!&~&(#_#{&_.",
"]&m#C#^&/&(&_&:&<&[&}&|&1&2&3&4&5&6&7&8&9&0&a&b&c&d&e&f&$ g&l.h&",
"i&* U.[.j&k&l&m&n&o&p&q&r&s&t&u&v&w&x&y&z&A&B&C&D&E&F&' G&H&* h+",
"I&J& $ $K&L&M&N&O&P&Q&R&S&T&U&V&W&X&Y&Z&`& *.*+*@*#*U.$*p@%*}%&*",
"**> =*-*;*>*,*'*/$)*!*~*{*]*^*/*T#(*l+> > _*:*<*[*}*|*y$1*> :$Y#",
"> )*0$(+D#2*[.3*4*5*> 0$($`$6*. B$3@K+( k+($($> 7*1*^*U.# [%8*0$",
"9*4 J&0** a*b*c*d*.@e*[@f*g*T.}.h*i*p.d*j*k*}%l*(*h+G&m*m*n*U#5 ",
"G&-*[@7@[.o*p*q*}.g$n*Z$f$r*T#|...s*= G&H&t*5@=*:+[.u*v*w*  :%h+"};
