/* XPM */
static char * token_sprite2_32_xpm[] = {
"32 32 942 2",
"  	c #358A23",
". 	c #2C872B",
"+ 	c #238432",
"@ 	c #298A31",
"# 	c #328624",
"$ 	c #438723",
"% 	c #488823",
"& 	c #3C8021",
"* 	c #328522",
"= 	c #358723",
"- 	c #338724",
"; 	c #28862F",
"> 	c #238834",
", 	c #2C862B",
"' 	c #348723",
") 	c #488723",
"! 	c #488923",
"~ 	c #358021",
"{ 	c #338722",
"] 	c #368A24",
"^ 	c #308626",
"/ 	c #248531",
"( 	c #258933",
"_ 	c #2F8627",
": 	c #3A8623",
"< 	c #498A24",
"[ 	c #438422",
"} 	c #328121",
"| 	c #358923",
"1 	c #348622",
"2 	c #508A23",
"3 	c #358623",
"4 	c #2D862A",
"5 	c #2A882F",
"6 	c #29842D",
"7 	c #308224",
"8 	c #317E20",
"9 	c #448622",
"0 	c #4D8823",
"a 	c #508723",
"b 	c #468823",
"c 	c #328525",
"d 	c #2D8531",
"e 	c #2D8138",
"f 	c #2F7C33",
"g 	c #327E26",
"h 	c #338224",
"i 	c #348322",
"j 	c #4B8A24",
"k 	c #4B8522",
"l 	c #528B24",
"m 	c #3C8422",
"n 	c #308727",
"o 	c #2A872E",
"p 	c #2A862E",
"q 	c #2D8127",
"r 	c #317F21",
"s 	c #348422",
"t 	c #3C8522",
"u 	c #4D8A24",
"v 	c #4C8422",
"w 	c #568923",
"x 	c #508823",
"y 	c #448723",
"z 	c #468924",
"A 	c #498824",
"B 	c #448522",
"C 	c #498322",
"D 	c #4D8422",
"E 	c #548722",
"F 	c #548523",
"G 	c #568926",
"H 	c #538430",
"I 	c #436C44",
"J 	c #405852",
"K 	c #405455",
"L 	c #856A4B",
"M 	c #74604C",
"N 	c #43634C",
"O 	c #4B743E",
"P 	c #55832A",
"Q 	c #558724",
"R 	c #568A23",
"S 	c #528723",
"T 	c #458B24",
"U 	c #498723",
"V 	c #468623",
"W 	c #448221",
"X 	c #4E8522",
"Y 	c #528522",
"Z 	c #548522",
"` 	c #578A23",
" .	c #398121",
"..	c #397E20",
"+.	c #428723",
"@.	c #4B8923",
"#.	c #4D8322",
"$.	c #508027",
"%.	c #4D7738",
"&.	c #496C44",
"*.	c #445D4F",
"=.	c #425554",
"-.	c #685C50",
";.	c #445355",
">.	c #465457",
",.	c #BA9958",
"'.	c #A6834E",
").	c #445255",
"!.	c #8C885D",
"~.	c #89895C",
"{.	c #4E6B44",
"].	c #457730",
"^.	c #397F23",
"/.	c #3A8021",
"(.	c #3C8321",
"_.	c #498A23",
":.	c #528622",
"<.	c #518321",
"[.	c #4C8522",
"}.	c #4A8322",
"|.	c #338723",
"1.	c #348923",
"2.	c #338622",
"3.	c #3C862A",
"4.	c #3C713F",
"5.	c #475D4F",
"6.	c #415354",
"7.	c #425255",
"8.	c #86634B",
"9.	c #5A5B55",
"0.	c #D4BB74",
"a.	c #746753",
"b.	c #BA9044",
"c.	c #F1E0AB",
"d.	c #EAD99A",
"e.	c #AE8242",
"f.	c #656454",
"g.	c #606255",
"h.	c #A07D49",
"i.	c #7E624C",
"j.	c #3E664C",
"k.	c #38783B",
"l.	c #338229",
"m.	c #348824",
"n.	c #358422",
"o.	c #398723",
"p.	c #388823",
"q.	c #2D8328",
"r.	c #308122",
"s.	c #328422",
"t.	c #377936",
"u.	c #697555",
"v.	c #4A5855",
"w.	c #766E4B",
"x.	c #425355",
"y.	c #525757",
"z.	c #C8A261",
"A.	c #776758",
"B.	c #C3974B",
"C.	c #595B54",
"D.	c #7B644F",
"E.	c #D8B76C",
"F.	c #CCA85F",
"G.	c #6E5E4F",
"H.	c #435156",
"I.	c #685B53",
"J.	c #CCAD7A",
"K.	c #BA9565",
"L.	c #5E5953",
"M.	c #405355",
"N.	c #3F5852",
"O.	c #406946",
"P.	c #377C35",
"Q.	c #338A26",
"R.	c #328927",
"S.	c #318926",
"T.	c #328723",
"U.	c #318928",
"V.	c #248934",
"W.	c #29862E",
"X.	c #318625",
"Y.	c #36832E",
"Z.	c #415752",
"`.	c #415255",
" +	c #7C604D",
".+	c #4F5455",
"++	c #AC7E47",
"@+	c #F1DC9E",
"#+	c #CEA15B",
"$+	c #74594E",
"%+	c #435256",
"&+	c #415256",
"*+	c #A57C45",
"=+	c #8F6749",
"-+	c #405156",
";+	c #455155",
">+	c #A07747",
",+	c #E2C886",
"'+	c #D8B875",
")+	c #906C49",
"!+	c #7B624E",
"~+	c #645751",
"{+	c #405554",
"]+	c #357542",
"^+	c #258633",
"/+	c #258B35",
"(+	c #25822F",
"_+	c #258B34",
":+	c #238935",
"<+	c #228633",
"[+	c #248432",
"}+	c #3A6948",
"|+	c #495455",
"1+	c #C59743",
"2+	c #6D6052",
"3+	c #4E5556",
"4+	c #BD9145",
"5+	c #655E53",
"6+	c #4B5352",
"7+	c #5F5D56",
"8+	c #7F756A",
"9+	c #80776B",
"0+	c #68645C",
"a+	c #4E534F",
"b+	c #455255",
"c+	c #A58147",
"d+	c #4A5457",
"e+	c #B49865",
"f+	c #9A7956",
"g+	c #485457",
"h+	c #5F6456",
"i+	c #425655",
"j+	c #347441",
"k+	c #248633",
"l+	c #238934",
"m+	c #238633",
"n+	c #238532",
"o+	c #278336",
"p+	c #415654",
"q+	c #595552",
"r+	c #A78650",
"s+	c #F0DEA5",
"t+	c #C9AE69",
"u+	c #79624F",
"v+	c #75584C",
"w+	c #50524F",
"x+	c #A6945C",
"y+	c #D4BA75",
"z+	c #E0B97C",
"A+	c #E4B978",
"B+	c #E1B476",
"C+	c #E0B878",
"D+	c #D7B875",
"E+	c #BDAC61",
"F+	c #7C6747",
"G+	c #535355",
"H+	c #9A7148",
"I+	c #EACF92",
"J+	c #DEBD7A",
"K+	c #88694E",
"L+	c #C7B772",
"M+	c #565E58",
"N+	c #4D5C55",
"O+	c #337E3A",
"P+	c #298D33",
"Q+	c #2E882A",
"R+	c #318826",
"S+	c #357A37",
"T+	c #435355",
"U+	c #605852",
"V+	c #B38E48",
"W+	c #F1DB8F",
"X+	c #D0AF5E",
"Y+	c #906D48",
"Z+	c #445154",
"`+	c #B49D45",
" @	c #EAB129",
".@	c #E1A92A",
"+@	c #F7DD59",
"@@	c #FAE246",
"#@	c #F7D73B",
"$@	c #F4CD2E",
"%@	c #E7B01A",
"&@	c #DF9C1C",
"*@	c #E5C24D",
"=@	c #5D5D4C",
"-@	c #4A5556",
";@	c #AC8E53",
">@	c #976F4B",
",@	c #87664C",
"'@	c #676554",
")@	c #646557",
"!@	c #CDBE77",
"~@	c #4E7746",
"{@	c #328524",
"]@	c #2F8B2B",
"^@	c #29862D",
"/@	c #2E763E",
"(@	c #596255",
"_@	c #918F64",
":@	c #495457",
"<@	c #B27E3E",
"[@	c #C89339",
"}@	c #866F4D",
"|@	c #CDAE67",
"1@	c #5A574F",
"2@	c #CDAF2E",
"3@	c #F6D216",
"4@	c #EFC521",
"5@	c #F8DB43",
"6@	c #FCE131",
"7@	c #FDED41",
"8@	c #FBEC5D",
"9@	c #EEBF22",
"0@	c #EFBF27",
"a@	c #F8D946",
"b@	c #83753C",
"c@	c #405256",
"d@	c #775C4E",
"e@	c #996E50",
"f@	c #BEA168",
"g@	c #4E5658",
"h@	c #485656",
"i@	c #807853",
"j@	c #3E733F",
"k@	c #358D24",
"l@	c #328623",
"m@	c #3F8E24",
"n@	c #308828",
"o@	c #2F7A3E",
"p@	c #475755",
"q@	c #6C6A54",
"r@	c #6E6555",
"s@	c #E2BC6D",
"t@	c #937351",
"u@	c #716652",
"v@	c #C5A15A",
"w@	c #58534C",
"x@	c #A2573A",
"y@	c #E4BB2B",
"z@	c #F3E335",
"A@	c #F2D447",
"B@	c #F8D76D",
"C@	c #F8D765",
"D@	c #EFCC4B",
"E@	c #F4D12C",
"F@	c #F6D122",
"G@	c #D69918",
"H@	c #7C4E40",
"I@	c #4A5251",
"J@	c #966F47",
"K@	c #E2BF7B",
"L@	c #F3DEA5",
"M@	c #B58542",
"N@	c #475355",
"O@	c #405354",
"P@	c #377A35",
"Q@	c #368322",
"R@	c #538823",
"S@	c #39763D",
"T@	c #435456",
"U@	c #7F614D",
"V@	c #DDB355",
"W@	c #FCF4C8",
"X@	c #E4C368",
"Y@	c #956C47",
"Z@	c #4B5355",
"`@	c #44494E",
" #	c #8E4136",
".#	c #C1570A",
"+#	c #D68721",
"@#	c #EFC04C",
"##	c #EECF6A",
"$#	c #F3D357",
"%#	c #EFC436",
"&#	c #E0A52E",
"*#	c #C86C17",
"=#	c #A43912",
"-#	c #A47D46",
";#	c #D1B65C",
">#	c #6C6651",
",#	c #8A6E54",
"'#	c #BD9C59",
")#	c #585855",
"!#	c #435555",
"~#	c #467D32",
"{#	c #548A24",
"]#	c #568B24",
"^#	c #518522",
"/#	c #4F8723",
"(#	c #4A6C44",
"_#	c #9B9763",
":#	c #4F5958",
"<#	c #726653",
"[#	c #E1B759",
"}#	c #856F51",
"|#	c #4E5453",
"1#	c #69685A",
"2#	c #9B8D5E",
"3#	c #954330",
"4#	c #B34B07",
"5#	c #B55809",
"6#	c #C46C07",
"7#	c #C07107",
"8#	c #CE7708",
"9#	c #C76A04",
"0#	c #B85C05",
"a#	c #B14D06",
"b#	c #AA380F",
"c#	c #B1561F",
"d#	c #EEAD19",
"e#	c #C1A836",
"f#	c #5A5451",
"g#	c #86604A",
"h#	c #AC7A41",
"i#	c #756553",
"j#	c #6D6D58",
"k#	c #547F33",
"l#	c #528422",
"m#	c #528321",
"n#	c #378723",
"o#	c #348524",
"p#	c #40654B",
"q#	c #666754",
"r#	c #435357",
"s#	c #485256",
"t#	c #AF783D",
"u#	c #696250",
"v#	c #C0B374",
"w#	c #DBBB72",
"x#	c #D7A24C",
"y#	c #B55F0E",
"z#	c #A83A05",
"A#	c #B74604",
"B#	c #D46105",
"C#	c #E58305",
"D#	c #E68406",
"E#	c #DB6902",
"F#	c #C95604",
"G#	c #AE3704",
"H#	c #962505",
"I#	c #BA6D0F",
"J#	c #F9CF19",
"K#	c #C09F38",
"L#	c #474F53",
"M#	c #5F5C56",
"N#	c #D8B870",
"O#	c #CFB365",
"P#	c #898057",
"Q#	c #487A38",
"R#	c #428522",
"S#	c #438623",
"T#	c #318121",
"U#	c #317F24",
"V#	c #3E5C50",
"W#	c #445257",
"X#	c #485357",
"Y#	c #57564D",
"Z#	c #DCB856",
"`#	c #DEA023",
" $	c #EBB530",
".$	c #F7D031",
"+$	c #F1C914",
"@$	c #E69A17",
"#$	c #C06508",
"$$	c #AD4203",
"%$	c #B25109",
"&$	c #A04B0E",
"*$	c #9E3805",
"=$	c #922703",
"-$	c #B24104",
";$	c #D25C07",
">$	c #AE6D13",
",$	c #CE9020",
"'$	c #9B4739",
")$	c #704E3F",
"!$	c #D3A046",
"~$	c #FAEFB7",
"{$	c #EED27E",
"]$	c #A67543",
"^$	c #3D713F",
"/$	c #348823",
"($	c #2A872D",
"_$	c #318427",
":$	c #3F5B52",
"<$	c #6F6055",
"[$	c #D5B069",
"}$	c #766456",
"|$	c #877E3A",
"1$	c #F9C31C",
"2$	c #EFB818",
"3$	c #F4C30B",
"4$	c #F9D428",
"5$	c #FBE851",
"6$	c #F6DD69",
"7$	c #EBB321",
"8$	c #ECA818",
"9$	c #D58A28",
"0$	c #9D3412",
"a$	c #D26E0F",
"b$	c #DF8019",
"c$	c #D77307",
"d$	c #B8521E",
"e$	c #8C3113",
"f$	c #A24004",
"g$	c #C27810",
"h$	c #714945",
"i$	c #625C52",
"j$	c #D5AF55",
"k$	c #A57D49",
"l$	c #4F5555",
"m$	c #396E45",
"n$	c #2E8226",
"o$	c #2D882B",
"p$	c #248C35",
"q$	c #268534",
"r$	c #425B52",
"s$	c #9C764D",
"t$	c #E1C77F",
"u$	c #A37E4D",
"v$	c #725945",
"w$	c #E6C520",
"x$	c #F9DD24",
"y$	c #F0CD30",
"z$	c #F3CC54",
"A$	c #F7D361",
"B$	c #F7DB46",
"C$	c #F2D033",
"D$	c #E1A62A",
"E$	c #B1430B",
"F$	c #932D06",
"G$	c #C25705",
"H$	c #C34F06",
"I$	c #A93704",
"J$	c #97350E",
"K$	c #A64707",
"L$	c #CD7808",
"M$	c #AF4F0E",
"N$	c #673E3E",
"O$	c #435255",
"P$	c #986D45",
"Q$	c #BA8B47",
"R$	c #525856",
"S$	c #367149",
"T$	c #238734",
"U$	c #258E36",
"V$	c #228533",
"W$	c #248435",
"X$	c #3E5B52",
"Y$	c #465255",
"Z$	c #9B6B44",
"`$	c #525551",
" %	c #6B5942",
".%	c #9C431D",
"+%	c #D4861E",
"@%	c #E5B831",
"#%	c #EFCD4D",
"$%	c #EDC76A",
"%%	c #EAAD48",
"&%	c #D57A12",
"*%	c #B94D05",
"=%	c #A23808",
"-%	c #C16519",
";%	c #BD700D",
">%	c #C76F08",
",%	c #D98D09",
"'%	c #B85E17",
")%	c #AC3B07",
"!%	c #A63F08",
"~%	c #A75617",
"{%	c #9E6234",
"]%	c #AE9440",
"^%	c #53574F",
"/%	c #C0AE6B",
"(%	c #636454",
"_%	c #356D48",
":%	c #258833",
"<%	c #288431",
"[%	c #3E5F4F",
"}%	c #4D514D",
"|%	c #CBAB50",
"1%	c #BF942C",
"2%	c #A34B15",
"3%	c #A23904",
"4%	c #AE4605",
"5%	c #C36704",
"6%	c #B96206",
"7%	c #BC5D05",
"8%	c #934206",
"9%	c #B0390C",
"0%	c #DE9E4E",
"a%	c #F2DD52",
"b%	c #F0D529",
"c%	c #E3B61E",
"d%	c #BD6F14",
"e%	c #87280D",
"f%	c #C06813",
"g%	c #D9821B",
"h%	c #B3450D",
"i%	c #AD5511",
"j%	c #F3BB1D",
"k%	c #9D923D",
"l%	c #475555",
"m%	c #397146",
"n%	c #2C892E",
"o%	c #278A32",
"p%	c #328825",
"q%	c #318A28",
"r%	c #3A6847",
"s%	c #415155",
"t%	c #6B5843",
"u%	c #D3AB1F",
"v%	c #D79F32",
"w%	c #C85605",
"x%	c #B63F07",
"y%	c #C1470A",
"z%	c #CD5408",
"A%	c #C45711",
"B%	c #DC8908",
"C%	c #D89D14",
"D%	c #8D2A07",
"E%	c #C05C15",
"F%	c #D3751C",
"G%	c #C89120",
"H%	c #C7870C",
"I%	c #AB6709",
"J%	c #944208",
"K%	c #C25F04",
"L%	c #B75D07",
"M%	c #BD8715",
"N%	c #EEBC18",
"O%	c #F0CB26",
"P%	c #966D47",
"Q%	c #405255",
"R%	c #3C6F45",
"S%	c #358A24",
"T%	c #328926",
"U%	c #348B24",
"V%	c #337045",
"W%	c #435153",
"X%	c #69513C",
"Y%	c #C37B10",
"Z%	c #CC6F0E",
"`%	c #CF570A",
" &	c #E27507",
".&	c #EEB214",
"+&	c #F8D54A",
"@&	c #F1C249",
"#&	c #F5CB16",
"$&	c #D8A83E",
"%&	c #8E2806",
"&&	c #943808",
"*&	c #CFA737",
"=&	c #F1D52C",
"-&	c #E1A51F",
";&	c #DB942D",
">&	c #D6951C",
",&	c #B6680B",
"'&	c #E1BD1E",
")&	c #EDC623",
"!&	c #DEA027",
"~&	c #AE4F13",
"{&	c #732E28",
"]&	c #5E5447",
"^&	c #3D6D46",
"/&	c #358B25",
"(&	c #318321",
"_&	c #468A23",
":&	c #367343",
"<&	c #807942",
"[&	c #C5982B",
"}&	c #E88A07",
"|&	c #CA5804",
"1&	c #EA9825",
"2&	c #F6B60F",
"3&	c #F9D93F",
"4&	c #F7DA6E",
"5&	c #F1C63B",
"6&	c #F5DB41",
"7&	c #C07030",
"8&	c #BB4F05",
"9&	c #BB560B",
"0&	c #E5B120",
"a&	c #F4CB34",
"b&	c #F7D65B",
"c&	c #F3C72B",
"d&	c #E7A20D",
"e&	c #DB7109",
"f&	c #C0720F",
"g&	c #C46706",
"h&	c #B04906",
"i&	c #982309",
"j&	c #924321",
"k&	c #E0B036",
"l&	c #5A5947",
"m&	c #3E6847",
"n&	c #438924",
"o&	c #438722",
"p&	c #558924",
"q&	c #478723",
"r&	c #3B6F3F",
"s&	c #95823A",
"t&	c #D0A90F",
"u&	c #E78F06",
"v&	c #ED9C0F",
"w&	c #E49E1A",
"x&	c #DD9A15",
"y&	c #E1AF22",
"z&	c #F3D22F",
"A&	c #F7DD30",
"B&	c #E6942A",
"C&	c #AD4A07",
"D&	c #E4AB1F",
"E&	c #C28518",
"F&	c #F0B823",
"G&	c #F8CE1E",
"H&	c #F8D546",
"I&	c #FADD39",
"J&	c #F7C109",
"K&	c #E3880D",
"L&	c #DAA127",
"M&	c #A04B0A",
"N&	c #B04107",
"O&	c #A14107",
"P&	c #D08E14",
"Q&	c #F5CF1C",
"R&	c #75633D",
"S&	c #4A6F43",
"T&	c #538523",
"U&	c #498522",
"V&	c #468723",
"W&	c #427732",
"X&	c #6C484A",
"Y&	c #B15F18",
"Z&	c #A95512",
"`&	c #DE970F",
" *	c #EFBE2C",
".*	c #EECF39",
"+*	c #E1BC1E",
"@*	c #E1A31C",
"#*	c #DE7C0C",
"$*	c #BF6611",
"%*	c #DFBE18",
"&*	c #EDC830",
"**	c #BF8D30",
"=*	c #E88B0B",
"-*	c #F6D11E",
";*	c #F4C03C",
">*	c #F7D04A",
",*	c #F2B30E",
"'*	c #E5820A",
")*	c #D26007",
"!*	c #DCA71B",
"~*	c #EDD025",
"{*	c #E9BD21",
"]*	c #BE8020",
"^*	c #694349",
"/*	c #4E7B2F",
"(*	c #528623",
"_*	c #338322",
":*	c #328123",
"<*	c #3B4F36",
"[*	c #781E18",
"}*	c #861E09",
"|*	c #93310A",
"1*	c #AC4008",
"2*	c #B43F06",
"3*	c #9E3009",
"4*	c #A93D04",
"5*	c #892A04",
"6*	c #B6510B",
"7*	c #DB9E1E",
"8*	c #EFD13D",
"9*	c #E6C855",
"0*	c #C1660C",
"a*	c #E48E05",
"b*	c #E5AC0C",
"c*	c #DD7E0E",
"d*	c #D67B08",
"e*	c #D56505",
"f*	c #D66207",
"g*	c #B95506",
"h*	c #D67C19",
"i*	c #D8770A",
"j*	c #B54D0A",
"k*	c #70221B",
"l*	c #416430",
"m*	c #418423",
"n*	c #378622",
"o*	c #318424",
"p*	c #338823",
"q*	c #34802A",
"r*	c #384D38",
"s*	c #42242F",
"t*	c #581C21",
"u*	c #51161A",
"v*	c #4E171A",
"w*	c #6B3334",
"x*	c #BE6A19",
"y*	c #D99116",
"z*	c #C8A00D",
"A*	c #B9790C",
"B*	c #C57412",
"C*	c #DC7F12",
"D*	c #B15005",
"E*	c #A04005",
"F*	c #C75E08",
"G*	c #DD890D",
"H*	c #DE7B0B",
"I*	c #E06F04",
"J*	c #DE6904",
"K*	c #874117",
"L*	c #6A3223",
"M*	c #572B28",
"N*	c #422833",
"O*	c #3A473D",
"P*	c #348528",
"Q*	c #358C25",
"R*	c #338824",
"S*	c #268932",
"T*	c #2D8429",
"U*	c #318422",
"V*	c #338226",
"W*	c #38643C",
"X*	c #393C41",
"Y*	c #3A303C",
"Z*	c #3B2B39",
"`*	c #462631",
" =	c #973210",
".=	c #CA6E17",
"+=	c #E6B428",
"@=	c #EBD054",
"#=	c #E2C45F",
"$=	c #D09F28",
"%=	c #B35B10",
"&=	c #922304",
"*=	c #8B2506",
"==	c #9B2D07",
"-=	c #A93209",
";=	c #AF3C0D",
">=	c #872916",
",=	c #3F2934",
"'=	c #3C333F",
")=	c #3C3944",
"!=	c #3C444A",
"~=	c #33773B",
"{=	c #288730",
"]=	c #278731",
"^=	c #2A852C",
"/=	c #298C32",
"(=	c #228734",
"_=	c #29852D",
":=	c #2D872B",
"<=	c #2E8025",
"[=	c #328626",
"}=	c #348031",
"|=	c #32683F",
"1=	c #355544",
"2=	c #383D41",
"3=	c #412C31",
"4=	c #722B1F",
"5=	c #A84A0E",
"6=	c #C16B17",
"7=	c #D4761A",
"8=	c #CF700B",
"9=	c #A3420A",
"0=	c #711E17",
"a=	c #452029",
"b=	c #3E212C",
"c=	c #431D28",
"d=	c #43222B",
"e=	c #3D2F3B",
"f=	c #3A3B47",
"g=	c #3C444C",
"h=	c #3C544C",
"i=	c #36743C",
"j=	c #328928",
"k=	c #29872E",
"l=	c #228433",
"m=	c #248431",
"n=	c #308827",
"o=	c #318927",
"p=	c #268532",
"q=	c #278737",
"r=	c #2A7A38",
"s=	c #2E6A37",
"t=	c #365E35",
"u=	c #3C5132",
"v=	c #43452F",
"w=	c #443B32",
"x=	c #3D3638",
"y=	c #39363C",
"z=	c #39393F",
"A=	c #3A3C41",
"B=	c #3B4044",
"C=	c #3A4A49",
"D=	c #385749",
"E=	c #356B47",
"F=	c #2F7240",
"G=	c #2B8432",
"H=	c #2A892F",
"I=	c #248B34",
"J=	c #29872F",
"K=	c #2F8829",
"L=	c #368C24",
"M=	c #3E8622",
"N=	c #368522",
"O=	c #338C27",
"P=	c #2F8728",
"Q=	c #2A8B30",
"R=	c #28852E",
"S=	c #2E8428",
"T=	c #2C862C",
"U=	c #328425",
"V=	c #348725",
"W=	c #368627",
"X=	c #42832A",
"Y=	c #347C2D",
"Z=	c #358430",
"`=	c #2E8430",
" -	c #2B8731",
".-	c #2B842E",
"+-	c #2D8228",
"@-	c #2D882C",
"#-	c #348A24",
"$-	c #3B8622",
"%-	c #338924",
"&-	c #2E8527",
"*-	c #448A23",
"=-	c #548923",
"--	c #408723",
";-	c #358C24",
">-	c #2B852B",
",-	c #28842E",
"'-	c #328724",
")-	c #558B24",
"!-	c #338923",
"~-	c #2B842B",
"{-	c #3B8A24",
"]-	c #528923",
"^-	c #4A8823",
"/-	c #358B24",
"  . + @ # $ % & *   = - ; > , ' ) ! ~ ' { ] ^ / ( _ : < [ } | 1 ",
"2 3 4 5 6 7 8 = 9 0 a b c d e f g h i j k l m n o p q r s t u v ",
"w x y z A B C D E F G H I J K L M N O P Q R S b T U V W X Y Z ` ",
"&  ...+.@.#.x $.%.&.*.=.-.;.>.,.'.).!.~.{.].^./.(._.D a :.<.[.}.",
"{ |.1.2.' 3.4.5.6.7.8.9.0.a.b.c.d.e.f.g.h.i.j.k.l.m.1 n.o.p.1 2.",
"q.r.s.s.t.u.v.w.x.y.z.A.B.C.D.E.F.G.H.I.J.K.L.M.N.O.P.Q.R.S.T.U.",
"V.W.X.Y.Z.`.`. +.+++@+#+$+%+&+*+=+-+;+>+,+'+)+!+~+&+{+]+^+/+(+_+",
":+<+[+}+7.`.|+1+2+3+4+5+H.6+7+8+9+0+a+b+c+8.d+e+f+g+h+i+j+k+l+l+",
"m+n+o+p+7.q+r+s+t+u+v+w+x+y+z+A+B+C+D+E+F+G+H+I+J+K+L+M+N+O+P+m+",
"Q+R+S+6.T+U+V+W+X+Y+Z+`+ @.@+@@@#@$@%@&@*@=@-@;@>@,@'@)@!@~@{@]@",
"- ^@/@(@_@:@<@[@}@|@1@2@3@4@5@6@7@8@9@0@a@b@c@d@e@f@g@h@i@j@k@l@",
"m@n@o@p@q@r@s@t@u@v@w@x@y@z@A@B@C@D@E@F@G@H@I@J@K@L@M@N@O@P@p.Q@",
"R@m S@T@U@V@W@X@Y@Z@`@ #.#+#@###$#%#&#*#=#-#;#>#,#'#)#7.!#~#{#]#",
"^#/#(#_#:#<#[#}#|#1#2#3#4#5#6#7#8#9#0#a#b#c#d#e#f#g#h#i#j#k#l#m#",
"n#o#p#q#r#s#t#u#v#w#x#y#z#A#B#C#D#E#F#G#H#I#J#K#L#M#N#O#P#Q#R#S#",
"T#U#V#W#8.X#Y#Z#`# $.$+$@$#$$$%$&$*$=$-$;$>$,$'$)$!$~${$]$^$/$|.",
"($_$:$<$[$}$|$1$2$3$4$5$6$7$8$9$0$a$b$c$d$e$f$g$h$i$j$k$l$m$n$o$",
"p$q$r$s$t$u$v$w$x$y$z$A$B$C$D$E$F$G$H$I$J$K$L$M$N$O$P$Q$R$S$T$U$",
"V$W$X$Y$Z$`$ %.%+%@%#%$%%%&%*%=%-%;%>%,%'%)%!%~%{%]%^%/%(%_%> T$",
":%<%[%7.}%|%1%2%3%4%5%6%7%8%9%0%a%b%c%d%e%f%g%h%i%j%k%l%`.m%n%o%",
"p%q%r%s%t%u%v%w%x%y%z%A%B%C%D%E%F%G%H%I%J%K%L%M%N%O%P%-+Q%R%S%T%",
"U%W.V%W%X%Y%Z%`% &.&+&@&#&$&%&&&*&=&-&;&>&,&'&)&!&~&{&]&`.^&/&(&",
"_&{@:&<&[&}&|&1&2&3&4&5&6&7&8&9&0&a&b&c&d&e&f&g&h&i&j&k&l&m&n&o&",
"p&q&r&s&t&u&v&w&x&y&z&A&B&C&D&E&F&G&H&I&J&K&L&M&N&O&P&Q&R&S&T&w ",
"U&V&W&X&Y&Z&`& *.*+*@*#*$*%*&***=*-*;*>*,*'*)*5#!*~*{*]*^*/*(*<.",
"_*T#:*<*[*}*|*1*2*3*4*5*6*7*8*9*0*a*b*c*d*e*f*g*h*i*j*k*l*m*o.n*",
"o** p*q*r*s*t*u*v*w*x*y*z*A*B*C*D*E*F*G*H*I*J*K*L*M*N*O*P*Q** R*",
"S*T*U*U*V*W*X*Y*Z*`* =.=+=@=#=$=%=&=*===-=;=>=,='=)=!=~={=]=^=/=",
"(=> _=:=<=[=}=|=1=2=3=4=5=6=7=8=9=0=a=b=c=d=e=f=g=h=i=j=k=> V$p$",
"> l=T$m=($n=|.o=p=q=r=s=t=u=v=w=x=y=z=A=B=C=D=E=F=G=4 p*# H=I=T$",
"J=4 T*K=* L=M=N=O=P=Q=R=S=T=U=V=W=X=Y=Z=`= -.-+-@-R*#-$-$-%-q%5 ",
"#-:=R=&-|.*-=---1.;-%-T%>-,-'-2.@.)-= #-Q*!-n@_=~-|.{-]-^-  /-R*"};
