/* XPM */
static char * token_sprite1_32_xpm[] = {
"32 32 917 2",
"  	c #358A23",
". 	c #2C872B",
"+ 	c #238432",
"@ 	c #298A31",
"# 	c #328624",
"$ 	c #438723",
"% 	c #488823",
"& 	c #3C8021",
"* 	c #328522",
"= 	c #358723",
"- 	c #338724",
"; 	c #28862F",
"> 	c #238834",
", 	c #2C862B",
"' 	c #348723",
") 	c #488723",
"! 	c #488923",
"~ 	c #358021",
"{ 	c #338722",
"] 	c #368A24",
"^ 	c #308626",
"/ 	c #248531",
"( 	c #258933",
"_ 	c #2F8627",
": 	c #3A8623",
"< 	c #498A24",
"[ 	c #438422",
"} 	c #328121",
"| 	c #358923",
"1 	c #348622",
"2 	c #508A23",
"3 	c #358623",
"4 	c #2D862A",
"5 	c #2A882F",
"6 	c #29842D",
"7 	c #308224",
"8 	c #317E20",
"9 	c #448622",
"0 	c #4D8823",
"a 	c #508723",
"b 	c #468823",
"c 	c #328524",
"d 	c #2C882D",
"e 	c #2A872F",
"f 	c #2A802A",
"g 	c #317E21",
"h 	c #338221",
"i 	c #348321",
"j 	c #4B8A24",
"k 	c #4B8522",
"l 	c #528B24",
"m 	c #3C8422",
"n 	c #308727",
"o 	c #2A872E",
"p 	c #2A862E",
"q 	c #2D8127",
"r 	c #317F21",
"s 	c #348422",
"t 	c #3C8522",
"u 	c #4D8A24",
"v 	c #4C8422",
"w 	c #568923",
"x 	c #508823",
"y 	c #448723",
"z 	c #468924",
"A 	c #498824",
"B 	c #448522",
"C 	c #498322",
"D 	c #4D8422",
"E 	c #548722",
"F 	c #548522",
"G 	c #568B24",
"H 	c #4A8622",
"I 	c #448A24",
"J 	c #447D22",
"K 	c #535920",
"L 	c #38481D",
"M 	c #3A571E",
"N 	c #456E20",
"O 	c #538322",
"P 	c #558723",
"Q 	c #568A23",
"R 	c #528723",
"S 	c #458B24",
"T 	c #498723",
"U 	c #468623",
"V 	c #448221",
"W 	c #4E8522",
"X 	c #528522",
"Y 	c #578A23",
"Z 	c #398121",
"` 	c #397E20",
" .	c #428723",
"..	c #4B8923",
"+.	c #4D8322",
"@.	c #518321",
"#.	c #518522",
"$.	c #4B8422",
"%.	c #478322",
"&.	c #3A8121",
"*.	c #397F20",
"=.	c #3A7120",
"-.	c #3A3B1E",
";.	c #A46E28",
">.	c #674721",
",.	c #372C1D",
"'.	c #39301D",
").	c #54572B",
"!.	c #497921",
"~.	c #418021",
"{.	c #398021",
"].	c #3A8021",
"^.	c #3C8321",
"/.	c #498A23",
"(.	c #528622",
"_.	c #4C8522",
":.	c #4A8322",
"<.	c #338723",
"[.	c #348923",
"}.	c #338622",
"|.	c #358422",
"1.	c #398723",
"2.	c #378823",
"3.	c #328422",
"4.	c #367122",
"5.	c #3F3B20",
"6.	c #564027",
"7.	c #CEB574",
"8.	c #A8894D",
"9.	c #4E3A25",
"0.	c #4F3D2A",
"a.	c #817058",
"b.	c #37411F",
"c.	c #337821",
"d.	c #348823",
"e.	c #388823",
"f.	c #2D8328",
"g.	c #308122",
"h.	c #338623",
"i.	c #358A24",
"j.	c #328926",
"k.	c #328A27",
"l.	c #328825",
"m.	c #338823",
"n.	c #2E8429",
"o.	c #356322",
"p.	c #3D3622",
"q.	c #8F6025",
"r.	c #D0A44F",
"s.	c #FAF0B4",
"t.	c #F3E09B",
"u.	c #C28D3A",
"v.	c #734B24",
"w.	c #403223",
"x.	c #795023",
"y.	c #3E3E22",
"z.	c #337222",
"A.	c #318121",
"B.	c #318321",
"C.	c #338A25",
"D.	c #328927",
"E.	c #318926",
"F.	c #328723",
"G.	c #318928",
"H.	c #248934",
"I.	c #29862E",
"J.	c #318625",
"K.	c #308021",
"L.	c #328523",
"M.	c #29882F",
"N.	c #258934",
"O.	c #248733",
"P.	c #28802E",
"Q.	c #385D2A",
"R.	c #685027",
"S.	c #443727",
"T.	c #513F2C",
"U.	c #664E37",
"V.	c #CDAD6C",
"W.	c #AB884E",
"X.	c #604833",
"Y.	c #4D3C2C",
"Z.	c #503E2B",
"`.	c #BF9247",
" +	c #514029",
".+	c #393A24",
"++	c #347625",
"@+	c #318322",
"#+	c #2E892B",
"$+	c #258B35",
"%+	c #25822F",
"&+	c #258B34",
"*+	c #238935",
"=+	c #228633",
"-+	c #248431",
";+	c #27832E",
">+	c #2B842B",
",+	c #308928",
"'+	c #338924",
")+	c #28842D",
"!+	c #278132",
"~+	c #6B642B",
"{+	c #755E32",
"]+	c #D8C275",
"^+	c #6F5835",
"/+	c #5C493D",
"(+	c #836F65",
"_+	c #C6946B",
":+	c #AE9271",
"<+	c #807060",
"[+	c #574636",
"}+	c #957540",
"|+	c #F3E39F",
"1+	c #A08248",
"2+	c #3F3527",
"3+	c #374127",
"4+	c #2B742B",
"5+	c #29842C",
"6+	c #2D872A",
"7+	c #338824",
"8+	c #2C852A",
"9+	c #248632",
"0+	c #238934",
"a+	c #238633",
"b+	c #238532",
"c+	c #288830",
"d+	c #2E8628",
"e+	c #338925",
"f+	c #338522",
"g+	c #347F25",
"h+	c #3F502B",
"i+	c #B88F45",
"j+	c #6A5231",
"k+	c #AE894A",
"l+	c #6A5747",
"m+	c #CEBE96",
"n+	c #EBD682",
"o+	c #EBCC50",
"p+	c #EBC04A",
"q+	c #E9C268",
"r+	c #C7AE53",
"s+	c #6D5636",
"t+	c #D0A85E",
"u+	c #685235",
"v+	c #42392B",
"w+	c #3B3529",
"x+	c #3C4E2D",
"y+	c #32852B",
"z+	c #2E882B",
"A+	c #298D33",
"B+	c #2E882A",
"C+	c #318826",
"D+	c #308525",
"E+	c #388C24",
"F+	c #468025",
"G+	c #3E512B",
"H+	c #6D5432",
"I+	c #EAD894",
"J+	c #AD9255",
"K+	c #504131",
"L+	c #9F853A",
"M+	c #EEC34E",
"N+	c #FADB39",
"O+	c #FCE654",
"P+	c #FCDC3E",
"Q+	c #F9BB34",
"R+	c #EBB530",
"S+	c #9E7B2B",
"T+	c #976432",
"U+	c #C4A55F",
"V+	c #6F5938",
"W+	c #62462D",
"X+	c #756645",
"Y+	c #52652E",
"Z+	c #358924",
"`+	c #458823",
" @	c #418723",
".@	c #348A23",
"+@	c #2F8B2B",
"@@	c #29862D",
"#@	c #248330",
"$@	c #2D882B",
"%@	c #437F25",
"&@	c #414E2E",
"*@	c #423D30",
"=@	c #5D4A32",
"-@	c #C09755",
";@	c #705839",
">@	c #594A38",
",@	c #8A5630",
"'@	c #EDC645",
")@	c #F7C84B",
"!@	c #F5C769",
"~@	c #F4B931",
"{@	c #F4BD26",
"]@	c #E9B832",
"^@	c #8D5447",
"/@	c #544334",
"(@	c #987442",
"_@	c #7A5835",
":@	c #AA7230",
"<@	c #474033",
"[@	c #403F30",
"}@	c #407229",
"|@	c #538723",
"1@	c #4D8723",
"2@	c #358D24",
"3@	c #328623",
"4@	c #3F8E24",
"5@	c #308828",
"6@	c #258732",
"7@	c #268832",
"8@	c #308528",
"9@	c #3E5532",
"0@	c #413F34",
"a@	c #6C5A3C",
"b@	c #CEB46E",
"c@	c #8C6137",
"d@	c #5C4C3A",
"e@	c #8B764C",
"f@	c #6E4B45",
"g@	c #C8943B",
"h@	c #F5C881",
"i@	c #F8CE7A",
"j@	c #DFA935",
"k@	c #CA8B40",
"l@	c #A17467",
"m@	c #AF7641",
"n@	c #7B5832",
"o@	c #55483D",
"p@	c #9D7A44",
"q@	c #C4A55D",
"r@	c #51463B",
"s@	c #464136",
"t@	c #474B33",
"u@	c #418226",
"v@	c #3A8422",
"w@	c #328321",
"x@	c #368322",
"y@	c #538823",
"z@	c #338825",
"A@	c #30872A",
"B@	c #387731",
"C@	c #424439",
"D@	c #454238",
"E@	c #5D4D3B",
"F@	c #A4834D",
"G@	c #51483C",
"H@	c #504840",
"I@	c #94856C",
"J@	c #E2C289",
"K@	c #C06C2D",
"L@	c #B27749",
"M@	c #AA6926",
"N@	c #8D352C",
"O@	c #843439",
"P@	c #A84D2F",
"Q@	c #BE7C5F",
"R@	c #6F4E50",
"S@	c #A28049",
"T@	c #E3D096",
"U@	c #F1E5AA",
"V@	c #AC8C4F",
"W@	c #775739",
"X@	c #A06F37",
"Y@	c #4E6930",
"Z@	c #3A8322",
"`@	c #458622",
" #	c #548A24",
".#	c #4F8823",
"+#	c #478121",
"@#	c #4A8624",
"##	c #455B39",
"$#	c #46463D",
"%#	c #6D533C",
"&#	c #A4733C",
"*#	c #514A42",
"=#	c #554E47",
"-#	c #A59875",
";#	c #C9B572",
">#	c #F0BC2F",
",#	c #F8C449",
"'#	c #EEB839",
")#	c #D8952D",
"!#	c #BD6521",
"~#	c #C8862A",
"{#	c #74313E",
"]#	c #6E3E57",
"^#	c #745642",
"/#	c #A6834B",
"(#	c #E0CC8E",
"_#	c #EFE0A2",
":#	c #AD8B4E",
"<#	c #86613E",
"[#	c #D4BA76",
"}#	c #8F7C48",
"|#	c #528324",
"1#	c #538622",
"2#	c #528422",
"3#	c #528321",
"4#	c #378723",
"5#	c #348522",
"6#	c #3C7F2E",
"7#	c #474C41",
"8#	c #524B43",
"9#	c #A4844F",
"0#	c #CAB26F",
"a#	c #61544A",
"b#	c #8F7C53",
"c#	c #E6C469",
"d#	c #AC7B54",
"e#	c #EBC458",
"f#	c #F7DDA5",
"g#	c #F5C843",
"h#	c #F3C21E",
"i#	c #E9B424",
"j#	c #BE8056",
"k#	c #973231",
"l#	c #C3582B",
"m#	c #CEA34A",
"n#	c #7F7159",
"o#	c #97724C",
"p#	c #BD9357",
"q#	c #64574B",
"r#	c #6A5A44",
"s#	c #D8BE7C",
"t#	c #9D8353",
"u#	c #4E7A2B",
"v#	c #4A8422",
"w#	c #428522",
"x#	c #438623",
"y#	c #40683D",
"z#	c #795C42",
"A#	c #C29749",
"B#	c #EFE09F",
"C#	c #FAF1B3",
"D#	c #D1AC5D",
"E#	c #BD7C35",
"F#	c #EFC543",
"G#	c #C4953F",
"H#	c #B87C37",
"I#	c #E5A059",
"J#	c #D78327",
"K#	c #C96E35",
"L#	c #965A5C",
"M#	c #8D4C65",
"N#	c #D37228",
"O#	c #F0A52A",
"P#	c #EBB246",
"Q#	c #C4A866",
"R#	c #B19146",
"S#	c #956542",
"T#	c #98865B",
"U#	c #555149",
"V#	c #936A3F",
"W#	c #544F43",
"X#	c #407138",
"Y#	c #2A872D",
"Z#	c #318524",
"`#	c #347E28",
" $	c #49574C",
".$	c #53504B",
"+$	c #76614D",
"@$	c #C7AC6B",
"#$	c #E5CE8C",
"$$	c #A98873",
"%$	c #9C7D75",
"&$	c #D08D34",
"*$	c #E6B053",
"=$	c #C07027",
"-$	c #842B30",
";$	c #763137",
">$	c #983830",
",$	c #BA622D",
"'$	c #D3933E",
")$	c #EAAA24",
"!$	c #F2BA21",
"~$	c #E9B732",
"{$	c #9F684E",
"]$	c #C88C2C",
"^$	c #A98240",
"/$	c #6F5C42",
"($	c #55524D",
"_$	c #726B5D",
":$	c #5A5B54",
"<$	c #466945",
"[$	c #2E892D",
"}$	c #2E8225",
"|$	c #248C35",
"1$	c #258632",
"2$	c #3C7340",
"3$	c #505653",
"4$	c #555651",
"5$	c #71675C",
"6$	c #98765B",
"7$	c #E3B57A",
"8$	c #E9CD96",
"9$	c #DFC050",
"0$	c #954F2F",
"a$	c #B87231",
"b$	c #AD4228",
"c$	c #932C2D",
"d$	c #781F32",
"e$	c #86363B",
"f$	c #D47B31",
"g$	c #DF943B",
"h$	c #E1A543",
"i$	c #C48956",
"j$	c #876281",
"k$	c #B48951",
"l$	c #F1B532",
"m$	c #EDC85D",
"n$	c #E0B749",
"o$	c #B5883B",
"p$	c #6A5A4B",
"q$	c #515553",
"r$	c #55634E",
"s$	c #258936",
"t$	c #238733",
"u$	c #258E36",
"v$	c #228533",
"w$	c #248434",
"x$	c #496751",
"y$	c #837759",
"z$	c #988A60",
"A$	c #8F7D4D",
"B$	c #D0AB5A",
"C$	c #E8B22D",
"D$	c #EFC138",
"E$	c #F9D153",
"F$	c #EEB32D",
"G$	c #C17729",
"H$	c #B36422",
"I$	c #742B39",
"J$	c #61242C",
"K$	c #C7742A",
"L$	c #B96634",
"M$	c #98372C",
"N$	c #954236",
"O$	c #91514A",
"P$	c #6D3A3A",
"Q$	c #C17B2A",
"R$	c #F4CD74",
"S$	c #F1CB46",
"T$	c #EEBB3A",
"U$	c #E59A2D",
"V$	c #CD9334",
"W$	c #6A5E50",
"X$	c #998E66",
"Y$	c #2C8136",
"Z$	c #238734",
"`$	c #258833",
" %	c #348240",
".%	c #556260",
"+%	c #5E6160",
"@%	c #66635C",
"#%	c #916E4B",
"$%	c #C5AB6D",
"%%	c #A76439",
"&%	c #F4D07F",
"*%	c #F7D287",
"=%	c #E8B326",
"-%	c #E2B152",
";%	c #B6602D",
">%	c #A74230",
",%	c #B54A28",
"'%	c #AF592D",
")%	c #AC5936",
"!%	c #8D2E2E",
"~%	c #92352E",
"{%	c #A86A2D",
"]%	c #C77336",
"^%	c #BB8733",
"/%	c #D3992B",
"(%	c #DF8121",
"_%	c #DF9F4D",
":%	c #D99739",
"<%	c #BE7D4C",
"[%	c #835938",
"}%	c #595E5D",
"|%	c #447B48",
"1%	c #2C892E",
"2%	c #278A32",
"3%	c #328826",
"4%	c #4B7C53",
"5%	c #7A796A",
"6%	c #BDAF7B",
"7%	c #CDB579",
"8%	c #D1BC70",
"9%	c #EBBC39",
"0%	c #D5AD3B",
"a%	c #C28A37",
"b%	c #C77433",
"c%	c #A84E29",
"d%	c #873333",
"e%	c #9D5E2D",
"f%	c #DD9227",
"g%	c #EFAE36",
"h%	c #F8D02C",
"i%	c #F1BC2D",
"j%	c #E08D1A",
"k%	c #CA8827",
"l%	c #D4A63F",
"m%	c #F3D183",
"n%	c #F1B632",
"o%	c #D7861A",
"p%	c #A55025",
"q%	c #A44439",
"r%	c #793B5A",
"s%	c #86465A",
"t%	c #B25434",
"u%	c #876F61",
"v%	c #5C6F60",
"w%	c #39892F",
"x%	c #358A27",
"y%	c #557455",
"z%	c #D4B533",
"A%	c #EFB82A",
"B%	c #D1AD33",
"C%	c #E0B727",
"D%	c #F0B828",
"E%	c #F1B543",
"F%	c #E8B028",
"G%	c #DBAF3D",
"H%	c #BA652A",
"I%	c #802B30",
"J%	c #894C38",
"K%	c #E2B749",
"L%	c #F8DEA4",
"M%	c #F4C633",
"N%	c #F2C539",
"O%	c #E5B325",
"P%	c #A56943",
"Q%	c #AE7A33",
"R%	c #EC9C43",
"S%	c #E89838",
"T%	c #E4A928",
"U%	c #DD9B3F",
"V%	c #A15D6A",
"W%	c #933D39",
"X%	c #BE6D3C",
"Y%	c #8E5254",
"Z%	c #CB8434",
"`%	c #BDA73F",
" &	c #4C7E47",
".&	c #488A27",
"+&	c #50674F",
"@&	c #CF9F41",
"#&	c #D4A427",
"$&	c #C7A834",
"%&	c #A26942",
"&&	c #E9B846",
"*&	c #EFC267",
"=&	c #D9A02D",
"-&	c #AE552C",
";&	c #B34D25",
">&	c #C7692D",
",&	c #C07B2B",
"'&	c #B37E3B",
")&	c #DF995D",
"!&	c #CF7B33",
"~&	c #B7654A",
"{&	c #96504C",
"]&	c #9B433E",
"^&	c #C55B29",
"/&	c #A24C27",
"(&	c #A54429",
"_&	c #965239",
":&	c #874D50",
"<&	c #81394C",
"[&	c #9F352F",
"}&	c #A2382A",
"|&	c #B04927",
"1&	c #C8603B",
"2&	c #DE9122",
"3&	c #566E3B",
"4&	c #558924",
"5&	c #4F7C41",
"6&	c #643E52",
"7&	c #C8A421",
"8&	c #EDBA22",
"9&	c #D9B43D",
"0&	c #BC8833",
"a&	c #B26937",
"b&	c #A84A2B",
"c&	c #9F6627",
"d&	c #DB9520",
"e&	c #F5BA47",
"f&	c #F6C345",
"g&	c #DEAA2A",
"h&	c #CB9826",
"i&	c #6E384B",
"j&	c #9C6C48",
"k&	c #DDAE2F",
"l&	c #E89836",
"m&	c #F2D14B",
"n&	c #E6AE2D",
"o&	c #CE5F1D",
"p&	c #BB4F20",
"q&	c #C2572D",
"r&	c #D5591A",
"s&	c #D55318",
"t&	c #CE521D",
"u&	c #CB5621",
"v&	c #B4692C",
"w&	c #B87A67",
"x&	c #51713C",
"y&	c #498522",
"z&	c #478624",
"A&	c #466D3F",
"B&	c #BC9133",
"C&	c #EEC449",
"D&	c #F4C152",
"E&	c #F1BC27",
"F&	c #E5B431",
"G&	c #B4614F",
"H&	c #7D4246",
"I&	c #E3B12C",
"J&	c #F3D99F",
"K&	c #ECC262",
"L&	c #CE983F",
"M&	c #A45147",
"N&	c #7F3042",
"O&	c #9E6453",
"P&	c #EECC5A",
"Q&	c #F8B228",
"R&	c #F3C539",
"S&	c #EBB32C",
"T&	c #DC7522",
"U&	c #BE6026",
"V&	c #E6B867",
"W&	c #EDBE2A",
"X&	c #E19B1C",
"Y&	c #D88E2D",
"Z&	c #DF8E3D",
"`&	c #733843",
" *	c #504659",
".*	c #518130",
"+*	c #338322",
"@*	c #328223",
"#*	c #5E6F4E",
"$*	c #D5A36F",
"%*	c #DAA157",
"&*	c #C3743D",
"**	c #914954",
"=*	c #974F54",
"-*	c #BF632F",
";*	c #B5752F",
">*	c #C07747",
",*	c #B15D31",
"'*	c #9C4733",
")*	c #A74833",
"!*	c #D47828",
"~*	c #A54D30",
"{*	c #CF9D4B",
"]*	c #EEBC1E",
"^*	c #F1A72B",
"/*	c #EB9B33",
"(*	c #E4A03D",
"_*	c #92563A",
":*	c #A94C31",
"<*	c #AC5035",
"[*	c #C27137",
"}*	c #BC735D",
"|*	c #7D5B86",
"1*	c #4A4A60",
"2*	c #4C7553",
"3*	c #3A8724",
"4*	c #378622",
"5*	c #318424",
"6*	c #348623",
"7*	c #44712E",
"8*	c #625149",
"9*	c #482943",
"0*	c #6C3340",
"a*	c #E1A825",
"b*	c #F0C666",
"c*	c #E9B235",
"d*	c #D4A12A",
"e*	c #A16633",
"f*	c #E4B225",
"g*	c #F2AF2B",
"h*	c #F6C42C",
"i*	c #E29D25",
"j*	c #93453C",
"k*	c #9E554D",
"l*	c #B3755F",
"m*	c #B4897D",
"n*	c #905771",
"o*	c #BD6D3C",
"p*	c #926D6D",
"q*	c #3C2445",
"r*	c #4B2F48",
"s*	c #473951",
"t*	c #4C5261",
"u*	c #587965",
"v*	c #3A8C2F",
"w*	c #268932",
"x*	c #2D8429",
"y*	c #318422",
"z*	c #378230",
"A*	c #3D674D",
"B*	c #474B54",
"C*	c #A86E3A",
"D*	c #DD9D4A",
"E*	c #DD962D",
"F*	c #C76A2C",
"G*	c #833439",
"H*	c #A3644B",
"I*	c #D6BA6F",
"J*	c #E0B532",
"K*	c #DDB13E",
"L*	c #C48D27",
"M*	c #9D5A3F",
"N*	c #63375A",
"O*	c #4A2546",
"P*	c #5E2D47",
"Q*	c #593A4F",
"R*	c #46455B",
"S*	c #555C69",
"T*	c #5A676B",
"U*	c #51765D",
"V*	c #428547",
"W*	c #2B8734",
"X*	c #278731",
"Y*	c #2A852C",
"Z*	c #298C32",
"`*	c #228734",
" =	c #29852D",
".=	c #2D872B",
"+=	c #2E8025",
"@=	c #318725",
"#=	c #318929",
"$=	c #2A8336",
"%=	c #367A42",
"&=	c #4E6345",
"*=	c #67544E",
"==	c #584A53",
"-=	c #4F4F5C",
";=	c #4B3B53",
">=	c #8A543E",
",=	c #AD7E4D",
"'=	c #B07D41",
")=	c #AC773C",
"!=	c #8A5A52",
"~=	c #4C4964",
"{=	c #5E666F",
"]=	c #646F75",
"^=	c #5C646F",
"/=	c #657477",
"(=	c #5D816C",
"_=	c #408245",
":=	c #318428",
"<=	c #29872E",
"[=	c #228433",
"}=	c #308827",
"|=	c #318927",
"1=	c #268631",
"2=	c #258A36",
"3=	c #2B863B",
"4=	c #3C834C",
"5=	c #488358",
"6=	c #4A7D5B",
"7=	c #447053",
"8=	c #45684C",
"9=	c #4B6152",
"0=	c #4F625C",
"a=	c #5A7069",
"b=	c #5D776E",
"c=	c #648074",
"d=	c #5E806E",
"e=	c #548163",
"f=	c #3F854F",
"g=	c #258134",
"h=	c #2D8629",
"i=	c #2A892F",
"j=	c #248B34",
"k=	c #29872F",
"l=	c #2F8829",
"m=	c #368C24",
"n=	c #3E8622",
"o=	c #368522",
"p=	c #338C27",
"q=	c #2F8728",
"r=	c #2A8B30",
"s=	c #28852E",
"t=	c #2D8428",
"u=	c #2C872C",
"v=	c #328626",
"w=	c #358926",
"x=	c #388828",
"y=	c #438829",
"z=	c #358428",
"A=	c #368C2C",
"B=	c #2F8731",
"C=	c #2C8932",
"D=	c #2B852D",
"E=	c #2D8227",
"F=	c #2D882C",
"G=	c #348A24",
"H=	c #3B8622",
"I=	c #318A28",
"J=	c #2E8527",
"K=	c #448A23",
"L=	c #548923",
"M=	c #408723",
"N=	c #358C24",
"O=	c #2B852B",
"P=	c #28842E",
"Q=	c #328724",
"R=	c #558B24",
"S=	c #358C25",
"T=	c #338923",
"U=	c #3B8A24",
"V=	c #528923",
"W=	c #4A8823",
"X=	c #358B24",
"  . + @ # $ % & *   = - ; > , ' ) ! ~ ' { ] ^ / ( _ : < [ } | 1 ",
"2 3 4 5 6 7 8 = 9 0 a b c d e f g h i j k l m n o p q r s t u v ",
"w x y z A B C D E F w G H I J K L M N O P Q R b S T U V W X F Y ",
"& Z `  ...+.x @.#.$.%.&.*.=.-.;.>.,.'.).!.~.{.].^./.D a (.@._.:.",
"{ <.[.}.' = |.1.2.' <.3.4.5.6.7.8.9.0.a.b.c.<.[.* d.1 |.1.e.1 }.",
"f.g.3.3.h.i.j.k.l.m.n.o.p.q.r.s.t.u.v.w.x.y.z.A.B.h.d.C.D.E.F.G.",
"H.I.J.m.K.L.M.N.O.P.Q.R.S.T.U.V.W.X.Y.Z.`. +.+++h.3.@+#+O.$+%+&+",
"*+=+-+;+>+,+'+)+!+~+{+]+^+/+(+_+:+<+[+}+|+1+2+3+4+5+6+7+8+9+0+0+",
"a+b+9+c+d+e+f+g+h+i+j+k+l+m+n+o+p+q+r+s+t+u+v+w+x+y+J.<.<.z+A+a+",
"B+C+_ D+* E+F+G+H+I+J+K+L+M+N+O+P+Q+R+S+T+U+V+W+X+Y+Z+`+ @.@c +@",
"- @@#@$@d.%@&@*@=@-@;@>@,@'@)@!@~@{@]@^@/@(@_@:@<@[@}@|@1@' 2@3@",
"4@5@6@7@8@9@0@a@b@c@d@e@f@g@h@i@j@k@l@m@n@o@p@q@r@s@t@u@v@w@e.x@",
"y@m z@A@B@C@D@E@F@G@H@I@J@K@L@M@N@O@P@Q@R@S@T@U@V@W@X@Y@Z@`@ #G ",
"#..#+#@###$#%#&#*#=#-#;#>#,#'#)#!#~#{#]#^#/#(#_#:#<#[#}#|#1#2#3#",
"4#1 5#6#7#8#9#0#a#b#c#d#e#f#g#h#i#j#k#l#m#n#o#p#q#r#s#t#u#v#w#x#",
"A.K.3.y#z#A#B#C#D#E#F#G#H#I#J#K#L#M#N#O#P#Q#R#S#T#U#V#W#X#' d.<.",
"Y#Z#`# $.$+$@$#$$$%$&$*$=$-$;$>$,$'$)$!$~${$]$^$/$($_$:$<$[$}$$@",
"|$1$2$3$4$5$6$7$8$9$0$a$b$c$d$e$f$g$h$i$j$k$l$m$n$o$p$q$r$s$t$u$",
"v$w$x$y$z$A$B$C$D$E$F$G$H$I$J$K$L$M$N$O$P$Q$R$S$T$U$V$W$X$Y$> Z$",
"`$ %.%+%@%#%$%%%&%*%=%-%;%>%,%'%)%!%~%{%]%^%/%(%_%:%<%[%}%|%1%2%",
"3%4%5%6%7%8%9%0%a%b%c%d%e%f%g%h%i%j%k%l%m%n%o%p%q%r%s%t%u%v%w%j.",
"x%y%z%A%B%C%D%E%F%G%H%I%J%K%L%M%N%O%P%Q%R%S%T%U%V%W%X%Y%Z%`% &B.",
".&+&@&#&$&%&&&*&=&-&;&>&,&'&)&!&~&{&]&^&/&(&_&:&<&[&}&|&1&2&3&$ ",
"4&5&6&7&8&9&0&a&b&c&d&e&f&g&h&i&j&k&l&m&n&o&p&q&r&s&t&u&v&w&x&w ",
"y&z&A&B&C&D&E&F&G&H&I&J&K&L&M&N&O&P&Q&R&S&T&U&V&W&X&Y&Z&`& *.*@.",
"+*A.@*#*$*%*&***=*-*;*>*,*'*)*!*~*{*]*^*/*(*_*:*<*[*}*|*1*2*3*4*",
"5** m.6*7*8*9*0*a*b*c*d*e*f*g*h*i*j*k*l*m*n*o*p*q*r*s*t*u*v** 7+",
"w*x*y*y*L.z*A*B*C*D*E*F*G*H*I*J*K*L*M*N*O*P*Q*R*S*T*U*V*W*X*Y*Z*",
"`*>  =.=+=@=#=$=%=&=*===-=;=>=,='=)=!=~={=]=^=/=(=_=:=k.<=> v$|$",
"> [=Z$-+Y#}=<.|=1=2=3=4=5=6=7=8=9=0=a=b=c=d=e=f=g=<=h=m.# i=j=Z$",
"k=4 x*l=* m=n=o=p=q=r=s=t=u=v=w=x=y=z=A=B=C=D=E=F=7+G=H=H='+I=5 ",
"G=.=s=J=<.K=L=M=[.N='+j.O=P=Q=}...R== G=S=T=5@ =>+<.U=V=W=  X=7+"};
