/* XPM */
static char * wall_32_xpm[] = {
"32 32 698 2",
"  	c #358A23",
". 	c #2C872B",
"+ 	c #238432",
"@ 	c #298A31",
"# 	c #328624",
"$ 	c #438723",
"% 	c #488823",
"& 	c #3C8021",
"* 	c #328522",
"= 	c #358723",
"- 	c #338724",
"; 	c #28862F",
"> 	c #238834",
", 	c #2C862B",
"' 	c #348723",
") 	c #488723",
"! 	c #488923",
"~ 	c #358021",
"{ 	c #338722",
"] 	c #368A24",
"^ 	c #308626",
"/ 	c #248531",
"( 	c #258933",
"_ 	c #2F8627",
": 	c #3A8623",
"< 	c #498A24",
"[ 	c #438422",
"} 	c #328121",
"| 	c #358923",
"1 	c #348622",
"2 	c #508A23",
"3 	c #358623",
"4 	c #2D862A",
"5 	c #2A882F",
"6 	c #29842D",
"7 	c #308224",
"8 	c #317E20",
"9 	c #448622",
"0 	c #4D8823",
"a 	c #508723",
"b 	c #468823",
"c 	c #328524",
"d 	c #2C882D",
"e 	c #2A872F",
"f 	c #2A812A",
"g 	c #318021",
"h 	c #338321",
"i 	c #358321",
"j 	c #4B8A24",
"k 	c #4B8522",
"l 	c #528B24",
"m 	c #3C8422",
"n 	c #308727",
"o 	c #2A872E",
"p 	c #2A862E",
"q 	c #2D8127",
"r 	c #317F21",
"s 	c #348422",
"t 	c #3C8522",
"u 	c #4D8A24",
"v 	c #4C8422",
"w 	c #568923",
"x 	c #508823",
"y 	c #448723",
"z 	c #468924",
"A 	c #498824",
"B 	c #448522",
"C 	c #498322",
"D 	c #4D8422",
"E 	c #548722",
"F 	c #548522",
"G 	c #568B24",
"H 	c #4A8622",
"I 	c #438924",
"J 	c #498823",
"K 	c #448523",
"L 	c #458422",
"M 	c #4D8622",
"N 	c #4F8322",
"O 	c #538422",
"P 	c #558723",
"Q 	c #568A23",
"R 	c #528723",
"S 	c #458B24",
"T 	c #498723",
"U 	c #468623",
"V 	c #448221",
"W 	c #4E8522",
"X 	c #528522",
"Y 	c #578A23",
"Z 	c #398121",
"` 	c #397E20",
" .	c #428723",
"..	c #4B8923",
"+.	c #4D8322",
"@.	c #518321",
"#.	c #518522",
"$.	c #4B8422",
"%.	c #478322",
"&.	c #3A8121",
"*.	c #4A742A",
"=.	c #417B25",
"-.	c #477E24",
";.	c #4D7F22",
">.	c #436829",
",.	c #4D4D44",
"'.	c #3F6528",
").	c #407F21",
"!.	c #398021",
"~.	c #3A8021",
"{.	c #3C8321",
"].	c #498A23",
"^.	c #528622",
"/.	c #4C8522",
"(.	c #4A8322",
"_.	c #338723",
":.	c #348923",
"<.	c #338622",
"[.	c #358422",
"}.	c #398723",
"|.	c #378823",
"1.	c #338523",
"2.	c #325B29",
"3.	c #5D8033",
"4.	c #537331",
"5.	c #414E3B",
"6.	c #78706A",
"7.	c #948A80",
"8.	c #938A80",
"9.	c #67605C",
"0.	c #395632",
"a.	c #316627",
"b.	c #327825",
"c.	c #328322",
"d.	c #348823",
"e.	c #388823",
"f.	c #2D8328",
"g.	c #308122",
"h.	c #328422",
"i.	c #338623",
"j.	c #358A24",
"k.	c #328926",
"l.	c #328A27",
"m.	c #328825",
"n.	c #338823",
"o.	c #2D8429",
"p.	c #31652A",
"q.	c #4E4F46",
"r.	c #6E6762",
"s.	c #706A62",
"t.	c #646A56",
"u.	c #6F6962",
"v.	c #9B9186",
"w.	c #9D9388",
"x.	c #959679",
"y.	c #68625B",
"z.	c #645F58",
"A.	c #6E6661",
"B.	c #5F5B55",
"C.	c #4B4C43",
"D.	c #337527",
"E.	c #338A25",
"F.	c #328927",
"G.	c #318926",
"H.	c #328723",
"I.	c #318928",
"J.	c #248934",
"K.	c #29862E",
"L.	c #318625",
"M.	c #308021",
"N.	c #328523",
"O.	c #29882F",
"P.	c #258934",
"Q.	c #248733",
"R.	c #26822F",
"S.	c #3E5D3D",
"T.	c #9C9287",
"U.	c #948B81",
"V.	c #7B726C",
"W.	c #69625E",
"X.	c #857B73",
"Y.	c #8D8678",
"Z.	c #718449",
"`.	c #67724D",
" +	c #788852",
".+	c #898176",
"++	c #958B81",
"@+	c #847B73",
"#+	c #5F5B54",
"$+	c #327326",
"%+	c #2E892B",
"&+	c #258B35",
"*+	c #25822F",
"=+	c #258B34",
"-+	c #238935",
";+	c #228633",
">+	c #248431",
",+	c #27832E",
"'+	c #2B842B",
")+	c #308928",
"!+	c #338924",
"~+	c #28842D",
"{+	c #238634",
"]+	c #3F5D3E",
"^+	c #78716A",
"/+	c #857C74",
"(+	c #9B9287",
"_+	c #9C9486",
":+	c #8A8B6F",
"<+	c #756E66",
"[+	c #5B5553",
"}+	c #585250",
"|+	c #657845",
"1+	c #617C3D",
"2+	c #61823A",
"3+	c #71844B",
"4+	c #808E5A",
"5+	c #90877C",
"6+	c #52504A",
"7+	c #317725",
"8+	c #2C852A",
"9+	c #248632",
"0+	c #238934",
"a+	c #238633",
"b+	c #238532",
"c+	c #288830",
"d+	c #2E8628",
"e+	c #338925",
"f+	c #338522",
"g+	c #3D5C39",
"h+	c #79716B",
"i+	c #9B9286",
"j+	c #968D82",
"k+	c #8BA05B",
"l+	c #6F7A51",
"m+	c #636D4A",
"n+	c #534D4C",
"o+	c #5D5755",
"p+	c #676D58",
"q+	c #6C7957",
"r+	c #646B55",
"s+	c #5A644C",
"t+	c #56544C",
"u+	c #6F6762",
"v+	c #375631",
"w+	c #2E882B",
"x+	c #298D33",
"y+	c #2E882A",
"z+	c #318826",
"A+	c #308525",
"B+	c #388C24",
"C+	c #4A8A23",
"D+	c #357524",
"E+	c #524E4A",
"F+	c #8C827A",
"G+	c #9C9386",
"H+	c #889464",
"I+	c #9B9483",
"J+	c #72963F",
"K+	c #525E44",
"L+	c #635E59",
"M+	c #7A726C",
"N+	c #9B9187",
"O+	c #8E847B",
"P+	c #554F4E",
"Q+	c #665F5B",
"R+	c #837A72",
"S+	c #67605D",
"T+	c #3E4039",
"U+	c #408423",
"V+	c #348A23",
"W+	c #2F8B2B",
"X+	c #29862D",
"Y+	c #248330",
"Z+	c #2D882B",
"`+	c #468522",
" @	c #4B7A1E",
".@	c #345A23",
"+@	c #57514F",
"@@	c #7C736C",
"#@	c #93897F",
"$@	c #677950",
"%@	c #7F9157",
"&@	c #5F7D3C",
"*@	c #645F59",
"=@	c #8D837A",
"-@	c #877D75",
";@	c #746C66",
">@	c #544F4D",
",@	c #5B5654",
"'@	c #5E5856",
")@	c #3F4039",
"!@	c #4C8423",
"~@	c #358D24",
"{@	c #328623",
"]@	c #3F8E24",
"^@	c #308828",
"/@	c #258732",
"(@	c #268832",
"_@	c #2E8527",
":@	c #357223",
"<@	c #34741D",
"[@	c #2C5722",
"}@	c #504B4A",
"|@	c #68615D",
"1@	c #7B746B",
"2@	c #6D7753",
"3@	c #5A783C",
"4@	c #67625B",
"5@	c #867D74",
"6@	c #6D6661",
"7@	c #4E4948",
"8@	c #514C4A",
"9@	c #3D3F37",
"0@	c #398222",
"a@	c #328321",
"b@	c #368322",
"c@	c #538823",
"d@	c #338825",
"e@	c #30862A",
"f@	c #2C7C28",
"g@	c #507430",
"h@	c #2E5128",
"i@	c #2E4628",
"j@	c #44403F",
"k@	c #524D4B",
"l@	c #5F5957",
"m@	c #525C45",
"n@	c #55514C",
"o@	c #8C837A",
"p@	c #9C9288",
"q@	c #8D847A",
"r@	c #55504E",
"s@	c #3F3B3B",
"t@	c #343E2F",
"u@	c #398022",
"v@	c #458622",
"w@	c #548A24",
"x@	c #4F8823",
"y@	c #447D20",
"z@	c #3F7021",
"A@	c #4E6F2C",
"B@	c #526D40",
"C@	c #6A7452",
"D@	c #707658",
"E@	c #494443",
"F@	c #4C4746",
"G@	c #4F4A48",
"H@	c #706863",
"I@	c #8F867C",
"J@	c #7E776C",
"K@	c #6A7351",
"L@	c #4D4847",
"M@	c #3F4036",
"N@	c #607B35",
"O@	c #4A7824",
"P@	c #538622",
"Q@	c #528422",
"R@	c #528321",
"S@	c #378723",
"T@	c #328221",
"U@	c #2D751D",
"V@	c #306922",
"W@	c #5F6B50",
"X@	c #928A7E",
"Y@	c #788B5B",
"Z@	c #938B7E",
"`@	c #756D67",
" #	c #3C3837",
".#	c #827971",
"+#	c #90877E",
"@#	c #72864A",
"##	c #6C8240",
"$#	c #484641",
"%#	c #5E7540",
"&#	c #3E5F2E",
"*#	c #4E742B",
"=#	c #428522",
"-#	c #438623",
";#	c #29711C",
">#	c #2B731D",
",#	c #2D5825",
"'#	c #6F6862",
")#	c #9C9387",
"!#	c #776E68",
"~#	c #56514F",
"{#	c #413D3C",
"]#	c #7B726B",
"^#	c #807870",
"/#	c #7B736C",
"(#	c #867E74",
"_#	c #717A55",
":#	c #70963C",
"<#	c #4E673B",
"[#	c #5A5552",
"}#	c #777965",
"|#	c #6B705C",
"1#	c #385530",
"2#	c #328122",
"3#	c #277F2A",
"4#	c #2A741E",
"5#	c #2C761D",
"6#	c #2B5924",
"7#	c #635C59",
"8#	c #514C4B",
"9#	c #5D6844",
"0#	c #69645D",
"a#	c #8D857A",
"b#	c #808465",
"c#	c #746D65",
"d#	c #627942",
"e#	c #5F7E3C",
"f#	c #635F58",
"g#	c #8C8279",
"h#	c #514D4A",
"i#	c #286B26",
"j#	c #2C7E23",
"k#	c #218431",
"l#	c #1F752B",
"m#	c #267322",
"n#	c #295923",
"o#	c #605A58",
"p#	c #56504F",
"q#	c #403C3B",
"r#	c #4A4742",
"s#	c #4D5B3E",
"t#	c #525F43",
"u#	c #615C57",
"v#	c #6E6662",
"w#	c #68605C",
"x#	c #7D746D",
"y#	c #6E6A5E",
"z#	c #78924C",
"A#	c #4D4C45",
"B#	c #776F69",
"C#	c #56504E",
"D#	c #255C2B",
"E#	c #1E772C",
"F#	c #258D36",
"G#	c #1F7D2F",
"H#	c #1D742C",
"I#	c #1D762C",
"J#	c #235A29",
"K#	c #3E3A3A",
"L#	c #524C4B",
"M#	c #454140",
"N#	c #707A55",
"O#	c #6E923A",
"P#	c #5A783A",
"Q#	c #56554D",
"R#	c #5A5553",
"S#	c #605956",
"T#	c #656159",
"U#	c #6D8A40",
"V#	c #63833C",
"W#	c #627048",
"X#	c #687D40",
"Y#	c #6E6860",
"Z#	c #97977A",
"`#	c #9D9387",
" $	c #8D847B",
".$	c #265928",
"+$	c #1D772D",
"@$	c #207F31",
"#$	c #217528",
"$$	c #237527",
"%$	c #256625",
"&$	c #353631",
"*$	c #474242",
"=$	c #92897E",
"-$	c #748456",
";$	c #7F796E",
">$	c #6D7653",
",$	c #607442",
"'$	c #525B47",
")$	c #4E4A47",
"!$	c #4B593E",
"~$	c #515D45",
"{$	c #5A703E",
"]$	c #586E3D",
"^$	c #6C7652",
"/$	c #828F63",
"($	c #766E68",
"_$	c #575150",
":$	c #4B4645",
"<$	c #2B5C25",
"[$	c #257826",
"}$	c #24822F",
"|$	c #257323",
"1$	c #29741F",
"2$	c #2A6520",
"3$	c #353732",
"4$	c #423E3D",
"5$	c #756C67",
"6$	c #7D756E",
"7$	c #9A9085",
"8$	c #716A64",
"9$	c #423D3D",
"0$	c #655E5A",
"a$	c #877F76",
"b$	c #8C8379",
"c$	c #69645E",
"d$	c #586C46",
"e$	c #66635B",
"f$	c #474241",
"g$	c #2B5A22",
"h$	c #2D7A1E",
"i$	c #2F8123",
"j$	c #348B24",
"k$	c #29852D",
"l$	c #1E772D",
"m$	c #257726",
"n$	c #2D771D",
"o$	c #3A6820",
"p$	c #385721",
"q$	c #32322F",
"r$	c #514B4A",
"s$	c #8B8279",
"t$	c #5C5754",
"u$	c #393535",
"v$	c #2A5B22",
"w$	c #2E7A1E",
"x$	c #2F7F20",
"y$	c #468A23",
"z$	c #22802F",
"A$	c #247526",
"B$	c #2D761F",
"C$	c #2E741D",
"D$	c #31332E",
"E$	c #474342",
"F$	c #8E857C",
"G$	c #968C82",
"H$	c #9A9086",
"I$	c #45403F",
"J$	c #2E4928",
"K$	c #2D701C",
"L$	c #3D7E1F",
"M$	c #438722",
"N$	c #558924",
"O$	c #478723",
"P$	c #378322",
"Q$	c #3A8925",
"R$	c #3A8425",
"S$	c #2F711C",
"T$	c #356E1B",
"U$	c #334A28",
"V$	c #736B65",
"W$	c #605A57",
"X$	c #6F6763",
"Y$	c #4D4846",
"Z$	c #3F3A3A",
"`$	c #2F4627",
" %	c #3C731D",
".%	c #477B1F",
"+%	c #498522",
"@%	c #468723",
"#%	c #4C8A23",
"$%	c #528823",
"%%	c #4D7E1F",
"&%	c #47741D",
"*%	c #40631F",
"=%	c #363631",
"-%	c #3F3B3A",
";%	c #5A5452",
">%	c #484443",
",%	c #363731",
"'%	c #385822",
")%	c #3B5A21",
"!%	c #46731D",
"~%	c #4B791E",
"{%	c #528221",
"]%	c #528623",
"^%	c #338322",
"/%	c #318121",
"(%	c #318221",
"_%	c #338422",
":%	c #388B24",
"<%	c #3A8422",
"[%	c #38791E",
"}%	c #3A741D",
"|%	c #346620",
"1%	c #353731",
"2%	c #3A3636",
"3%	c #433F3E",
"4%	c #324529",
"5%	c #3B3C36",
"6%	c #2A631F",
"7%	c #2F791D",
"8%	c #337B1F",
"9%	c #3B8121",
"0%	c #418522",
"a%	c #378622",
"b%	c #318424",
"c%	c #29641F",
"d%	c #2D4928",
"e%	c #31342E",
"f%	c #2B6B21",
"g%	c #2B6820",
"h%	c #31362E",
"i%	c #32342E",
"j%	c #2B671F",
"k%	c #2E7B1E",
"l%	c #348A24",
"m%	c #358C25",
"n%	c #338824",
"o%	c #268932",
"p%	c #318422",
"q%	c #2A882E",
"r%	c #288730",
"s%	c #247B2B",
"t%	c #267926",
"u%	c #1F782C",
"v%	c #227328",
"w%	c #285923",
"x%	c #2D4728",
"y%	c #31332D",
"z%	c #30362D",
"A%	c #256929",
"B%	c #227728",
"C%	c #247928",
"D%	c #257728",
"E%	c #21792D",
"F%	c #247225",
"G%	c #297520",
"H%	c #2F892A",
"I%	c #278731",
"J%	c #2A852C",
"K%	c #298C32",
"L%	c #228734",
"M%	c #2D872B",
"N%	c #2E8025",
"O%	c #318725",
"P%	c #258531",
"Q%	c #238A35",
"R%	c #228333",
"S%	c #218331",
"T%	c #1F7D30",
"U%	c #1F772C",
"V%	c #257525",
"W%	c #277423",
"X%	c #287120",
"Y%	c #2B751F",
"Z%	c #287C27",
"`%	c #228231",
" &	c #238734",
".&	c #248834",
"+&	c #278630",
"@&	c #2B852B",
"#&	c #2E8427",
"$&	c #2F8425",
"%&	c #29872E",
"&&	c #228533",
"*&	c #248C35",
"=&	c #228433",
"-&	c #2A872D",
";&	c #308827",
">&	c #318927",
",&	c #258631",
"'&	c #248B35",
")&	c #228232",
"!&	c #268530",
"~&	c #328725",
"{&	c #238733",
"]&	c #228131",
"^&	c #2D8629",
"/&	c #2A892F",
"(&	c #248B34",
"_&	c #29872F",
":&	c #2F8829",
"<&	c #368C24",
"[&	c #3E8622",
"}&	c #368522",
"|&	c #338C27",
"1&	c #2F8728",
"2&	c #2A8B30",
"3&	c #28852E",
"4&	c #2D8428",
"5&	c #2C872C",
"6&	c #368923",
"7&	c #418823",
"8&	c #2C882C",
"9&	c #298930",
"0&	c #2D8227",
"a&	c #2D882C",
"b&	c #3B8622",
"c&	c #318A28",
"d&	c #448A23",
"e&	c #548923",
"f&	c #408723",
"g&	c #358C24",
"h&	c #28842E",
"i&	c #328724",
"j&	c #558B24",
"k&	c #338923",
"l&	c #3B8A24",
"m&	c #528923",
"n&	c #4A8823",
"o&	c #358B24",
"  . + @ # $ % & *   = - ; > , ' ) ! ~ ' { ] ^ / ( _ : < [ } | 1 ",
"2 3 4 5 6 7 8 = 9 0 a b c d e f g h i j k l m n o p q r s t u v ",
"w x y z A B C D E F w G H I J K L M N O P Q R b S T U V W X F Y ",
"& Z `  ...+.x @.#.$.%.&.` *.=.-.;.>.,.,.'.).!.~.{.].D a ^.@./.(.",
"{ _.:.<.' = [.}.|.' _.* 1.2.3.4.5.6.7.8.9.0.a.b.c.d.1 [.}.e.1 <.",
"f.g.h.h.i.j.k.l.m.n.o.p.q.r.s.t.u.v.w.x.y.z.A.B.C.D.d.E.F.G.H.I.",
"J.K.L.n.M.N.O.P.Q.R.S.r.8.T.U.V.W.X.Y.Z.`. +.+++@+#+$+%+Q.&+*+=+",
"-+;+>+,+'+)+!+~+{+]+^+/+(+_+:+<+[+}+|+1+2+3+4+5+T.X.6+7+8+9+0+0+",
"a+b+9+c+d+e+f+- g+h+T.i+j+k+l+m+n+o+p+q+r+s+t+u+7.U.A.v+i.w+x+a+",
"y+z+_ A+* B+C+D+E+F+G+H+I+J+K+L+M+7.N+N+O+X.r.P+Q+R+S+T+U+V+c W+",
"- X+Y+Z+d.`+ @.@+@@@#@$@%@&@*@=@T.w.w.w.w.T.-@;@>@,@'@)@!@' ~@{@",
"]@^@/@(@_@:@<@[@}@|@1@2@3@4@7.w.w.w.w.w.w.w.T.5@6@7@8@9@0@a@e.b@",
"c@m d@e@f@g@h@i@j@k@l@m@n@o@w.w.w.w.p@w.w.w.w.q@r.r@s@t@u@v@w@G ",
"#.x@y@z@A@B@C@D@[+E@F@G@H@v.w.w.w.T.I@p@w.w.N+J@K@L@M@N@O@P@Q@R@",
"S@T@U@V@W@X@Y@Z@`@7@ #[+@@N+w.w.T..#+#w.w.T./+@###$#%#&#*#C =#-#",
"g ;#>#,#'#N+)#v.!#~#{#l@]#-@T.T.^#/#T.w.N+(#_#:#<#[#}#|#1#2#d._.",
"3#4#5#6#7#X.O+/+S+8#9#3+0#]#5@/+Q+@+v.a#b#c#d#e#f#^#T.g#h#i#j#Z+",
"k#l#m#n#L@o#r.|@p#q#r#s#t#u#;@v#w#@@x#y#z#u#A#*@7.T.N+B#C#D#E#F#",
"G#H#I#J#K#L#'@p#M#G@|@N#O#P#Q#R#S#u+T#U#V#W#X#Y#Z#`# $S+F@.$+$@$",
">+#$$$%$&$*$L@F@k@`@=$-$;$>$,$'$)$C#}@!$~${$]$^$/$q@($_$:$<$[$}$",
"m.j#|$1$2$3$4$s@_$5$6$7$w.i+o@8$o#7@9$0$a$b$c$d$e$v#,@L@f$g$h$i$",
"j$k$l$m$n$o$p$q$r$r@R+T.w.w.w.N+X.9.}+s$w.w.s$t$L@r@L@*$u$v$w$x$",
"y$c 5 z$A$B$C$D$E$8#|@X.F$N+G$H$5@6@}+($U.U.($[+I$*$*$u$J$K$L$M$",
"N$O$P$Q$R$S$T$U$K#:$k@o#u+@@@+V$;@}+8#W$X$u+,@Y$Z$u$u$`$ %.%O w ",
"+%@%L #%$%%%&%*%=%-%:$L@~#o#A.S#;%>%s@8@~#L#F@*$,%'%)%!%~%{%]%@.",
"^%/%(%_%:%<%[%}%|%1%2%3%:$Y$L@F@j@K#4%5%:$:$-%&$6%7%8%9%$ 0%}.a%",
"b%* n._.h.n._.x$h$c%d%e%u$Z$3%Z$u$&$f%g%h%i%J$j%5#k%h.n.l%m%* n%",
"o%o.p%p%* l%q%r%s%t%u%v%w%x%y%y%z%A%B%C%D%E%F%G%w$_%n.H%r%I%J%K%",
"L%> k$M%N%O%)+P%Q%R%S%T%U%V%W%X%Y%Z%`%>  &> .&+&@&#&$&l.%&> &&*&",
"> =& &>+-&;&_.>&,&'&>  &a+)&!&, ~&{@y+( 0+{&{&> ]&%&^&n.# /&(& &",
"_&4 o.:&* <&[&}&|&1&2&3&4&5&L.:.6&7&h.|&8&9&J%0&a&n%l%b&b&!+c&5 ",
"l%M%3&_@_.d&e&f&:.g&!+k.@&h&i&<...j&= l%m%k&^@k$'+_.l&m&n&  o&n%"};
